<svg class="main-svg" xmlns="http://www.w3.org/2000/svg" xmlns:xlink="http://www.w3.org/1999/xlink" width="800" height="600" style="" viewBox="0 0 800 600"><rect x="0" y="0" width="800" height="600" style="fill: rgb(255, 255, 255); fill-opacity: 1;"/><defs id="defs-cc7b52"><g class="clips"><clipPath id="clipcc7b52xyplot" class="plotclip"><rect width="680" height="480"/></clipPath><clipPath class="axesclip" id="clipcc7b52x"><rect x="80" y="0" width="680" height="600"/></clipPath><clipPath class="axesclip" id="clipcc7b52y"><rect x="0" y="60" width="800" height="480"/></clipPath><clipPath class="axesclip" id="clipcc7b52xy"><rect x="80" y="60" width="680" height="480"/></clipPath></g><g class="gradients"/><g class="patterns"/></defs><g class="bglayer"/><g class="layer-below"><g class="imagelayer"/><g class="shapelayer"/></g><g class="cartesianlayer"><g class="subplot xy"><g class="layer-subplot"><g class="shapelayer"/><g class="imagelayer"/></g><g class="minor-gridlayer"><g class="x"/><g class="y"/></g><g class="gridlayer"><g class="x"><path class="xgrid crisp" transform="translate(86.81,0)" d="M0,60v480" style="stroke: rgb(229, 231, 235); stroke-opacity: 1; stroke-width: 0.5px;"/><path class="xgrid crisp" transform="translate(120.25,0)" d="M0,60v480" style="stroke: rgb(229, 231, 235); stroke-opacity: 1; stroke-width: 0.5px;"/><path class="xgrid crisp" transform="translate(147.57999999999998,0)" d="M0,60v480" style="stroke: rgb(229, 231, 235); stroke-opacity: 1; stroke-width: 0.5px;"/><path class="xgrid crisp" transform="translate(170.68,0)" d="M0,60v480" style="stroke: rgb(229, 231, 235); stroke-opacity: 1; stroke-width: 0.5px;"/><path class="xgrid crisp" transform="translate(190.69,0)" d="M0,60v480" style="stroke: rgb(229, 231, 235); stroke-opacity: 1; stroke-width: 0.5px;"/><path class="xgrid crisp" transform="translate(208.34,0)" d="M0,60v480" style="stroke: rgb(229, 231, 235); stroke-opacity: 1; stroke-width: 0.5px;"/><path class="xgrid crisp" transform="translate(224.13,0)" d="M0,60v480" style="stroke: rgb(229, 231, 235); stroke-opacity: 1; stroke-width: 0.5px;"/><path class="xgrid crisp" transform="translate(328.02,0)" d="M0,60v480" style="stroke: rgb(229, 231, 235); stroke-opacity: 1; stroke-width: 0.5px;"/><path class="xgrid crisp" transform="translate(388.79,0)" d="M0,60v480" style="stroke: rgb(229, 231, 235); stroke-opacity: 1; stroke-width: 0.5px;"/><path class="xgrid crisp" transform="translate(431.9,0)" d="M0,60v480" style="stroke: rgb(229, 231, 235); stroke-opacity: 1; stroke-width: 0.5px;"/><path class="xgrid crisp" transform="translate(465.35,0)" d="M0,60v480" style="stroke: rgb(229, 231, 235); stroke-opacity: 1; stroke-width: 0.5px;"/><path class="xgrid crisp" transform="translate(492.67,0)" d="M0,60v480" style="stroke: rgb(229, 231, 235); stroke-opacity: 1; stroke-width: 0.5px;"/><path class="xgrid crisp" transform="translate(515.78,0)" d="M0,60v480" style="stroke: rgb(229, 231, 235); stroke-opacity: 1; stroke-width: 0.5px;"/><path class="xgrid crisp" transform="translate(535.79,0)" d="M0,60v480" style="stroke: rgb(229, 231, 235); stroke-opacity: 1; stroke-width: 0.5px;"/><path class="xgrid crisp" transform="translate(553.44,0)" d="M0,60v480" style="stroke: rgb(229, 231, 235); stroke-opacity: 1; stroke-width: 0.5px;"/><path class="xgrid crisp" transform="translate(569.23,0)" d="M0,60v480" style="stroke: rgb(229, 231, 235); stroke-opacity: 1; stroke-width: 0.5px;"/><path class="xgrid crisp" transform="translate(673.12,0)" d="M0,60v480" style="stroke: rgb(229, 231, 235); stroke-opacity: 1; stroke-width: 0.5px;"/><path class="xgrid crisp" transform="translate(733.88,0)" d="M0,60v480" style="stroke: rgb(229, 231, 235); stroke-opacity: 1; stroke-width: 0.5px;"/></g><g class="y"><path class="ygrid crisp" transform="translate(0,505.52)" d="M80,0h680" style="stroke: rgb(229, 231, 235); stroke-opacity: 1; stroke-width: 0.5px;"/><path class="ygrid crisp" transform="translate(0,418.2)" d="M80,0h680" style="stroke: rgb(229, 231, 235); stroke-opacity: 1; stroke-width: 0.5px;"/><path class="ygrid crisp" transform="translate(0,330.88)" d="M80,0h680" style="stroke: rgb(229, 231, 235); stroke-opacity: 1; stroke-width: 0.5px;"/><path class="ygrid crisp" transform="translate(0,243.57)" d="M80,0h680" style="stroke: rgb(229, 231, 235); stroke-opacity: 1; stroke-width: 0.5px;"/><path class="ygrid crisp" transform="translate(0,156.25)" d="M80,0h680" style="stroke: rgb(229, 231, 235); stroke-opacity: 1; stroke-width: 0.5px;"/><path class="ygrid crisp" transform="translate(0,68.93)" d="M80,0h680" style="stroke: rgb(229, 231, 235); stroke-opacity: 1; stroke-width: 0.5px;"/></g></g><g class="zerolinelayer"/><g class="layer-between"><g class="shapelayer"/><g class="imagelayer"/></g><path class="xlines-below"/><path class="ylines-below"/><g class="overlines-below"/><g class="xaxislayer-below"/><g class="yaxislayer-below"/><g class="overaxes-below"/><g class="overplot"><g class="xy" transform="translate(80,60)" clip-path="url(#clipcc7b52xyplot)"><g class="scatterlayer mlayer"><g class="trace scatter traceadcbce" style="stroke-miterlimit: 2; opacity: 1;"><g class="fills"/><g class="errorbars"><g class="errorbar"><path class="yerror" d="M35.25,24h10m-5,0V113.72m-5,0h10" style="vector-effect: none; stroke-width: 1.6px; stroke: rgb(255, 197, 8); stroke-opacity: 1;"/></g><g class="errorbar"><path class="yerror" d="M89.75,86.21h10m-5,0V172.04m-5,0h10" style="vector-effect: none; stroke-width: 1.6px; stroke: rgb(255, 197, 8); stroke-opacity: 1;"/></g><g class="errorbar"><path class="yerror" d="M144.25,92.05h10m-5,0V172.24m-5,0h10" style="vector-effect: none; stroke-width: 1.6px; stroke: rgb(255, 197, 8); stroke-opacity: 1;"/></g><g class="errorbar"><path class="yerror" d="M198.75,133.66h10m-5,0V206.87m-5,0h10" style="vector-effect: none; stroke-width: 1.6px; stroke: rgb(255, 197, 8); stroke-opacity: 1;"/></g><g class="errorbar"><path class="yerror" d="M253.25,205.25h10m-5,0V270.98m-5,0h10" style="vector-effect: none; stroke-width: 1.6px; stroke: rgb(255, 197, 8); stroke-opacity: 1;"/></g><g class="errorbar"><path class="yerror" d="M307.75,253.42h10m-5,0V311.97m-5,0h10" style="vector-effect: none; stroke-width: 1.6px; stroke: rgb(255, 197, 8); stroke-opacity: 1;"/></g><g class="errorbar"><path class="yerror" d="M362.25,287.27h10m-5,0V339.35m-5,0h10" style="vector-effect: none; stroke-width: 1.6px; stroke: rgb(255, 197, 8); stroke-opacity: 1;"/></g><g class="errorbar"><path class="yerror" d="M416.75,328.49h10m-5,0V374.97m-5,0h10" style="vector-effect: none; stroke-width: 1.6px; stroke: rgb(255, 197, 8); stroke-opacity: 1;"/></g><g class="errorbar"><path class="yerror" d="M471.25,363.3h10m-5,0V405.02m-5,0h10" style="vector-effect: none; stroke-width: 1.6px; stroke: rgb(255, 197, 8); stroke-opacity: 1;"/></g><g class="errorbar"><path class="yerror" d="M525.75,385.29h10m-5,0V423.01m-5,0h10" style="vector-effect: none; stroke-width: 1.6px; stroke: rgb(255, 197, 8); stroke-opacity: 1;"/></g><g class="errorbar"><path class="yerror" d="M580.25,410.66h10m-5,0V445.01m-5,0h10" style="vector-effect: none; stroke-width: 1.6px; stroke: rgb(255, 197, 8); stroke-opacity: 1;"/></g><g class="errorbar"><path class="yerror" d="M634.75,424.45h10m-5,0V456m-5,0h10" style="vector-effect: none; stroke-width: 1.6px; stroke: rgb(255, 197, 8); stroke-opacity: 1;"/></g></g><g class="lines"><path class="js-line" d="M40.25,68.86L94.75,129.13L149.25,132.14L203.75,170.26L258.25,238.11L312.75,282.69L367.25,313.31L421.75,351.73L476.25,384.16L530.75,404.15L585.25,427.84L639.75,440.22" style="vector-effect: none; fill: none; stroke: rgb(255, 197, 8); stroke-opacity: 1; stroke-dasharray: 3px, 3px; stroke-width: 1.2px; opacity: 1;"/></g><g class="points"><path class="point" transform="translate(40.25,68.86)" d="M5,5H-5V-5H5Z" style="opacity: 1; stroke-width: 1px; fill: rgb(255, 197, 8); fill-opacity: 1; stroke: rgb(255, 255, 255); stroke-opacity: 1;"/><path class="point" transform="translate(94.75,129.13)" d="M5,5H-5V-5H5Z" style="opacity: 1; stroke-width: 1px; fill: rgb(255, 197, 8); fill-opacity: 1; stroke: rgb(255, 255, 255); stroke-opacity: 1;"/><path class="point" transform="translate(149.25,132.14)" d="M5,5H-5V-5H5Z" style="opacity: 1; stroke-width: 1px; fill: rgb(255, 197, 8); fill-opacity: 1; stroke: rgb(255, 255, 255); stroke-opacity: 1;"/><path class="point" transform="translate(203.75,170.26)" d="M5,5H-5V-5H5Z" style="opacity: 1; stroke-width: 1px; fill: rgb(255, 197, 8); fill-opacity: 1; stroke: rgb(255, 255, 255); stroke-opacity: 1;"/><path class="point" transform="translate(258.25,238.11)" d="M5,5H-5V-5H5Z" style="opacity: 1; stroke-width: 1px; fill: rgb(255, 197, 8); fill-opacity: 1; stroke: rgb(255, 255, 255); stroke-opacity: 1;"/><path class="point" transform="translate(312.75,282.69)" d="M5,5H-5V-5H5Z" style="opacity: 1; stroke-width: 1px; fill: rgb(255, 197, 8); fill-opacity: 1; stroke: rgb(255, 255, 255); stroke-opacity: 1;"/><path class="point" transform="translate(367.25,313.31)" d="M5,5H-5V-5H5Z" style="opacity: 1; stroke-width: 1px; fill: rgb(255, 197, 8); fill-opacity: 1; stroke: rgb(255, 255, 255); stroke-opacity: 1;"/><path class="point" transform="translate(421.75,351.73)" d="M5,5H-5V-5H5Z" style="opacity: 1; stroke-width: 1px; fill: rgb(255, 197, 8); fill-opacity: 1; stroke: rgb(255, 255, 255); stroke-opacity: 1;"/><path class="point" transform="translate(476.25,384.16)" d="M5,5H-5V-5H5Z" style="opacity: 1; stroke-width: 1px; fill: rgb(255, 197, 8); fill-opacity: 1; stroke: rgb(255, 255, 255); stroke-opacity: 1;"/><path class="point" transform="translate(530.75,404.15)" d="M5,5H-5V-5H5Z" style="opacity: 1; stroke-width: 1px; fill: rgb(255, 197, 8); fill-opacity: 1; stroke: rgb(255, 255, 255); stroke-opacity: 1;"/><path class="point" transform="translate(585.25,427.84)" d="M5,5H-5V-5H5Z" style="opacity: 1; stroke-width: 1px; fill: rgb(255, 197, 8); fill-opacity: 1; stroke: rgb(255, 255, 255); stroke-opacity: 1;"/><path class="point" transform="translate(639.75,440.22)" d="M5,5H-5V-5H5Z" style="opacity: 1; stroke-width: 1px; fill: rgb(255, 197, 8); fill-opacity: 1; stroke: rgb(255, 255, 255); stroke-opacity: 1;"/></g><g class="text"/></g></g></g></g><g class="zerolinelayer-above"/><path class="xlines-above crisp" d="" style="fill: none; stroke-width: 1px; stroke: rgb(0, 0, 0); stroke-opacity: 0;"/><path class="ylines-above crisp" d="" style="fill: none; stroke-width: 1px; stroke: rgb(0, 0, 0); stroke-opacity: 0;"/><g class="overlines-above"/><g class="xaxislayer-above"><path class="xtick ticks crisp" d="M0,541v5" transform="translate(86.81,0)" style="stroke: rgb(107, 114, 128); stroke-opacity: 1; stroke-width: 1px;"/><path class="xtick ticks crisp" d="M0,541v5" transform="translate(120.25,0)" style="stroke: rgb(107, 114, 128); stroke-opacity: 1; stroke-width: 1px;"/><path class="xtick ticks crisp" d="M0,541v5" transform="translate(147.57999999999998,0)" style="stroke: rgb(107, 114, 128); stroke-opacity: 1; stroke-width: 1px;"/><path class="xtick ticks crisp" d="M0,541v5" transform="translate(170.68,0)" style="stroke: rgb(107, 114, 128); stroke-opacity: 1; stroke-width: 1px;"/><path class="xtick ticks crisp" d="M0,541v5" transform="translate(190.69,0)" style="stroke: rgb(107, 114, 128); stroke-opacity: 1; stroke-width: 1px;"/><path class="xtick ticks crisp" d="M0,541v5" transform="translate(208.34,0)" style="stroke: rgb(107, 114, 128); stroke-opacity: 1; stroke-width: 1px;"/><path class="xtick ticks crisp" d="M0,541v5" transform="translate(224.13,0)" style="stroke: rgb(107, 114, 128); stroke-opacity: 1; stroke-width: 1px;"/><path class="xtick ticks crisp" d="M0,541v5" transform="translate(328.02,0)" style="stroke: rgb(107, 114, 128); stroke-opacity: 1; stroke-width: 1px;"/><path class="xtick ticks crisp" d="M0,541v5" transform="translate(388.79,0)" style="stroke: rgb(107, 114, 128); stroke-opacity: 1; stroke-width: 1px;"/><path class="xtick ticks crisp" d="M0,541v5" transform="translate(431.9,0)" style="stroke: rgb(107, 114, 128); stroke-opacity: 1; stroke-width: 1px;"/><path class="xtick ticks crisp" d="M0,541v5" transform="translate(465.35,0)" style="stroke: rgb(107, 114, 128); stroke-opacity: 1; stroke-width: 1px;"/><path class="xtick ticks crisp" d="M0,541v5" transform="translate(492.67,0)" style="stroke: rgb(107, 114, 128); stroke-opacity: 1; stroke-width: 1px;"/><path class="xtick ticks crisp" d="M0,541v5" transform="translate(515.78,0)" style="stroke: rgb(107, 114, 128); stroke-opacity: 1; stroke-width: 1px;"/><path class="xtick ticks crisp" d="M0,541v5" transform="translate(535.79,0)" style="stroke: rgb(107, 114, 128); stroke-opacity: 1; stroke-width: 1px;"/><path class="xtick ticks crisp" d="M0,541v5" transform="translate(553.44,0)" style="stroke: rgb(107, 114, 128); stroke-opacity: 1; stroke-width: 1px;"/><path class="xtick ticks crisp" d="M0,541v5" transform="translate(569.23,0)" style="stroke: rgb(107, 114, 128); stroke-opacity: 1; stroke-width: 1px;"/><path class="xtick ticks crisp" d="M0,541v5" transform="translate(673.12,0)" style="stroke: rgb(107, 114, 128); stroke-opacity: 1; stroke-width: 1px;"/><path class="xtick ticks crisp" d="M0,541v5" transform="translate(733.88,0)" style="stroke: rgb(107, 114, 128); stroke-opacity: 1; stroke-width: 1px;"/><g class="xtick"><text text-anchor="middle" x="0" y="555.5" transform="translate(86.81,0)" style="font-family: 'Times New Roman', serif; font-size: 7.5px; fill: rgb(44, 62, 80); fill-opacity: 1; white-space: pre;">4</text></g><g class="xtick"><text text-anchor="middle" x="0" y="555.5" style="font-family: 'Times New Roman', serif; font-size: 7.5px; fill: rgb(44, 62, 80); fill-opacity: 1; white-space: pre;" transform="translate(120.25,0)">5</text></g><g class="xtick"><text text-anchor="middle" x="0" y="555.5" style="font-family: 'Times New Roman', serif; font-size: 7.5px; fill: rgb(44, 62, 80); fill-opacity: 1; white-space: pre;" transform="translate(147.57999999999998,0)">6</text></g><g class="xtick"><text text-anchor="middle" x="0" y="555.5" style="font-family: 'Times New Roman', serif; font-size: 7.5px; fill: rgb(44, 62, 80); fill-opacity: 1; white-space: pre;" transform="translate(170.68,0)">7</text></g><g class="xtick"><text text-anchor="middle" x="0" y="555.5" style="font-family: 'Times New Roman', serif; font-size: 7.5px; fill: rgb(44, 62, 80); fill-opacity: 1; white-space: pre;" transform="translate(190.69,0)">8</text></g><g class="xtick"><text text-anchor="middle" x="0" y="555.5" style="font-family: 'Times New Roman', serif; font-size: 7.5px; fill: rgb(44, 62, 80); fill-opacity: 1; white-space: pre;" transform="translate(208.34,0)">9</text></g><g class="xtick"><text text-anchor="middle" x="2.5" y="563" style="font-family: 'Times New Roman', serif; font-size: 10px; fill: rgb(44, 62, 80); fill-opacity: 1; white-space: pre;" transform="translate(224.13,0)">100</text></g><g class="xtick"><text text-anchor="middle" x="0" y="555.5" style="font-family: 'Times New Roman', serif; font-size: 7.5px; fill: rgb(44, 62, 80); fill-opacity: 1; white-space: pre;" transform="translate(328.02,0)">2</text></g><g class="xtick"><text text-anchor="middle" x="0" y="555.5" style="font-family: 'Times New Roman', serif; font-size: 7.5px; fill: rgb(44, 62, 80); fill-opacity: 1; white-space: pre;" transform="translate(388.79,0)">3</text></g><g class="xtick"><text text-anchor="middle" x="0" y="555.5" style="font-family: 'Times New Roman', serif; font-size: 7.5px; fill: rgb(44, 62, 80); fill-opacity: 1; white-space: pre;" transform="translate(431.9,0)">4</text></g><g class="xtick"><text text-anchor="middle" x="0" y="555.5" style="font-family: 'Times New Roman', serif; font-size: 7.5px; fill: rgb(44, 62, 80); fill-opacity: 1; white-space: pre;" transform="translate(465.35,0)">5</text></g><g class="xtick"><text text-anchor="middle" x="0" y="555.5" style="font-family: 'Times New Roman', serif; font-size: 7.5px; fill: rgb(44, 62, 80); fill-opacity: 1; white-space: pre;" transform="translate(492.67,0)">6</text></g><g class="xtick"><text text-anchor="middle" x="0" y="555.5" style="font-family: 'Times New Roman', serif; font-size: 7.5px; fill: rgb(44, 62, 80); fill-opacity: 1; white-space: pre;" transform="translate(515.78,0)">7</text></g><g class="xtick"><text text-anchor="middle" x="0" y="555.5" style="font-family: 'Times New Roman', serif; font-size: 7.5px; fill: rgb(44, 62, 80); fill-opacity: 1; white-space: pre;" transform="translate(535.79,0)">8</text></g><g class="xtick"><text text-anchor="middle" x="0" y="555.5" style="font-family: 'Times New Roman', serif; font-size: 7.5px; fill: rgb(44, 62, 80); fill-opacity: 1; white-space: pre;" transform="translate(553.44,0)">9</text></g><g class="xtick"><text text-anchor="middle" x="2.5" y="563" style="font-family: 'Times New Roman', serif; font-size: 10px; fill: rgb(44, 62, 80); fill-opacity: 1; white-space: pre;" transform="translate(569.23,0)">1000</text></g><g class="xtick"><text text-anchor="middle" x="0" y="555.5" style="font-family: 'Times New Roman', serif; font-size: 7.5px; fill: rgb(44, 62, 80); fill-opacity: 1; white-space: pre;" transform="translate(673.12,0)">2</text></g><g class="xtick"><text text-anchor="middle" x="0" y="555.5" style="font-family: 'Times New Roman', serif; font-size: 7.5px; fill: rgb(44, 62, 80); fill-opacity: 1; white-space: pre;" transform="translate(733.88,0)">3</text></g></g><g class="yaxislayer-above"><path class="ytick ticks crisp" d="M79,0h-5" transform="translate(0,505.52)" style="stroke: rgb(107, 114, 128); stroke-opacity: 1; stroke-width: 1px;"/><path class="ytick ticks crisp" d="M79,0h-5" transform="translate(0,418.2)" style="stroke: rgb(107, 114, 128); stroke-opacity: 1; stroke-width: 1px;"/><path class="ytick ticks crisp" d="M79,0h-5" transform="translate(0,330.88)" style="stroke: rgb(107, 114, 128); stroke-opacity: 1; stroke-width: 1px;"/><path class="ytick ticks crisp" d="M79,0h-5" transform="translate(0,243.57)" style="stroke: rgb(107, 114, 128); stroke-opacity: 1; stroke-width: 1px;"/><path class="ytick ticks crisp" d="M79,0h-5" transform="translate(0,156.25)" style="stroke: rgb(107, 114, 128); stroke-opacity: 1; stroke-width: 1px;"/><path class="ytick ticks crisp" d="M79,0h-5" transform="translate(0,68.93)" style="stroke: rgb(107, 114, 128); stroke-opacity: 1; stroke-width: 1px;"/><g class="ytick"><text text-anchor="end" x="72" y="3.5" transform="translate(0,505.52)" style="font-family: 'Times New Roman', serif; font-size: 10px; fill: rgb(44, 62, 80); fill-opacity: 1; white-space: pre;">2</text></g><g class="ytick"><text text-anchor="end" x="72" y="3.5" style="font-family: 'Times New Roman', serif; font-size: 10px; fill: rgb(44, 62, 80); fill-opacity: 1; white-space: pre;" transform="translate(0,418.2)">4</text></g><g class="ytick"><text text-anchor="end" x="72" y="3.5" style="font-family: 'Times New Roman', serif; font-size: 10px; fill: rgb(44, 62, 80); fill-opacity: 1; white-space: pre;" transform="translate(0,330.88)">6</text></g><g class="ytick"><text text-anchor="end" x="72" y="3.5" style="font-family: 'Times New Roman', serif; font-size: 10px; fill: rgb(44, 62, 80); fill-opacity: 1; white-space: pre;" transform="translate(0,243.57)">8</text></g><g class="ytick"><text text-anchor="end" x="72" y="3.5" style="font-family: 'Times New Roman', serif; font-size: 10px; fill: rgb(44, 62, 80); fill-opacity: 1; white-space: pre;" transform="translate(0,156.25)">10</text></g><g class="ytick"><text text-anchor="end" x="72" y="3.5" style="font-family: 'Times New Roman', serif; font-size: 10px; fill: rgb(44, 62, 80); fill-opacity: 1; white-space: pre;" transform="translate(0,68.93)">12</text></g></g><g class="overaxes-above"/></g></g><g class="polarlayer"/><g class="smithlayer"/><g class="ternarylayer"/><g class="geolayer"/><g class="funnelarealayer"/><g class="pielayer"/><g class="iciclelayer"/><g class="treemaplayer"/><g class="sunburstlayer"/><g class="glimages"/><defs id="topdefs-cc7b52"><g class="clips"/></defs><g class="layer-above"><g class="imagelayer"/><g class="shapelayer"/></g><g class="infolayer"><g class="g-gtitle"><text class="gtitle" x="400" y="30" text-anchor="middle" dy="0em" style="opacity: 1; font-family: 'Times New Roman', serif; font-size: 13px; fill: rgb(44, 62, 80); fill-opacity: 1; white-space: pre;"><tspan class="line" dy="0em" x="400" y="30">A2029 Temperature Profile</tspan><tspan class="line" dy="1.3em" x="400" y="30">​<tspan style="font-size:70%" dy="0.3em">Relaxed Cool Core | z = 0.0767 | M​<tspan style="font-size:70%" dy="0.3em">500</tspan><tspan dy="-0.21em">​</tspan> = 1.27e+15 M​<tspan style="font-size:70%" dy="0.3em">☉</tspan><tspan dy="-0.21em">​</tspan></tspan><tspan dy="-0.21em">​</tspan></tspan></text></g><g class="g-xtitle"><text class="xtitle" x="420" y="583" text-anchor="middle" style="opacity: 1; font-family: 'Times New Roman', serif; font-size: 11px; fill: rgb(44, 62, 80); fill-opacity: 1; white-space: pre;">Radius [kpc]</text></g><g class="g-ytitle"><text class="ytitle" transform="rotate(-90,48,300)" x="48" y="300" text-anchor="middle" style="opacity: 1; font-family: 'Times New Roman', serif; font-size: 11px; fill: rgb(44, 62, 80); fill-opacity: 1; white-space: pre;">Temperature [keV]</text></g></g></svg>