<svg class="main-svg" xmlns="http://www.w3.org/2000/svg" xmlns:xlink="http://www.w3.org/1999/xlink" width="800" height="600" style="" viewBox="0 0 800 600"><rect x="0" y="0" width="800" height="600" style="fill: rgb(255, 255, 255); fill-opacity: 1;"/><defs id="defs-732ae4"><g class="clips"><clipPath id="clip732ae4xyplot" class="plotclip"><rect width="680" height="480"/></clipPath><clipPath class="axesclip" id="clip732ae4x"><rect x="80" y="0" width="680" height="600"/></clipPath><clipPath class="axesclip" id="clip732ae4y"><rect x="0" y="60" width="800" height="480"/></clipPath><clipPath class="axesclip" id="clip732ae4xy"><rect x="80" y="60" width="680" height="480"/></clipPath></g><g class="gradients"/><g class="patterns"/></defs><g class="bglayer"/><g class="layer-below"><g class="imagelayer"/><g class="shapelayer"/></g><g class="cartesianlayer"><g class="subplot xy"><g class="layer-subplot"><g class="shapelayer"/><g class="imagelayer"/></g><g class="minor-gridlayer"><g class="x"/><g class="y"/></g><g class="gridlayer"><g class="x"><path class="xgrid crisp" transform="translate(82.74,0)" d="M0,60v480" style="stroke: rgb(229, 231, 235); stroke-opacity: 1; stroke-width: 0.5px;"/><path class="xgrid crisp" transform="translate(120.25,0)" d="M0,60v480" style="stroke: rgb(229, 231, 235); stroke-opacity: 1; stroke-width: 0.5px;"/><path class="xgrid crisp" transform="translate(150.89,0)" d="M0,60v480" style="stroke: rgb(229, 231, 235); stroke-opacity: 1; stroke-width: 0.5px;"/><path class="xgrid crisp" transform="translate(176.8,0)" d="M0,60v480" style="stroke: rgb(229, 231, 235); stroke-opacity: 1; stroke-width: 0.5px;"/><path class="xgrid crisp" transform="translate(199.25,0)" d="M0,60v480" style="stroke: rgb(229, 231, 235); stroke-opacity: 1; stroke-width: 0.5px;"/><path class="xgrid crisp" transform="translate(219.05,0)" d="M0,60v480" style="stroke: rgb(229, 231, 235); stroke-opacity: 1; stroke-width: 0.5px;"/><path class="xgrid crisp" transform="translate(236.76,0)" d="M0,60v480" style="stroke: rgb(229, 231, 235); stroke-opacity: 1; stroke-width: 0.5px;"/><path class="xgrid crisp" transform="translate(353.26,0)" d="M0,60v480" style="stroke: rgb(229, 231, 235); stroke-opacity: 1; stroke-width: 0.5px;"/><path class="xgrid crisp" transform="translate(421.41,0)" d="M0,60v480" style="stroke: rgb(229, 231, 235); stroke-opacity: 1; stroke-width: 0.5px;"/><path class="xgrid crisp" transform="translate(469.77,0)" d="M0,60v480" style="stroke: rgb(229, 231, 235); stroke-opacity: 1; stroke-width: 0.5px;"/><path class="xgrid crisp" transform="translate(507.27,0)" d="M0,60v480" style="stroke: rgb(229, 231, 235); stroke-opacity: 1; stroke-width: 0.5px;"/><path class="xgrid crisp" transform="translate(537.9200000000001,0)" d="M0,60v480" style="stroke: rgb(229, 231, 235); stroke-opacity: 1; stroke-width: 0.5px;"/><path class="xgrid crisp" transform="translate(563.8299999999999,0)" d="M0,60v480" style="stroke: rgb(229, 231, 235); stroke-opacity: 1; stroke-width: 0.5px;"/><path class="xgrid crisp" transform="translate(586.27,0)" d="M0,60v480" style="stroke: rgb(229, 231, 235); stroke-opacity: 1; stroke-width: 0.5px;"/><path class="xgrid crisp" transform="translate(606.07,0)" d="M0,60v480" style="stroke: rgb(229, 231, 235); stroke-opacity: 1; stroke-width: 0.5px;"/><path class="xgrid crisp" transform="translate(623.78,0)" d="M0,60v480" style="stroke: rgb(229, 231, 235); stroke-opacity: 1; stroke-width: 0.5px;"/><path class="xgrid crisp" transform="translate(740.28,0)" d="M0,60v480" style="stroke: rgb(229, 231, 235); stroke-opacity: 1; stroke-width: 0.5px;"/></g><g class="y"><path class="ygrid crisp" transform="translate(0,485.58)" d="M80,0h680" style="stroke: rgb(229, 231, 235); stroke-opacity: 1; stroke-width: 0.5px;"/><path class="ygrid crisp" transform="translate(0,396.06)" d="M80,0h680" style="stroke: rgb(229, 231, 235); stroke-opacity: 1; stroke-width: 0.5px;"/><path class="ygrid crisp" transform="translate(0,306.53999999999996)" d="M80,0h680" style="stroke: rgb(229, 231, 235); stroke-opacity: 1; stroke-width: 0.5px;"/><path class="ygrid crisp" transform="translate(0,217.01)" d="M80,0h680" style="stroke: rgb(229, 231, 235); stroke-opacity: 1; stroke-width: 0.5px;"/><path class="ygrid crisp" transform="translate(0,127.49)" d="M80,0h680" style="stroke: rgb(229, 231, 235); stroke-opacity: 1; stroke-width: 0.5px;"/></g></g><g class="zerolinelayer"/><g class="layer-between"><g class="shapelayer"/><g class="imagelayer"/></g><path class="xlines-below"/><path class="ylines-below"/><g class="overlines-below"/><g class="xaxislayer-below"/><g class="yaxislayer-below"/><g class="overaxes-below"/><g class="overplot"><g class="xy" transform="translate(80,60)" clip-path="url(#clip732ae4xyplot)"><g class="scatterlayer mlayer"><g class="trace scatter trace74ad4b" style="stroke-miterlimit: 2; opacity: 1;"><g class="fills"/><g class="errorbars"><g class="errorbar"><path class="yerror" d="M35.25,24h10m-5,0V126.49m-5,0h10" style="vector-effect: none; stroke-width: 1.6px; stroke: rgb(44, 62, 80); stroke-opacity: 1;"/></g><g class="errorbar"><path class="yerror" d="M89.75,82.42h10m-5,0V179.74m-5,0h10" style="vector-effect: none; stroke-width: 1.6px; stroke: rgb(44, 62, 80); stroke-opacity: 1;"/></g><g class="errorbar"><path class="yerror" d="M144.25,133.23h10m-5,0V224.36m-5,0h10" style="vector-effect: none; stroke-width: 1.6px; stroke: rgb(44, 62, 80); stroke-opacity: 1;"/></g><g class="errorbar"><path class="yerror" d="M198.75,165.92h10m-5,0V250.45m-5,0h10" style="vector-effect: none; stroke-width: 1.6px; stroke: rgb(44, 62, 80); stroke-opacity: 1;"/></g><g class="errorbar"><path class="yerror" d="M253.25,213.24h10m-5,0V291.35m-5,0h10" style="vector-effect: none; stroke-width: 1.6px; stroke: rgb(44, 62, 80); stroke-opacity: 1;"/></g><g class="errorbar"><path class="yerror" d="M307.75,247.35h10m-5,0V319.54m-5,0h10" style="vector-effect: none; stroke-width: 1.6px; stroke: rgb(44, 62, 80); stroke-opacity: 1;"/></g><g class="errorbar"><path class="yerror" d="M362.25,289.1h10m-5,0V356.04m-5,0h10" style="vector-effect: none; stroke-width: 1.6px; stroke: rgb(44, 62, 80); stroke-opacity: 1;"/></g><g class="errorbar"><path class="yerror" d="M416.75,332.87h10m-5,0V395.24m-5,0h10" style="vector-effect: none; stroke-width: 1.6px; stroke: rgb(44, 62, 80); stroke-opacity: 1;"/></g><g class="errorbar"><path class="yerror" d="M471.25,343.46h10m-5,0V401.89m-5,0h10" style="vector-effect: none; stroke-width: 1.6px; stroke: rgb(44, 62, 80); stroke-opacity: 1;"/></g><g class="errorbar"><path class="yerror" d="M525.75,375.45h10m-5,0V430.52m-5,0h10" style="vector-effect: none; stroke-width: 1.6px; stroke: rgb(44, 62, 80); stroke-opacity: 1;"/></g><g class="errorbar"><path class="yerror" d="M580.25,385.13h10m-5,0V437.32m-5,0h10" style="vector-effect: none; stroke-width: 1.6px; stroke: rgb(44, 62, 80); stroke-opacity: 1;"/></g><g class="errorbar"><path class="yerror" d="M634.75,406.26h10m-5,0V456m-5,0h10" style="vector-effect: none; stroke-width: 1.6px; stroke: rgb(44, 62, 80); stroke-opacity: 1;"/></g></g><g class="lines"><path class="js-line" d="M40.25,75.25L94.75,131.08L149.25,178.79L203.75,208.18L258.25,252.29L312.75,283.45L367.25,322.57L421.75,364.06L476.25,372.67L530.75,402.98L585.25,411.23L639.75,431.13" style="vector-effect: none; fill: none; stroke: rgb(44, 62, 80); stroke-opacity: 1; stroke-dasharray: 3px, 3px; stroke-width: 1.2px; opacity: 1;"/></g><g class="points"><path class="point" transform="translate(40.25,75.25)" d="M6.5,0L0,6.5L-6.5,0L0,-6.5Z" style="opacity: 1; stroke-width: 1px; fill: rgb(44, 62, 80); fill-opacity: 1; stroke: rgb(255, 255, 255); stroke-opacity: 1;"/><path class="point" transform="translate(94.75,131.08)" d="M6.5,0L0,6.5L-6.5,0L0,-6.5Z" style="opacity: 1; stroke-width: 1px; fill: rgb(44, 62, 80); fill-opacity: 1; stroke: rgb(255, 255, 255); stroke-opacity: 1;"/><path class="point" transform="translate(149.25,178.79)" d="M6.5,0L0,6.5L-6.5,0L0,-6.5Z" style="opacity: 1; stroke-width: 1px; fill: rgb(44, 62, 80); fill-opacity: 1; stroke: rgb(255, 255, 255); stroke-opacity: 1;"/><path class="point" transform="translate(203.75,208.18)" d="M6.5,0L0,6.5L-6.5,0L0,-6.5Z" style="opacity: 1; stroke-width: 1px; fill: rgb(44, 62, 80); fill-opacity: 1; stroke: rgb(255, 255, 255); stroke-opacity: 1;"/><path class="point" transform="translate(258.25,252.29)" d="M6.5,0L0,6.5L-6.5,0L0,-6.5Z" style="opacity: 1; stroke-width: 1px; fill: rgb(44, 62, 80); fill-opacity: 1; stroke: rgb(255, 255, 255); stroke-opacity: 1;"/><path class="point" transform="translate(312.75,283.45)" d="M6.5,0L0,6.5L-6.5,0L0,-6.5Z" style="opacity: 1; stroke-width: 1px; fill: rgb(44, 62, 80); fill-opacity: 1; stroke: rgb(255, 255, 255); stroke-opacity: 1;"/><path class="point" transform="translate(367.25,322.57)" d="M6.5,0L0,6.5L-6.5,0L0,-6.5Z" style="opacity: 1; stroke-width: 1px; fill: rgb(44, 62, 80); fill-opacity: 1; stroke: rgb(255, 255, 255); stroke-opacity: 1;"/><path class="point" transform="translate(421.75,364.06)" d="M6.5,0L0,6.5L-6.5,0L0,-6.5Z" style="opacity: 1; stroke-width: 1px; fill: rgb(44, 62, 80); fill-opacity: 1; stroke: rgb(255, 255, 255); stroke-opacity: 1;"/><path class="point" transform="translate(476.25,372.67)" d="M6.5,0L0,6.5L-6.5,0L0,-6.5Z" style="opacity: 1; stroke-width: 1px; fill: rgb(44, 62, 80); fill-opacity: 1; stroke: rgb(255, 255, 255); stroke-opacity: 1;"/><path class="point" transform="translate(530.75,402.98)" d="M6.5,0L0,6.5L-6.5,0L0,-6.5Z" style="opacity: 1; stroke-width: 1px; fill: rgb(44, 62, 80); fill-opacity: 1; stroke: rgb(255, 255, 255); stroke-opacity: 1;"/><path class="point" transform="translate(585.25,411.23)" d="M6.5,0L0,6.5L-6.5,0L0,-6.5Z" style="opacity: 1; stroke-width: 1px; fill: rgb(44, 62, 80); fill-opacity: 1; stroke: rgb(255, 255, 255); stroke-opacity: 1;"/><path class="point" transform="translate(639.75,431.13)" d="M6.5,0L0,6.5L-6.5,0L0,-6.5Z" style="opacity: 1; stroke-width: 1px; fill: rgb(44, 62, 80); fill-opacity: 1; stroke: rgb(255, 255, 255); stroke-opacity: 1;"/></g><g class="text"/></g></g></g></g><g class="zerolinelayer-above"/><path class="xlines-above crisp" d="" style="fill: none; stroke-width: 1px; stroke: rgb(0, 0, 0); stroke-opacity: 0;"/><path class="ylines-above crisp" d="" style="fill: none; stroke-width: 1px; stroke: rgb(0, 0, 0); stroke-opacity: 0;"/><g class="overlines-above"/><g class="xaxislayer-above"><path class="xtick ticks crisp" d="M0,541v5" transform="translate(82.74,0)" style="stroke: rgb(107, 114, 128); stroke-opacity: 1; stroke-width: 1px;"/><path class="xtick ticks crisp" d="M0,541v5" transform="translate(120.25,0)" style="stroke: rgb(107, 114, 128); stroke-opacity: 1; stroke-width: 1px;"/><path class="xtick ticks crisp" d="M0,541v5" transform="translate(150.89,0)" style="stroke: rgb(107, 114, 128); stroke-opacity: 1; stroke-width: 1px;"/><path class="xtick ticks crisp" d="M0,541v5" transform="translate(176.8,0)" style="stroke: rgb(107, 114, 128); stroke-opacity: 1; stroke-width: 1px;"/><path class="xtick ticks crisp" d="M0,541v5" transform="translate(199.25,0)" style="stroke: rgb(107, 114, 128); stroke-opacity: 1; stroke-width: 1px;"/><path class="xtick ticks crisp" d="M0,541v5" transform="translate(219.05,0)" style="stroke: rgb(107, 114, 128); stroke-opacity: 1; stroke-width: 1px;"/><path class="xtick ticks crisp" d="M0,541v5" transform="translate(236.76,0)" style="stroke: rgb(107, 114, 128); stroke-opacity: 1; stroke-width: 1px;"/><path class="xtick ticks crisp" d="M0,541v5" transform="translate(353.26,0)" style="stroke: rgb(107, 114, 128); stroke-opacity: 1; stroke-width: 1px;"/><path class="xtick ticks crisp" d="M0,541v5" transform="translate(421.41,0)" style="stroke: rgb(107, 114, 128); stroke-opacity: 1; stroke-width: 1px;"/><path class="xtick ticks crisp" d="M0,541v5" transform="translate(469.77,0)" style="stroke: rgb(107, 114, 128); stroke-opacity: 1; stroke-width: 1px;"/><path class="xtick ticks crisp" d="M0,541v5" transform="translate(507.27,0)" style="stroke: rgb(107, 114, 128); stroke-opacity: 1; stroke-width: 1px;"/><path class="xtick ticks crisp" d="M0,541v5" transform="translate(537.9200000000001,0)" style="stroke: rgb(107, 114, 128); stroke-opacity: 1; stroke-width: 1px;"/><path class="xtick ticks crisp" d="M0,541v5" transform="translate(563.8299999999999,0)" style="stroke: rgb(107, 114, 128); stroke-opacity: 1; stroke-width: 1px;"/><path class="xtick ticks crisp" d="M0,541v5" transform="translate(586.27,0)" style="stroke: rgb(107, 114, 128); stroke-opacity: 1; stroke-width: 1px;"/><path class="xtick ticks crisp" d="M0,541v5" transform="translate(606.07,0)" style="stroke: rgb(107, 114, 128); stroke-opacity: 1; stroke-width: 1px;"/><path class="xtick ticks crisp" d="M0,541v5" transform="translate(623.78,0)" style="stroke: rgb(107, 114, 128); stroke-opacity: 1; stroke-width: 1px;"/><path class="xtick ticks crisp" d="M0,541v5" transform="translate(740.28,0)" style="stroke: rgb(107, 114, 128); stroke-opacity: 1; stroke-width: 1px;"/><g class="xtick"><text text-anchor="middle" x="0" y="555.5" transform="translate(82.74,0)" style="font-family: 'Times New Roman', serif; font-size: 7.5px; fill: rgb(44, 62, 80); fill-opacity: 1; white-space: pre;">4</text></g><g class="xtick"><text text-anchor="middle" x="0" y="555.5" style="font-family: 'Times New Roman', serif; font-size: 7.5px; fill: rgb(44, 62, 80); fill-opacity: 1; white-space: pre;" transform="translate(120.25,0)">5</text></g><g class="xtick"><text text-anchor="middle" x="0" y="555.5" style="font-family: 'Times New Roman', serif; font-size: 7.5px; fill: rgb(44, 62, 80); fill-opacity: 1; white-space: pre;" transform="translate(150.89,0)">6</text></g><g class="xtick"><text text-anchor="middle" x="0" y="555.5" style="font-family: 'Times New Roman', serif; font-size: 7.5px; fill: rgb(44, 62, 80); fill-opacity: 1; white-space: pre;" transform="translate(176.8,0)">7</text></g><g class="xtick"><text text-anchor="middle" x="0" y="555.5" style="font-family: 'Times New Roman', serif; font-size: 7.5px; fill: rgb(44, 62, 80); fill-opacity: 1; white-space: pre;" transform="translate(199.25,0)">8</text></g><g class="xtick"><text text-anchor="middle" x="0" y="555.5" style="font-family: 'Times New Roman', serif; font-size: 7.5px; fill: rgb(44, 62, 80); fill-opacity: 1; white-space: pre;" transform="translate(219.05,0)">9</text></g><g class="xtick"><text text-anchor="middle" x="2.5" y="563" style="font-family: 'Times New Roman', serif; font-size: 10px; fill: rgb(44, 62, 80); fill-opacity: 1; white-space: pre;" transform="translate(236.76,0)">100</text></g><g class="xtick"><text text-anchor="middle" x="0" y="555.5" style="font-family: 'Times New Roman', serif; font-size: 7.5px; fill: rgb(44, 62, 80); fill-opacity: 1; white-space: pre;" transform="translate(353.26,0)">2</text></g><g class="xtick"><text text-anchor="middle" x="0" y="555.5" style="font-family: 'Times New Roman', serif; font-size: 7.5px; fill: rgb(44, 62, 80); fill-opacity: 1; white-space: pre;" transform="translate(421.41,0)">3</text></g><g class="xtick"><text text-anchor="middle" x="0" y="555.5" style="font-family: 'Times New Roman', serif; font-size: 7.5px; fill: rgb(44, 62, 80); fill-opacity: 1; white-space: pre;" transform="translate(469.77,0)">4</text></g><g class="xtick"><text text-anchor="middle" x="0" y="555.5" style="font-family: 'Times New Roman', serif; font-size: 7.5px; fill: rgb(44, 62, 80); fill-opacity: 1; white-space: pre;" transform="translate(507.27,0)">5</text></g><g class="xtick"><text text-anchor="middle" x="0" y="555.5" style="font-family: 'Times New Roman', serif; font-size: 7.5px; fill: rgb(44, 62, 80); fill-opacity: 1; white-space: pre;" transform="translate(537.9200000000001,0)">6</text></g><g class="xtick"><text text-anchor="middle" x="0" y="555.5" style="font-family: 'Times New Roman', serif; font-size: 7.5px; fill: rgb(44, 62, 80); fill-opacity: 1; white-space: pre;" transform="translate(563.8299999999999,0)">7</text></g><g class="xtick"><text text-anchor="middle" x="0" y="555.5" style="font-family: 'Times New Roman', serif; font-size: 7.5px; fill: rgb(44, 62, 80); fill-opacity: 1; white-space: pre;" transform="translate(586.27,0)">8</text></g><g class="xtick"><text text-anchor="middle" x="0" y="555.5" style="font-family: 'Times New Roman', serif; font-size: 7.5px; fill: rgb(44, 62, 80); fill-opacity: 1; white-space: pre;" transform="translate(606.07,0)">9</text></g><g class="xtick"><text text-anchor="middle" x="2.5" y="563" style="font-family: 'Times New Roman', serif; font-size: 10px; fill: rgb(44, 62, 80); fill-opacity: 1; white-space: pre;" transform="translate(623.78,0)">1000</text></g><g class="xtick"><text text-anchor="middle" x="0" y="555.5" style="font-family: 'Times New Roman', serif; font-size: 7.5px; fill: rgb(44, 62, 80); fill-opacity: 1; white-space: pre;" transform="translate(740.28,0)">2</text></g></g><g class="yaxislayer-above"><path class="ytick ticks crisp" d="M79,0h-5" transform="translate(0,485.58)" style="stroke: rgb(107, 114, 128); stroke-opacity: 1; stroke-width: 1px;"/><path class="ytick ticks crisp" d="M79,0h-5" transform="translate(0,396.06)" style="stroke: rgb(107, 114, 128); stroke-opacity: 1; stroke-width: 1px;"/><path class="ytick ticks crisp" d="M79,0h-5" transform="translate(0,306.53999999999996)" style="stroke: rgb(107, 114, 128); stroke-opacity: 1; stroke-width: 1px;"/><path class="ytick ticks crisp" d="M79,0h-5" transform="translate(0,217.01)" style="stroke: rgb(107, 114, 128); stroke-opacity: 1; stroke-width: 1px;"/><path class="ytick ticks crisp" d="M79,0h-5" transform="translate(0,127.49)" style="stroke: rgb(107, 114, 128); stroke-opacity: 1; stroke-width: 1px;"/><g class="ytick"><text text-anchor="end" x="72" y="3.5" transform="translate(0,485.58)" style="font-family: 'Times New Roman', serif; font-size: 10px; fill: rgb(44, 62, 80); fill-opacity: 1; white-space: pre;">1</text></g><g class="ytick"><text text-anchor="end" x="72" y="3.5" style="font-family: 'Times New Roman', serif; font-size: 10px; fill: rgb(44, 62, 80); fill-opacity: 1; white-space: pre;" transform="translate(0,396.06)">2</text></g><g class="ytick"><text text-anchor="end" x="72" y="3.5" style="font-family: 'Times New Roman', serif; font-size: 10px; fill: rgb(44, 62, 80); fill-opacity: 1; white-space: pre;" transform="translate(0,306.53999999999996)">3</text></g><g class="ytick"><text text-anchor="end" x="72" y="3.5" style="font-family: 'Times New Roman', serif; font-size: 10px; fill: rgb(44, 62, 80); fill-opacity: 1; white-space: pre;" transform="translate(0,217.01)">4</text></g><g class="ytick"><text text-anchor="end" x="72" y="3.5" style="font-family: 'Times New Roman', serif; font-size: 10px; fill: rgb(44, 62, 80); fill-opacity: 1; white-space: pre;" transform="translate(0,127.49)">5</text></g></g><g class="overaxes-above"/></g></g><g class="polarlayer"/><g class="smithlayer"/><g class="ternarylayer"/><g class="geolayer"/><g class="funnelarealayer"/><g class="pielayer"/><g class="iciclelayer"/><g class="treemaplayer"/><g class="sunburstlayer"/><g class="glimages"/><defs id="topdefs-732ae4"><g class="clips"/></defs><g class="layer-above"><g class="imagelayer"/><g class="shapelayer"/></g><g class="infolayer"><g class="g-gtitle"><text class="gtitle" x="400" y="30" text-anchor="middle" dy="0em" style="opacity: 1; font-family: 'Times New Roman', serif; font-size: 13px; fill: rgb(44, 62, 80); fill-opacity: 1; white-space: pre;"><tspan class="line" dy="0em" x="400" y="30">A2199 Temperature Profile</tspan><tspan class="line" dy="1.3em" x="400" y="30">​<tspan style="font-size:70%" dy="0.3em">Relaxed Cool Core | z = 0.0302 | M​<tspan style="font-size:70%" dy="0.3em">500</tspan><tspan dy="-0.21em">​</tspan> = 3.90e+14 M​<tspan style="font-size:70%" dy="0.3em">☉</tspan><tspan dy="-0.21em">​</tspan></tspan><tspan dy="-0.21em">​</tspan></tspan></text></g><g class="g-xtitle"><text class="xtitle" x="420" y="583" text-anchor="middle" style="opacity: 1; font-family: 'Times New Roman', serif; font-size: 11px; fill: rgb(44, 62, 80); fill-opacity: 1; white-space: pre;">Radius [kpc]</text></g><g class="g-ytitle"><text class="ytitle" transform="rotate(-90,48,300)" x="48" y="300" text-anchor="middle" style="opacity: 1; font-family: 'Times New Roman', serif; font-size: 11px; fill: rgb(44, 62, 80); fill-opacity: 1; white-space: pre;">Temperature [keV]</text></g></g></svg>