<?xml version="1.0" encoding="utf-8" standalone="no"?>
<!DOCTYPE svg PUBLIC "-//W3C//DTD SVG 1.1//EN"
  "http://www.w3.org/Graphics/SVG/1.1/DTD/svg11.dtd">
<svg xmlns:xlink="http://www.w3.org/1999/xlink" width="535.076875pt" height="362.711875pt" viewBox="0 0 535.076875 362.711875" xmlns="http://www.w3.org/2000/svg" version="1.1">
 <metadata>
  <rdf:RDF xmlns:dc="http://purl.org/dc/elements/1.1/" xmlns:cc="http://creativecommons.org/ns#" xmlns:rdf="http://www.w3.org/1999/02/22-rdf-syntax-ns#">
   <cc:Work>
    <dc:type rdf:resource="http://purl.org/dc/dcmitype/StillImage"/>
    <dc:date>2025-10-22T11:35:21.509401</dc:date>
    <dc:format>image/svg+xml</dc:format>
    <dc:creator>
     <cc:Agent>
      <dc:title>Matplotlib v3.10.7, https://matplotlib.org/</dc:title>
     </cc:Agent>
    </dc:creator>
   </cc:Work>
  </rdf:RDF>
 </metadata>
 <defs>
  <style type="text/css">*{stroke-linejoin: round; stroke-linecap: butt}</style>
 </defs>
 <g id="figure_1">
  <g id="patch_1">
   <path d="M 0 362.711875 
L 535.076875 362.711875 
L 535.076875 0 
L 0 0 
z
" style="fill: #ffffff"/>
  </g>
  <g id="axes_1">
   <g id="patch_2">
    <path d="M 44.036875 315.359375 
L 527.876875 315.359375 
L 527.876875 41.759375 
L 44.036875 41.759375 
z
" style="fill: #ffffff"/>
   </g>
   <g id="matplotlib.axis_1">
    <g id="xtick_1">
     <g id="line2d_1">
      <path d="M 153.51809 315.359375 
L 153.51809 41.759375 
" clip-path="url(#p37456f252e)" style="fill: none; stroke: #d0d5dd; stroke-linecap: square"/>
     </g>
     <g id="line2d_2">
      <defs>
       <path id="m04b3bd57de" d="M 0 0 
L 0 6 
" style="stroke: #6b7380"/>
      </defs>
      <g>
       <use xlink:href="#m04b3bd57de" x="153.51809" y="315.359375" style="fill: #6b7380; stroke: #6b7380"/>
      </g>
     </g>
     <g id="text_1">
      <!-- $\mathdefault{10^{2}}$ -->
      <g style="fill: #6b7380" transform="translate(144.71809 332.457812) scale(0.1 -0.1)">
       <defs>
        <path id="DejaVuSans-31" d="M 794 531 
L 1825 531 
L 1825 4091 
L 703 3866 
L 703 4441 
L 1819 4666 
L 2450 4666 
L 2450 531 
L 3481 531 
L 3481 0 
L 794 0 
L 794 531 
z
" transform="scale(0.015625)"/>
        <path id="DejaVuSans-30" d="M 2034 4250 
Q 1547 4250 1301 3770 
Q 1056 3291 1056 2328 
Q 1056 1369 1301 889 
Q 1547 409 2034 409 
Q 2525 409 2770 889 
Q 3016 1369 3016 2328 
Q 3016 3291 2770 3770 
Q 2525 4250 2034 4250 
z
M 2034 4750 
Q 2819 4750 3233 4129 
Q 3647 3509 3647 2328 
Q 3647 1150 3233 529 
Q 2819 -91 2034 -91 
Q 1250 -91 836 529 
Q 422 1150 422 2328 
Q 422 3509 836 4129 
Q 1250 4750 2034 4750 
z
" transform="scale(0.015625)"/>
        <path id="DejaVuSans-32" d="M 1228 531 
L 3431 531 
L 3431 0 
L 469 0 
L 469 531 
Q 828 903 1448 1529 
Q 2069 2156 2228 2338 
Q 2531 2678 2651 2914 
Q 2772 3150 2772 3378 
Q 2772 3750 2511 3984 
Q 2250 4219 1831 4219 
Q 1534 4219 1204 4116 
Q 875 4013 500 3803 
L 500 4441 
Q 881 4594 1212 4672 
Q 1544 4750 1819 4750 
Q 2544 4750 2975 4387 
Q 3406 4025 3406 3419 
Q 3406 3131 3298 2873 
Q 3191 2616 2906 2266 
Q 2828 2175 2409 1742 
Q 1991 1309 1228 531 
z
" transform="scale(0.015625)"/>
       </defs>
       <use xlink:href="#DejaVuSans-31" transform="translate(0 0.765625)"/>
       <use xlink:href="#DejaVuSans-30" transform="translate(63.623047 0.765625)"/>
       <use xlink:href="#DejaVuSans-32" transform="translate(128.203125 39.046875) scale(0.7)"/>
      </g>
     </g>
    </g>
    <g id="xtick_2">
     <g id="line2d_3">
      <path d="M 393.644305 315.359375 
L 393.644305 41.759375 
" clip-path="url(#p37456f252e)" style="fill: none; stroke: #d0d5dd; stroke-linecap: square"/>
     </g>
     <g id="line2d_4">
      <g>
       <use xlink:href="#m04b3bd57de" x="393.644305" y="315.359375" style="fill: #6b7380; stroke: #6b7380"/>
      </g>
     </g>
     <g id="text_2">
      <!-- $\mathdefault{10^{3}}$ -->
      <g style="fill: #6b7380" transform="translate(384.844305 332.457812) scale(0.1 -0.1)">
       <defs>
        <path id="DejaVuSans-33" d="M 2597 2516 
Q 3050 2419 3304 2112 
Q 3559 1806 3559 1356 
Q 3559 666 3084 287 
Q 2609 -91 1734 -91 
Q 1441 -91 1130 -33 
Q 819 25 488 141 
L 488 750 
Q 750 597 1062 519 
Q 1375 441 1716 441 
Q 2309 441 2620 675 
Q 2931 909 2931 1356 
Q 2931 1769 2642 2001 
Q 2353 2234 1838 2234 
L 1294 2234 
L 1294 2753 
L 1863 2753 
Q 2328 2753 2575 2939 
Q 2822 3125 2822 3475 
Q 2822 3834 2567 4026 
Q 2313 4219 1838 4219 
Q 1578 4219 1281 4162 
Q 984 4106 628 3988 
L 628 4550 
Q 988 4650 1302 4700 
Q 1616 4750 1894 4750 
Q 2613 4750 3031 4423 
Q 3450 4097 3450 3541 
Q 3450 3153 3228 2886 
Q 3006 2619 2597 2516 
z
" transform="scale(0.015625)"/>
       </defs>
       <use xlink:href="#DejaVuSans-31" transform="translate(0 0.765625)"/>
       <use xlink:href="#DejaVuSans-30" transform="translate(63.623047 0.765625)"/>
       <use xlink:href="#DejaVuSans-33" transform="translate(128.203125 39.046875) scale(0.7)"/>
      </g>
     </g>
    </g>
    <g id="xtick_3">
     <g id="line2d_5">
      <defs>
       <path id="mc812c40aa4" d="M 0 0 
L 0 2 
" style="stroke: #000000; stroke-width: 0.6"/>
      </defs>
      <g>
       <use xlink:href="#mc812c40aa4" x="57.962262" y="315.359375" style="stroke: #000000; stroke-width: 0.6"/>
      </g>
     </g>
    </g>
    <g id="xtick_4">
     <g id="line2d_6">
      <g>
       <use xlink:href="#mc812c40aa4" x="81.232896" y="315.359375" style="stroke: #000000; stroke-width: 0.6"/>
      </g>
     </g>
    </g>
    <g id="xtick_5">
     <g id="line2d_7">
      <g>
       <use xlink:href="#mc812c40aa4" x="100.246389" y="315.359375" style="stroke: #000000; stroke-width: 0.6"/>
      </g>
     </g>
    </g>
    <g id="xtick_6">
     <g id="line2d_8">
      <g>
       <use xlink:href="#mc812c40aa4" x="116.322069" y="315.359375" style="stroke: #000000; stroke-width: 0.6"/>
      </g>
     </g>
    </g>
    <g id="xtick_7">
     <g id="line2d_9">
      <g>
       <use xlink:href="#mc812c40aa4" x="130.247455" y="315.359375" style="stroke: #000000; stroke-width: 0.6"/>
      </g>
     </g>
    </g>
    <g id="xtick_8">
     <g id="line2d_10">
      <g>
       <use xlink:href="#mc812c40aa4" x="142.530517" y="315.359375" style="stroke: #000000; stroke-width: 0.6"/>
      </g>
     </g>
    </g>
    <g id="xtick_9">
     <g id="line2d_11">
      <g>
       <use xlink:href="#mc812c40aa4" x="225.803283" y="315.359375" style="stroke: #000000; stroke-width: 0.6"/>
      </g>
     </g>
    </g>
    <g id="xtick_10">
     <g id="line2d_12">
      <g>
       <use xlink:href="#mc812c40aa4" x="268.087411" y="315.359375" style="stroke: #000000; stroke-width: 0.6"/>
      </g>
     </g>
    </g>
    <g id="xtick_11">
     <g id="line2d_13">
      <g>
       <use xlink:href="#mc812c40aa4" x="298.088477" y="315.359375" style="stroke: #000000; stroke-width: 0.6"/>
      </g>
     </g>
    </g>
    <g id="xtick_12">
     <g id="line2d_14">
      <g>
       <use xlink:href="#mc812c40aa4" x="321.359112" y="315.359375" style="stroke: #000000; stroke-width: 0.6"/>
      </g>
     </g>
    </g>
    <g id="xtick_13">
     <g id="line2d_15">
      <g>
       <use xlink:href="#mc812c40aa4" x="340.372604" y="315.359375" style="stroke: #000000; stroke-width: 0.6"/>
      </g>
     </g>
    </g>
    <g id="xtick_14">
     <g id="line2d_16">
      <g>
       <use xlink:href="#mc812c40aa4" x="356.448284" y="315.359375" style="stroke: #000000; stroke-width: 0.6"/>
      </g>
     </g>
    </g>
    <g id="xtick_15">
     <g id="line2d_17">
      <g>
       <use xlink:href="#mc812c40aa4" x="370.37367" y="315.359375" style="stroke: #000000; stroke-width: 0.6"/>
      </g>
     </g>
    </g>
    <g id="xtick_16">
     <g id="line2d_18">
      <g>
       <use xlink:href="#mc812c40aa4" x="382.656732" y="315.359375" style="stroke: #000000; stroke-width: 0.6"/>
      </g>
     </g>
    </g>
    <g id="xtick_17">
     <g id="line2d_19">
      <g>
       <use xlink:href="#mc812c40aa4" x="465.929499" y="315.359375" style="stroke: #000000; stroke-width: 0.6"/>
      </g>
     </g>
    </g>
    <g id="xtick_18">
     <g id="line2d_20">
      <g>
       <use xlink:href="#mc812c40aa4" x="508.213626" y="315.359375" style="stroke: #000000; stroke-width: 0.6"/>
      </g>
     </g>
    </g>
    <g id="text_3">
     <!-- Radius [kpc] -->
     <g style="fill: #586172" transform="translate(252.94375 353.126875) scale(0.12 -0.12)">
      <defs>
       <path id="ArialMT-52" d="M 503 0 
L 503 4581 
L 2534 4581 
Q 3147 4581 3465 4457 
Q 3784 4334 3975 4021 
Q 4166 3709 4166 3331 
Q 4166 2844 3850 2509 
Q 3534 2175 2875 2084 
Q 3116 1969 3241 1856 
Q 3506 1613 3744 1247 
L 4541 0 
L 3778 0 
L 3172 953 
Q 2906 1366 2734 1584 
Q 2563 1803 2427 1890 
Q 2291 1978 2150 2013 
Q 2047 2034 1813 2034 
L 1109 2034 
L 1109 0 
L 503 0 
z
M 1109 2559 
L 2413 2559 
Q 2828 2559 3062 2645 
Q 3297 2731 3419 2920 
Q 3541 3109 3541 3331 
Q 3541 3656 3305 3865 
Q 3069 4075 2559 4075 
L 1109 4075 
L 1109 2559 
z
" transform="scale(0.015625)"/>
       <path id="ArialMT-61" d="M 2588 409 
Q 2275 144 1986 34 
Q 1697 -75 1366 -75 
Q 819 -75 525 192 
Q 231 459 231 875 
Q 231 1119 342 1320 
Q 453 1522 633 1644 
Q 813 1766 1038 1828 
Q 1203 1872 1538 1913 
Q 2219 1994 2541 2106 
Q 2544 2222 2544 2253 
Q 2544 2597 2384 2738 
Q 2169 2928 1744 2928 
Q 1347 2928 1158 2789 
Q 969 2650 878 2297 
L 328 2372 
Q 403 2725 575 2942 
Q 747 3159 1072 3276 
Q 1397 3394 1825 3394 
Q 2250 3394 2515 3294 
Q 2781 3194 2906 3042 
Q 3031 2891 3081 2659 
Q 3109 2516 3109 2141 
L 3109 1391 
Q 3109 606 3145 398 
Q 3181 191 3288 0 
L 2700 0 
Q 2613 175 2588 409 
z
M 2541 1666 
Q 2234 1541 1622 1453 
Q 1275 1403 1131 1340 
Q 988 1278 909 1158 
Q 831 1038 831 891 
Q 831 666 1001 516 
Q 1172 366 1500 366 
Q 1825 366 2078 508 
Q 2331 650 2450 897 
Q 2541 1088 2541 1459 
L 2541 1666 
z
" transform="scale(0.015625)"/>
       <path id="ArialMT-64" d="M 2575 0 
L 2575 419 
Q 2259 -75 1647 -75 
Q 1250 -75 917 144 
Q 584 363 401 755 
Q 219 1147 219 1656 
Q 219 2153 384 2558 
Q 550 2963 881 3178 
Q 1213 3394 1622 3394 
Q 1922 3394 2156 3267 
Q 2391 3141 2538 2938 
L 2538 4581 
L 3097 4581 
L 3097 0 
L 2575 0 
z
M 797 1656 
Q 797 1019 1065 703 
Q 1334 388 1700 388 
Q 2069 388 2326 689 
Q 2584 991 2584 1609 
Q 2584 2291 2321 2609 
Q 2059 2928 1675 2928 
Q 1300 2928 1048 2622 
Q 797 2316 797 1656 
z
" transform="scale(0.015625)"/>
       <path id="ArialMT-69" d="M 425 3934 
L 425 4581 
L 988 4581 
L 988 3934 
L 425 3934 
z
M 425 0 
L 425 3319 
L 988 3319 
L 988 0 
L 425 0 
z
" transform="scale(0.015625)"/>
       <path id="ArialMT-75" d="M 2597 0 
L 2597 488 
Q 2209 -75 1544 -75 
Q 1250 -75 995 37 
Q 741 150 617 320 
Q 494 491 444 738 
Q 409 903 409 1263 
L 409 3319 
L 972 3319 
L 972 1478 
Q 972 1038 1006 884 
Q 1059 663 1231 536 
Q 1403 409 1656 409 
Q 1909 409 2131 539 
Q 2353 669 2445 892 
Q 2538 1116 2538 1541 
L 2538 3319 
L 3100 3319 
L 3100 0 
L 2597 0 
z
" transform="scale(0.015625)"/>
       <path id="ArialMT-73" d="M 197 991 
L 753 1078 
Q 800 744 1014 566 
Q 1228 388 1613 388 
Q 2000 388 2187 545 
Q 2375 703 2375 916 
Q 2375 1106 2209 1216 
Q 2094 1291 1634 1406 
Q 1016 1563 777 1677 
Q 538 1791 414 1992 
Q 291 2194 291 2438 
Q 291 2659 392 2848 
Q 494 3038 669 3163 
Q 800 3259 1026 3326 
Q 1253 3394 1513 3394 
Q 1903 3394 2198 3281 
Q 2494 3169 2634 2976 
Q 2775 2784 2828 2463 
L 2278 2388 
Q 2241 2644 2061 2787 
Q 1881 2931 1553 2931 
Q 1166 2931 1000 2803 
Q 834 2675 834 2503 
Q 834 2394 903 2306 
Q 972 2216 1119 2156 
Q 1203 2125 1616 2013 
Q 2213 1853 2448 1751 
Q 2684 1650 2818 1456 
Q 2953 1263 2953 975 
Q 2953 694 2789 445 
Q 2625 197 2315 61 
Q 2006 -75 1616 -75 
Q 969 -75 630 194 
Q 291 463 197 991 
z
" transform="scale(0.015625)"/>
       <path id="ArialMT-20" transform="scale(0.015625)"/>
       <path id="ArialMT-5b" d="M 434 -1272 
L 434 4581 
L 1675 4581 
L 1675 4116 
L 997 4116 
L 997 -806 
L 1675 -806 
L 1675 -1272 
L 434 -1272 
z
" transform="scale(0.015625)"/>
       <path id="ArialMT-6b" d="M 425 0 
L 425 4581 
L 988 4581 
L 988 1969 
L 2319 3319 
L 3047 3319 
L 1778 2088 
L 3175 0 
L 2481 0 
L 1384 1697 
L 988 1316 
L 988 0 
L 425 0 
z
" transform="scale(0.015625)"/>
       <path id="ArialMT-70" d="M 422 -1272 
L 422 3319 
L 934 3319 
L 934 2888 
Q 1116 3141 1344 3267 
Q 1572 3394 1897 3394 
Q 2322 3394 2647 3175 
Q 2972 2956 3137 2557 
Q 3303 2159 3303 1684 
Q 3303 1175 3120 767 
Q 2938 359 2589 142 
Q 2241 -75 1856 -75 
Q 1575 -75 1351 44 
Q 1128 163 984 344 
L 984 -1272 
L 422 -1272 
z
M 931 1641 
Q 931 1000 1190 694 
Q 1450 388 1819 388 
Q 2194 388 2461 705 
Q 2728 1022 2728 1688 
Q 2728 2322 2467 2637 
Q 2206 2953 1844 2953 
Q 1484 2953 1207 2617 
Q 931 2281 931 1641 
z
" transform="scale(0.015625)"/>
       <path id="ArialMT-63" d="M 2588 1216 
L 3141 1144 
Q 3050 572 2676 248 
Q 2303 -75 1759 -75 
Q 1078 -75 664 370 
Q 250 816 250 1647 
Q 250 2184 428 2587 
Q 606 2991 970 3192 
Q 1334 3394 1763 3394 
Q 2303 3394 2647 3120 
Q 2991 2847 3088 2344 
L 2541 2259 
Q 2463 2594 2264 2762 
Q 2066 2931 1784 2931 
Q 1359 2931 1093 2626 
Q 828 2322 828 1663 
Q 828 994 1084 691 
Q 1341 388 1753 388 
Q 2084 388 2306 591 
Q 2528 794 2588 1216 
z
" transform="scale(0.015625)"/>
       <path id="ArialMT-5d" d="M 1363 -1272 
L 122 -1272 
L 122 -806 
L 800 -806 
L 800 4116 
L 122 4116 
L 122 4581 
L 1363 4581 
L 1363 -1272 
z
" transform="scale(0.015625)"/>
      </defs>
      <use xlink:href="#ArialMT-52"/>
      <use xlink:href="#ArialMT-61" transform="translate(72.216797 0)"/>
      <use xlink:href="#ArialMT-64" transform="translate(127.832031 0)"/>
      <use xlink:href="#ArialMT-69" transform="translate(183.447266 0)"/>
      <use xlink:href="#ArialMT-75" transform="translate(205.664062 0)"/>
      <use xlink:href="#ArialMT-73" transform="translate(261.279297 0)"/>
      <use xlink:href="#ArialMT-20" transform="translate(311.279297 0)"/>
      <use xlink:href="#ArialMT-5b" transform="translate(339.0625 0)"/>
      <use xlink:href="#ArialMT-6b" transform="translate(366.845703 0)"/>
      <use xlink:href="#ArialMT-70" transform="translate(416.845703 0)"/>
      <use xlink:href="#ArialMT-63" transform="translate(472.460938 0)"/>
      <use xlink:href="#ArialMT-5d" transform="translate(522.460938 0)"/>
     </g>
    </g>
   </g>
   <g id="matplotlib.axis_2">
    <g id="ytick_1">
     <g id="line2d_21">
      <path d="M 44.036875 315.359375 
L 527.876875 315.359375 
" clip-path="url(#p37456f252e)" style="fill: none; stroke: #d0d5dd; stroke-linecap: square"/>
     </g>
     <g id="line2d_22">
      <defs>
       <path id="m5be09cecfb" d="M 0 0 
L -6 0 
" style="stroke: #6b7380"/>
      </defs>
      <g>
       <use xlink:href="#m5be09cecfb" x="44.036875" y="315.359375" style="fill: #6b7380; stroke: #6b7380"/>
      </g>
     </g>
     <g id="text_4">
      <!-- 0 -->
      <g style="fill: #6b7380" transform="translate(28.174375 319.158594) scale(0.1 -0.1)">
       <use xlink:href="#DejaVuSans-30"/>
      </g>
     </g>
    </g>
    <g id="ytick_2">
     <g id="line2d_23">
      <path d="M 44.036875 254.775709 
L 527.876875 254.775709 
" clip-path="url(#p37456f252e)" style="fill: none; stroke: #d0d5dd; stroke-linecap: square"/>
     </g>
     <g id="line2d_24">
      <g>
       <use xlink:href="#m5be09cecfb" x="44.036875" y="254.775709" style="fill: #6b7380; stroke: #6b7380"/>
      </g>
     </g>
     <g id="text_5">
      <!-- 2 -->
      <g style="fill: #6b7380" transform="translate(28.174375 258.574928) scale(0.1 -0.1)">
       <use xlink:href="#DejaVuSans-32"/>
      </g>
     </g>
    </g>
    <g id="ytick_3">
     <g id="line2d_25">
      <path d="M 44.036875 194.192044 
L 527.876875 194.192044 
" clip-path="url(#p37456f252e)" style="fill: none; stroke: #d0d5dd; stroke-linecap: square"/>
     </g>
     <g id="line2d_26">
      <g>
       <use xlink:href="#m5be09cecfb" x="44.036875" y="194.192044" style="fill: #6b7380; stroke: #6b7380"/>
      </g>
     </g>
     <g id="text_6">
      <!-- 4 -->
      <g style="fill: #6b7380" transform="translate(28.174375 197.991263) scale(0.1 -0.1)">
       <defs>
        <path id="DejaVuSans-34" d="M 2419 4116 
L 825 1625 
L 2419 1625 
L 2419 4116 
z
M 2253 4666 
L 3047 4666 
L 3047 1625 
L 3713 1625 
L 3713 1100 
L 3047 1100 
L 3047 0 
L 2419 0 
L 2419 1100 
L 313 1100 
L 313 1709 
L 2253 4666 
z
" transform="scale(0.015625)"/>
       </defs>
       <use xlink:href="#DejaVuSans-34"/>
      </g>
     </g>
    </g>
    <g id="ytick_4">
     <g id="line2d_27">
      <path d="M 44.036875 133.608378 
L 527.876875 133.608378 
" clip-path="url(#p37456f252e)" style="fill: none; stroke: #d0d5dd; stroke-linecap: square"/>
     </g>
     <g id="line2d_28">
      <g>
       <use xlink:href="#m5be09cecfb" x="44.036875" y="133.608378" style="fill: #6b7380; stroke: #6b7380"/>
      </g>
     </g>
     <g id="text_7">
      <!-- 6 -->
      <g style="fill: #6b7380" transform="translate(28.174375 137.407597) scale(0.1 -0.1)">
       <defs>
        <path id="DejaVuSans-36" d="M 2113 2584 
Q 1688 2584 1439 2293 
Q 1191 2003 1191 1497 
Q 1191 994 1439 701 
Q 1688 409 2113 409 
Q 2538 409 2786 701 
Q 3034 994 3034 1497 
Q 3034 2003 2786 2293 
Q 2538 2584 2113 2584 
z
M 3366 4563 
L 3366 3988 
Q 3128 4100 2886 4159 
Q 2644 4219 2406 4219 
Q 1781 4219 1451 3797 
Q 1122 3375 1075 2522 
Q 1259 2794 1537 2939 
Q 1816 3084 2150 3084 
Q 2853 3084 3261 2657 
Q 3669 2231 3669 1497 
Q 3669 778 3244 343 
Q 2819 -91 2113 -91 
Q 1303 -91 875 529 
Q 447 1150 447 2328 
Q 447 3434 972 4092 
Q 1497 4750 2381 4750 
Q 2619 4750 2861 4703 
Q 3103 4656 3366 4563 
z
" transform="scale(0.015625)"/>
       </defs>
       <use xlink:href="#DejaVuSans-36"/>
      </g>
     </g>
    </g>
    <g id="ytick_5">
     <g id="line2d_29">
      <path d="M 44.036875 73.024713 
L 527.876875 73.024713 
" clip-path="url(#p37456f252e)" style="fill: none; stroke: #d0d5dd; stroke-linecap: square"/>
     </g>
     <g id="line2d_30">
      <g>
       <use xlink:href="#m5be09cecfb" x="44.036875" y="73.024713" style="fill: #6b7380; stroke: #6b7380"/>
      </g>
     </g>
     <g id="text_8">
      <!-- 8 -->
      <g style="fill: #6b7380" transform="translate(28.174375 76.823932) scale(0.1 -0.1)">
       <defs>
        <path id="DejaVuSans-38" d="M 2034 2216 
Q 1584 2216 1326 1975 
Q 1069 1734 1069 1313 
Q 1069 891 1326 650 
Q 1584 409 2034 409 
Q 2484 409 2743 651 
Q 3003 894 3003 1313 
Q 3003 1734 2745 1975 
Q 2488 2216 2034 2216 
z
M 1403 2484 
Q 997 2584 770 2862 
Q 544 3141 544 3541 
Q 544 4100 942 4425 
Q 1341 4750 2034 4750 
Q 2731 4750 3128 4425 
Q 3525 4100 3525 3541 
Q 3525 3141 3298 2862 
Q 3072 2584 2669 2484 
Q 3125 2378 3379 2068 
Q 3634 1759 3634 1313 
Q 3634 634 3220 271 
Q 2806 -91 2034 -91 
Q 1263 -91 848 271 
Q 434 634 434 1313 
Q 434 1759 690 2068 
Q 947 2378 1403 2484 
z
M 1172 3481 
Q 1172 3119 1398 2916 
Q 1625 2713 2034 2713 
Q 2441 2713 2670 2916 
Q 2900 3119 2900 3481 
Q 2900 3844 2670 4047 
Q 2441 4250 2034 4250 
Q 1625 4250 1398 4047 
Q 1172 3844 1172 3481 
z
" transform="scale(0.015625)"/>
       </defs>
       <use xlink:href="#DejaVuSans-38"/>
      </g>
     </g>
    </g>
    <g id="text_9">
     <!-- Temperature [keV] -->
     <g style="fill: #586172" transform="translate(15.789375 227.575625) rotate(-90) scale(0.12 -0.12)">
      <defs>
       <path id="ArialMT-54" d="M 1659 0 
L 1659 4041 
L 150 4041 
L 150 4581 
L 3781 4581 
L 3781 4041 
L 2266 4041 
L 2266 0 
L 1659 0 
z
" transform="scale(0.015625)"/>
       <path id="ArialMT-65" d="M 2694 1069 
L 3275 997 
Q 3138 488 2766 206 
Q 2394 -75 1816 -75 
Q 1088 -75 661 373 
Q 234 822 234 1631 
Q 234 2469 665 2931 
Q 1097 3394 1784 3394 
Q 2450 3394 2872 2941 
Q 3294 2488 3294 1666 
Q 3294 1616 3291 1516 
L 816 1516 
Q 847 969 1125 678 
Q 1403 388 1819 388 
Q 2128 388 2347 550 
Q 2566 713 2694 1069 
z
M 847 1978 
L 2700 1978 
Q 2663 2397 2488 2606 
Q 2219 2931 1791 2931 
Q 1403 2931 1139 2672 
Q 875 2413 847 1978 
z
" transform="scale(0.015625)"/>
       <path id="ArialMT-6d" d="M 422 0 
L 422 3319 
L 925 3319 
L 925 2853 
Q 1081 3097 1340 3245 
Q 1600 3394 1931 3394 
Q 2300 3394 2536 3241 
Q 2772 3088 2869 2813 
Q 3263 3394 3894 3394 
Q 4388 3394 4653 3120 
Q 4919 2847 4919 2278 
L 4919 0 
L 4359 0 
L 4359 2091 
Q 4359 2428 4304 2576 
Q 4250 2725 4106 2815 
Q 3963 2906 3769 2906 
Q 3419 2906 3187 2673 
Q 2956 2441 2956 1928 
L 2956 0 
L 2394 0 
L 2394 2156 
Q 2394 2531 2256 2718 
Q 2119 2906 1806 2906 
Q 1569 2906 1367 2781 
Q 1166 2656 1075 2415 
Q 984 2175 984 1722 
L 984 0 
L 422 0 
z
" transform="scale(0.015625)"/>
       <path id="ArialMT-72" d="M 416 0 
L 416 3319 
L 922 3319 
L 922 2816 
Q 1116 3169 1280 3281 
Q 1444 3394 1641 3394 
Q 1925 3394 2219 3213 
L 2025 2691 
Q 1819 2813 1613 2813 
Q 1428 2813 1281 2702 
Q 1134 2591 1072 2394 
Q 978 2094 978 1738 
L 978 0 
L 416 0 
z
" transform="scale(0.015625)"/>
       <path id="ArialMT-74" d="M 1650 503 
L 1731 6 
Q 1494 -44 1306 -44 
Q 1000 -44 831 53 
Q 663 150 594 308 
Q 525 466 525 972 
L 525 2881 
L 113 2881 
L 113 3319 
L 525 3319 
L 525 4141 
L 1084 4478 
L 1084 3319 
L 1650 3319 
L 1650 2881 
L 1084 2881 
L 1084 941 
Q 1084 700 1114 631 
Q 1144 563 1211 522 
Q 1278 481 1403 481 
Q 1497 481 1650 503 
z
" transform="scale(0.015625)"/>
       <path id="ArialMT-56" d="M 1803 0 
L 28 4581 
L 684 4581 
L 1875 1253 
Q 2019 853 2116 503 
Q 2222 878 2363 1253 
L 3600 4581 
L 4219 4581 
L 2425 0 
L 1803 0 
z
" transform="scale(0.015625)"/>
      </defs>
      <use xlink:href="#ArialMT-54"/>
      <use xlink:href="#ArialMT-65" transform="translate(49.958984 0)"/>
      <use xlink:href="#ArialMT-6d" transform="translate(105.574219 0)"/>
      <use xlink:href="#ArialMT-70" transform="translate(188.875 0)"/>
      <use xlink:href="#ArialMT-65" transform="translate(244.490234 0)"/>
      <use xlink:href="#ArialMT-72" transform="translate(300.105469 0)"/>
      <use xlink:href="#ArialMT-61" transform="translate(333.40625 0)"/>
      <use xlink:href="#ArialMT-74" transform="translate(389.021484 0)"/>
      <use xlink:href="#ArialMT-75" transform="translate(416.804688 0)"/>
      <use xlink:href="#ArialMT-72" transform="translate(472.419922 0)"/>
      <use xlink:href="#ArialMT-65" transform="translate(505.720703 0)"/>
      <use xlink:href="#ArialMT-20" transform="translate(561.335938 0)"/>
      <use xlink:href="#ArialMT-5b" transform="translate(589.119141 0)"/>
      <use xlink:href="#ArialMT-6b" transform="translate(616.902344 0)"/>
      <use xlink:href="#ArialMT-65" transform="translate(666.902344 0)"/>
      <use xlink:href="#ArialMT-56" transform="translate(722.517578 0)"/>
      <use xlink:href="#ArialMT-5d" transform="translate(789.216797 0)"/>
     </g>
    </g>
   </g>
   <g id="line2d_31">
    <path d="M 81.232896 129.028522 
L 85.509395 129.372156 
L 89.785893 129.743552 
L 94.062392 130.144808 
L 98.33889 130.578158 
L 102.615388 131.045973 
L 106.891887 131.550768 
L 111.168385 132.0952 
L 115.444884 132.682076 
L 119.721382 133.314348 
L 123.997881 133.995115 
L 128.274379 134.727618 
L 132.550877 135.515236 
L 136.827376 136.361478 
L 141.103874 137.269975 
L 145.380373 138.244459 
L 149.656871 139.288755 
L 153.93337 140.406752 
L 158.209868 141.602382 
L 162.486366 142.879587 
L 166.762865 144.242283 
L 171.039363 145.694323 
L 175.315862 147.239449 
L 179.59236 148.88124 
L 183.868859 150.623059 
L 188.145357 152.467989 
L 192.421855 154.418774 
L 196.698354 156.477747 
L 200.974852 158.646759 
L 205.251351 160.927117 
L 209.527849 163.319506 
L 213.804348 165.823925 
L 218.080846 168.439628 
L 222.357344 171.165065 
L 226.633843 173.99784 
L 230.910341 176.934671 
L 235.18684 179.971373 
L 239.463338 183.102851 
L 243.739836 186.323109 
L 248.016335 189.625276 
L 252.292833 193.001659 
L 256.569332 196.4438 
L 260.84583 199.942559 
L 265.122329 203.488212 
L 269.398827 207.070562 
L 273.675325 210.679056 
L 277.951824 214.30292 
L 282.228322 217.931287 
L 286.504821 221.553334 
L 290.781319 225.158412 
L 295.057818 228.736172 
L 299.334316 232.276681 
L 303.610814 235.770527 
L 307.887313 239.208905 
L 312.163811 242.583698 
L 316.44031 245.887531 
L 320.716808 249.113815 
L 324.993307 252.256773 
L 329.269805 255.31145 
L 333.546303 258.273707 
L 337.822802 261.140209 
L 342.0993 263.908393 
L 346.375799 266.576433 
L 350.652297 269.143196 
L 354.928796 271.608189 
L 359.205294 273.971508 
L 363.481792 276.233784 
L 367.758291 278.396118 
L 372.034789 280.460032 
L 376.311288 282.427412 
L 380.587786 284.30045 
L 384.864284 286.081599 
L 389.140783 287.773523 
L 393.417281 289.379054 
L 397.69378 290.901153 
L 401.970278 292.342872 
L 406.246777 293.70732 
L 410.523275 294.997642 
L 414.799773 296.216983 
L 419.076272 297.368477 
L 423.35277 298.455221 
L 427.629269 299.48026 
L 431.905767 300.446579 
L 436.182266 301.357086 
L 440.458764 302.214607 
L 444.735262 303.021879 
L 449.011761 303.781543 
L 453.288259 304.496145 
L 457.564758 305.168127 
L 461.841256 305.799832 
L 466.117755 306.3935 
L 470.394253 306.951271 
L 474.670751 307.475184 
L 478.94725 307.967182 
L 483.223748 308.429109 
L 487.500247 308.862717 
L 491.776745 309.26967 
L 496.053244 309.651541 
L 500.329742 310.009821 
L 504.60624 310.345918 
" clip-path="url(#p37456f252e)" style="fill: none; stroke: #ff6b6b; stroke-opacity: 0.6; stroke-width: 2.5; stroke-linecap: square"/>
   </g>
   <g id="patch_3">
    <path d="M 44.036875 315.359375 
L 44.036875 41.759375 
" style="fill: none; stroke: #d0d5dd; stroke-linejoin: miter; stroke-linecap: square"/>
   </g>
   <g id="patch_4">
    <path d="M 527.876875 315.359375 
L 527.876875 41.759375 
" style="fill: none; stroke: #d0d5dd; stroke-linejoin: miter; stroke-linecap: square"/>
   </g>
   <g id="patch_5">
    <path d="M 44.036875 315.359375 
L 527.876875 315.359375 
" style="fill: none; stroke: #d0d5dd; stroke-linejoin: miter; stroke-linecap: square"/>
   </g>
   <g id="patch_6">
    <path d="M 44.036875 41.759375 
L 527.876875 41.759375 
" style="fill: none; stroke: #d0d5dd; stroke-linejoin: miter; stroke-linecap: square"/>
   </g>
   <g id="LineCollection_1">
    <path d="M 81.232896 137.832089 
L 81.232896 91.917897 
" clip-path="url(#p37456f252e)" style="fill: none; stroke: #ff6b6b; stroke-width: 1.5"/>
    <path d="M 117.992883 122.969 
L 117.992883 77.446332 
" clip-path="url(#p37456f252e)" style="fill: none; stroke: #ff6b6b; stroke-width: 1.5"/>
    <path d="M 154.752869 137.383062 
L 154.752869 92.467445 
" clip-path="url(#p37456f252e)" style="fill: none; stroke: #ff6b6b; stroke-width: 1.5"/>
    <path d="M 191.512856 141.540125 
L 191.512856 97.521228 
" clip-path="url(#p37456f252e)" style="fill: none; stroke: #ff6b6b; stroke-width: 1.5"/>
    <path d="M 228.272842 159.453493 
L 228.272842 116.676493 
" clip-path="url(#p37456f252e)" style="fill: none; stroke: #ff6b6b; stroke-width: 1.5"/>
    <path d="M 265.032829 155.331525 
L 265.032829 114.146585 
" clip-path="url(#p37456f252e)" style="fill: none; stroke: #ff6b6b; stroke-width: 1.5"/>
    <path d="M 301.792815 175.41058 
L 301.792815 136.106135 
" clip-path="url(#p37456f252e)" style="fill: none; stroke: #ff6b6b; stroke-width: 1.5"/>
    <path d="M 338.552802 179.055007 
L 338.552802 141.808627 
" clip-path="url(#p37456f252e)" style="fill: none; stroke: #ff6b6b; stroke-width: 1.5"/>
    <path d="M 375.312788 188.318433 
L 375.312788 153.187086 
" clip-path="url(#p37456f252e)" style="fill: none; stroke: #ff6b6b; stroke-width: 1.5"/>
    <path d="M 412.072775 200.471762 
L 412.072775 167.414532 
" clip-path="url(#p37456f252e)" style="fill: none; stroke: #ff6b6b; stroke-width: 1.5"/>
    <path d="M 448.832761 202.937681 
L 448.832761 171.849965 
" clip-path="url(#p37456f252e)" style="fill: none; stroke: #ff6b6b; stroke-width: 1.5"/>
    <path d="M 485.592747 226.196558 
L 485.592747 196.940263 
" clip-path="url(#p37456f252e)" style="fill: none; stroke: #ff6b6b; stroke-width: 1.5"/>
   </g>
   <g id="line2d_32">
    <defs>
     <path id="m6f5bcde870" d="M 4 0 
L -4 -0 
"/>
    </defs>
    <g clip-path="url(#p37456f252e)">
     <use xlink:href="#m6f5bcde870" x="81.232896" y="137.832089" style="fill: #ff6b6b"/>
     <use xlink:href="#m6f5bcde870" x="117.992883" y="122.969" style="fill: #ff6b6b"/>
     <use xlink:href="#m6f5bcde870" x="154.752869" y="137.383062" style="fill: #ff6b6b"/>
     <use xlink:href="#m6f5bcde870" x="191.512856" y="141.540125" style="fill: #ff6b6b"/>
     <use xlink:href="#m6f5bcde870" x="228.272842" y="159.453493" style="fill: #ff6b6b"/>
     <use xlink:href="#m6f5bcde870" x="265.032829" y="155.331525" style="fill: #ff6b6b"/>
     <use xlink:href="#m6f5bcde870" x="301.792815" y="175.41058" style="fill: #ff6b6b"/>
     <use xlink:href="#m6f5bcde870" x="338.552802" y="179.055007" style="fill: #ff6b6b"/>
     <use xlink:href="#m6f5bcde870" x="375.312788" y="188.318433" style="fill: #ff6b6b"/>
     <use xlink:href="#m6f5bcde870" x="412.072775" y="200.471762" style="fill: #ff6b6b"/>
     <use xlink:href="#m6f5bcde870" x="448.832761" y="202.937681" style="fill: #ff6b6b"/>
     <use xlink:href="#m6f5bcde870" x="485.592747" y="226.196558" style="fill: #ff6b6b"/>
    </g>
   </g>
   <g id="line2d_33">
    <g clip-path="url(#p37456f252e)">
     <use xlink:href="#m6f5bcde870" x="81.232896" y="91.917897" style="fill: #ff6b6b"/>
     <use xlink:href="#m6f5bcde870" x="117.992883" y="77.446332" style="fill: #ff6b6b"/>
     <use xlink:href="#m6f5bcde870" x="154.752869" y="92.467445" style="fill: #ff6b6b"/>
     <use xlink:href="#m6f5bcde870" x="191.512856" y="97.521228" style="fill: #ff6b6b"/>
     <use xlink:href="#m6f5bcde870" x="228.272842" y="116.676493" style="fill: #ff6b6b"/>
     <use xlink:href="#m6f5bcde870" x="265.032829" y="114.146585" style="fill: #ff6b6b"/>
     <use xlink:href="#m6f5bcde870" x="301.792815" y="136.106135" style="fill: #ff6b6b"/>
     <use xlink:href="#m6f5bcde870" x="338.552802" y="141.808627" style="fill: #ff6b6b"/>
     <use xlink:href="#m6f5bcde870" x="375.312788" y="153.187086" style="fill: #ff6b6b"/>
     <use xlink:href="#m6f5bcde870" x="412.072775" y="167.414532" style="fill: #ff6b6b"/>
     <use xlink:href="#m6f5bcde870" x="448.832761" y="171.849965" style="fill: #ff6b6b"/>
     <use xlink:href="#m6f5bcde870" x="485.592747" y="196.940263" style="fill: #ff6b6b"/>
    </g>
   </g>
   <g id="text_10">
    <!-- Merging | z = 0.0748 | M_500 = 6.20e+14 Msun | R_500 = 1610 kpc -->
    <g style="fill: #5a6470" transform="translate(135.857656 25.974687) scale(0.1 -0.1)">
     <defs>
      <path id="ArialMT-4d" d="M 475 0 
L 475 4581 
L 1388 4581 
L 2472 1338 
Q 2622 884 2691 659 
Q 2769 909 2934 1394 
L 4031 4581 
L 4847 4581 
L 4847 0 
L 4263 0 
L 4263 3834 
L 2931 0 
L 2384 0 
L 1059 3900 
L 1059 0 
L 475 0 
z
" transform="scale(0.015625)"/>
      <path id="ArialMT-67" d="M 319 -275 
L 866 -356 
Q 900 -609 1056 -725 
Q 1266 -881 1628 -881 
Q 2019 -881 2231 -725 
Q 2444 -569 2519 -288 
Q 2563 -116 2559 434 
Q 2191 0 1641 0 
Q 956 0 581 494 
Q 206 988 206 1678 
Q 206 2153 378 2554 
Q 550 2956 876 3175 
Q 1203 3394 1644 3394 
Q 2231 3394 2613 2919 
L 2613 3319 
L 3131 3319 
L 3131 450 
Q 3131 -325 2973 -648 
Q 2816 -972 2473 -1159 
Q 2131 -1347 1631 -1347 
Q 1038 -1347 672 -1080 
Q 306 -813 319 -275 
z
M 784 1719 
Q 784 1066 1043 766 
Q 1303 466 1694 466 
Q 2081 466 2343 764 
Q 2606 1063 2606 1700 
Q 2606 2309 2336 2618 
Q 2066 2928 1684 2928 
Q 1309 2928 1046 2623 
Q 784 2319 784 1719 
z
" transform="scale(0.015625)"/>
      <path id="ArialMT-6e" d="M 422 0 
L 422 3319 
L 928 3319 
L 928 2847 
Q 1294 3394 1984 3394 
Q 2284 3394 2536 3286 
Q 2788 3178 2913 3003 
Q 3038 2828 3088 2588 
Q 3119 2431 3119 2041 
L 3119 0 
L 2556 0 
L 2556 2019 
Q 2556 2363 2490 2533 
Q 2425 2703 2258 2804 
Q 2091 2906 1866 2906 
Q 1506 2906 1245 2678 
Q 984 2450 984 1813 
L 984 0 
L 422 0 
z
" transform="scale(0.015625)"/>
      <path id="ArialMT-7c" d="M 588 -1347 
L 588 4659 
L 1078 4659 
L 1078 -1347 
L 588 -1347 
z
" transform="scale(0.015625)"/>
      <path id="ArialMT-7a" d="M 125 0 
L 125 456 
L 2238 2881 
Q 1878 2863 1603 2863 
L 250 2863 
L 250 3319 
L 2963 3319 
L 2963 2947 
L 1166 841 
L 819 456 
Q 1197 484 1528 484 
L 3063 484 
L 3063 0 
L 125 0 
z
" transform="scale(0.015625)"/>
      <path id="ArialMT-3d" d="M 3381 2694 
L 356 2694 
L 356 3219 
L 3381 3219 
L 3381 2694 
z
M 3381 1303 
L 356 1303 
L 356 1828 
L 3381 1828 
L 3381 1303 
z
" transform="scale(0.015625)"/>
      <path id="ArialMT-30" d="M 266 2259 
Q 266 3072 433 3567 
Q 600 4063 929 4331 
Q 1259 4600 1759 4600 
Q 2128 4600 2406 4451 
Q 2684 4303 2865 4023 
Q 3047 3744 3150 3342 
Q 3253 2941 3253 2259 
Q 3253 1453 3087 958 
Q 2922 463 2592 192 
Q 2263 -78 1759 -78 
Q 1097 -78 719 397 
Q 266 969 266 2259 
z
M 844 2259 
Q 844 1131 1108 757 
Q 1372 384 1759 384 
Q 2147 384 2411 759 
Q 2675 1134 2675 2259 
Q 2675 3391 2411 3762 
Q 2147 4134 1753 4134 
Q 1366 4134 1134 3806 
Q 844 3388 844 2259 
z
" transform="scale(0.015625)"/>
      <path id="ArialMT-2e" d="M 581 0 
L 581 641 
L 1222 641 
L 1222 0 
L 581 0 
z
" transform="scale(0.015625)"/>
      <path id="ArialMT-37" d="M 303 3981 
L 303 4522 
L 3269 4522 
L 3269 4084 
Q 2831 3619 2401 2847 
Q 1972 2075 1738 1259 
Q 1569 684 1522 0 
L 944 0 
Q 953 541 1156 1306 
Q 1359 2072 1739 2783 
Q 2119 3494 2547 3981 
L 303 3981 
z
" transform="scale(0.015625)"/>
      <path id="ArialMT-34" d="M 2069 0 
L 2069 1097 
L 81 1097 
L 81 1613 
L 2172 4581 
L 2631 4581 
L 2631 1613 
L 3250 1613 
L 3250 1097 
L 2631 1097 
L 2631 0 
L 2069 0 
z
M 2069 1613 
L 2069 3678 
L 634 1613 
L 2069 1613 
z
" transform="scale(0.015625)"/>
      <path id="ArialMT-38" d="M 1131 2484 
Q 781 2613 612 2850 
Q 444 3088 444 3419 
Q 444 3919 803 4259 
Q 1163 4600 1759 4600 
Q 2359 4600 2725 4251 
Q 3091 3903 3091 3403 
Q 3091 3084 2923 2848 
Q 2756 2613 2416 2484 
Q 2838 2347 3058 2040 
Q 3278 1734 3278 1309 
Q 3278 722 2862 322 
Q 2447 -78 1769 -78 
Q 1091 -78 675 323 
Q 259 725 259 1325 
Q 259 1772 486 2073 
Q 713 2375 1131 2484 
z
M 1019 3438 
Q 1019 3113 1228 2906 
Q 1438 2700 1772 2700 
Q 2097 2700 2305 2904 
Q 2513 3109 2513 3406 
Q 2513 3716 2298 3927 
Q 2084 4138 1766 4138 
Q 1444 4138 1231 3931 
Q 1019 3725 1019 3438 
z
M 838 1322 
Q 838 1081 952 856 
Q 1066 631 1291 507 
Q 1516 384 1775 384 
Q 2178 384 2440 643 
Q 2703 903 2703 1303 
Q 2703 1709 2433 1975 
Q 2163 2241 1756 2241 
Q 1359 2241 1098 1978 
Q 838 1716 838 1322 
z
" transform="scale(0.015625)"/>
      <path id="ArialMT-5f" d="M -97 -1272 
L -97 -866 
L 3631 -866 
L 3631 -1272 
L -97 -1272 
z
" transform="scale(0.015625)"/>
      <path id="ArialMT-35" d="M 266 1200 
L 856 1250 
Q 922 819 1161 601 
Q 1400 384 1738 384 
Q 2144 384 2425 690 
Q 2706 997 2706 1503 
Q 2706 1984 2436 2262 
Q 2166 2541 1728 2541 
Q 1456 2541 1237 2417 
Q 1019 2294 894 2097 
L 366 2166 
L 809 4519 
L 3088 4519 
L 3088 3981 
L 1259 3981 
L 1013 2750 
Q 1425 3038 1878 3038 
Q 2478 3038 2890 2622 
Q 3303 2206 3303 1553 
Q 3303 931 2941 478 
Q 2500 -78 1738 -78 
Q 1113 -78 717 272 
Q 322 622 266 1200 
z
" transform="scale(0.015625)"/>
      <path id="ArialMT-36" d="M 3184 3459 
L 2625 3416 
Q 2550 3747 2413 3897 
Q 2184 4138 1850 4138 
Q 1581 4138 1378 3988 
Q 1113 3794 959 3422 
Q 806 3050 800 2363 
Q 1003 2672 1297 2822 
Q 1591 2972 1913 2972 
Q 2475 2972 2870 2558 
Q 3266 2144 3266 1488 
Q 3266 1056 3080 686 
Q 2894 316 2569 119 
Q 2244 -78 1831 -78 
Q 1128 -78 684 439 
Q 241 956 241 2144 
Q 241 3472 731 4075 
Q 1159 4600 1884 4600 
Q 2425 4600 2770 4297 
Q 3116 3994 3184 3459 
z
M 888 1484 
Q 888 1194 1011 928 
Q 1134 663 1356 523 
Q 1578 384 1822 384 
Q 2178 384 2434 671 
Q 2691 959 2691 1453 
Q 2691 1928 2437 2201 
Q 2184 2475 1800 2475 
Q 1419 2475 1153 2201 
Q 888 1928 888 1484 
z
" transform="scale(0.015625)"/>
      <path id="ArialMT-32" d="M 3222 541 
L 3222 0 
L 194 0 
Q 188 203 259 391 
Q 375 700 629 1000 
Q 884 1300 1366 1694 
Q 2113 2306 2375 2664 
Q 2638 3022 2638 3341 
Q 2638 3675 2398 3904 
Q 2159 4134 1775 4134 
Q 1369 4134 1125 3890 
Q 881 3647 878 3216 
L 300 3275 
Q 359 3922 746 4261 
Q 1134 4600 1788 4600 
Q 2447 4600 2831 4234 
Q 3216 3869 3216 3328 
Q 3216 3053 3103 2787 
Q 2991 2522 2730 2228 
Q 2469 1934 1863 1422 
Q 1356 997 1212 845 
Q 1069 694 975 541 
L 3222 541 
z
" transform="scale(0.015625)"/>
      <path id="ArialMT-2b" d="M 1603 741 
L 1603 1997 
L 356 1997 
L 356 2522 
L 1603 2522 
L 1603 3769 
L 2134 3769 
L 2134 2522 
L 3381 2522 
L 3381 1997 
L 2134 1997 
L 2134 741 
L 1603 741 
z
" transform="scale(0.015625)"/>
      <path id="ArialMT-31" d="M 2384 0 
L 1822 0 
L 1822 3584 
Q 1619 3391 1289 3197 
Q 959 3003 697 2906 
L 697 3450 
Q 1169 3672 1522 3987 
Q 1875 4303 2022 4600 
L 2384 4600 
L 2384 0 
z
" transform="scale(0.015625)"/>
     </defs>
     <use xlink:href="#ArialMT-4d"/>
     <use xlink:href="#ArialMT-65" transform="translate(83.300781 0)"/>
     <use xlink:href="#ArialMT-72" transform="translate(138.916016 0)"/>
     <use xlink:href="#ArialMT-67" transform="translate(172.216797 0)"/>
     <use xlink:href="#ArialMT-69" transform="translate(227.832031 0)"/>
     <use xlink:href="#ArialMT-6e" transform="translate(250.048828 0)"/>
     <use xlink:href="#ArialMT-67" transform="translate(305.664062 0)"/>
     <use xlink:href="#ArialMT-20" transform="translate(361.279297 0)"/>
     <use xlink:href="#ArialMT-7c" transform="translate(389.0625 0)"/>
     <use xlink:href="#ArialMT-20" transform="translate(415.039062 0)"/>
     <use xlink:href="#ArialMT-7a" transform="translate(442.822266 0)"/>
     <use xlink:href="#ArialMT-20" transform="translate(492.822266 0)"/>
     <use xlink:href="#ArialMT-3d" transform="translate(520.605469 0)"/>
     <use xlink:href="#ArialMT-20" transform="translate(579.003906 0)"/>
     <use xlink:href="#ArialMT-30" transform="translate(606.787109 0)"/>
     <use xlink:href="#ArialMT-2e" transform="translate(662.402344 0)"/>
     <use xlink:href="#ArialMT-30" transform="translate(690.185547 0)"/>
     <use xlink:href="#ArialMT-37" transform="translate(745.800781 0)"/>
     <use xlink:href="#ArialMT-34" transform="translate(801.416016 0)"/>
     <use xlink:href="#ArialMT-38" transform="translate(857.03125 0)"/>
     <use xlink:href="#ArialMT-20" transform="translate(912.646484 0)"/>
     <use xlink:href="#ArialMT-7c" transform="translate(940.429688 0)"/>
     <use xlink:href="#ArialMT-20" transform="translate(966.40625 0)"/>
     <use xlink:href="#ArialMT-4d" transform="translate(994.189453 0)"/>
     <use xlink:href="#ArialMT-5f" transform="translate(1077.490234 0)"/>
     <use xlink:href="#ArialMT-35" transform="translate(1133.105469 0)"/>
     <use xlink:href="#ArialMT-30" transform="translate(1188.720703 0)"/>
     <use xlink:href="#ArialMT-30" transform="translate(1244.335938 0)"/>
     <use xlink:href="#ArialMT-20" transform="translate(1299.951172 0)"/>
     <use xlink:href="#ArialMT-3d" transform="translate(1327.734375 0)"/>
     <use xlink:href="#ArialMT-20" transform="translate(1386.132812 0)"/>
     <use xlink:href="#ArialMT-36" transform="translate(1413.916016 0)"/>
     <use xlink:href="#ArialMT-2e" transform="translate(1469.53125 0)"/>
     <use xlink:href="#ArialMT-32" transform="translate(1497.314453 0)"/>
     <use xlink:href="#ArialMT-30" transform="translate(1552.929688 0)"/>
     <use xlink:href="#ArialMT-65" transform="translate(1608.544922 0)"/>
     <use xlink:href="#ArialMT-2b" transform="translate(1664.160156 0)"/>
     <use xlink:href="#ArialMT-31" transform="translate(1722.558594 0)"/>
     <use xlink:href="#ArialMT-34" transform="translate(1778.173828 0)"/>
     <use xlink:href="#ArialMT-20" transform="translate(1833.789062 0)"/>
     <use xlink:href="#ArialMT-4d" transform="translate(1861.572266 0)"/>
     <use xlink:href="#ArialMT-73" transform="translate(1944.873047 0)"/>
     <use xlink:href="#ArialMT-75" transform="translate(1994.873047 0)"/>
     <use xlink:href="#ArialMT-6e" transform="translate(2050.488281 0)"/>
     <use xlink:href="#ArialMT-20" transform="translate(2106.103516 0)"/>
     <use xlink:href="#ArialMT-7c" transform="translate(2133.886719 0)"/>
     <use xlink:href="#ArialMT-20" transform="translate(2159.863281 0)"/>
     <use xlink:href="#ArialMT-52" transform="translate(2187.646484 0)"/>
     <use xlink:href="#ArialMT-5f" transform="translate(2259.863281 0)"/>
     <use xlink:href="#ArialMT-35" transform="translate(2315.478516 0)"/>
     <use xlink:href="#ArialMT-30" transform="translate(2371.09375 0)"/>
     <use xlink:href="#ArialMT-30" transform="translate(2426.708984 0)"/>
     <use xlink:href="#ArialMT-20" transform="translate(2482.324219 0)"/>
     <use xlink:href="#ArialMT-3d" transform="translate(2510.107422 0)"/>
     <use xlink:href="#ArialMT-20" transform="translate(2568.505859 0)"/>
     <use xlink:href="#ArialMT-31" transform="translate(2596.289062 0)"/>
     <use xlink:href="#ArialMT-36" transform="translate(2651.904297 0)"/>
     <use xlink:href="#ArialMT-31" transform="translate(2707.519531 0)"/>
     <use xlink:href="#ArialMT-30" transform="translate(2763.134766 0)"/>
     <use xlink:href="#ArialMT-20" transform="translate(2818.75 0)"/>
     <use xlink:href="#ArialMT-6b" transform="translate(2846.533203 0)"/>
     <use xlink:href="#ArialMT-70" transform="translate(2896.533203 0)"/>
     <use xlink:href="#ArialMT-63" transform="translate(2952.148438 0)"/>
    </g>
   </g>
   <g id="text_11">
    <!-- A401 Temperature Profile -->
    <g style="fill: #586172" transform="translate(172.750625 21.759375) scale(0.2 -0.2)">
     <defs>
      <path id="ArialMT-41" d="M -9 0 
L 1750 4581 
L 2403 4581 
L 4278 0 
L 3588 0 
L 3053 1388 
L 1138 1388 
L 634 0 
L -9 0 
z
M 1313 1881 
L 2866 1881 
L 2388 3150 
Q 2169 3728 2063 4100 
Q 1975 3659 1816 3225 
L 1313 1881 
z
" transform="scale(0.015625)"/>
      <path id="ArialMT-50" d="M 494 0 
L 494 4581 
L 2222 4581 
Q 2678 4581 2919 4538 
Q 3256 4481 3484 4323 
Q 3713 4166 3852 3881 
Q 3991 3597 3991 3256 
Q 3991 2672 3619 2267 
Q 3247 1863 2275 1863 
L 1100 1863 
L 1100 0 
L 494 0 
z
M 1100 2403 
L 2284 2403 
Q 2872 2403 3119 2622 
Q 3366 2841 3366 3238 
Q 3366 3525 3220 3729 
Q 3075 3934 2838 4000 
Q 2684 4041 2272 4041 
L 1100 4041 
L 1100 2403 
z
" transform="scale(0.015625)"/>
      <path id="ArialMT-6f" d="M 213 1659 
Q 213 2581 725 3025 
Q 1153 3394 1769 3394 
Q 2453 3394 2887 2945 
Q 3322 2497 3322 1706 
Q 3322 1066 3130 698 
Q 2938 331 2570 128 
Q 2203 -75 1769 -75 
Q 1072 -75 642 372 
Q 213 819 213 1659 
z
M 791 1659 
Q 791 1022 1069 705 
Q 1347 388 1769 388 
Q 2188 388 2466 706 
Q 2744 1025 2744 1678 
Q 2744 2294 2464 2611 
Q 2184 2928 1769 2928 
Q 1347 2928 1069 2612 
Q 791 2297 791 1659 
z
" transform="scale(0.015625)"/>
      <path id="ArialMT-66" d="M 556 0 
L 556 2881 
L 59 2881 
L 59 3319 
L 556 3319 
L 556 3672 
Q 556 4006 616 4169 
Q 697 4388 901 4523 
Q 1106 4659 1475 4659 
Q 1713 4659 2000 4603 
L 1916 4113 
Q 1741 4144 1584 4144 
Q 1328 4144 1222 4034 
Q 1116 3925 1116 3625 
L 1116 3319 
L 1763 3319 
L 1763 2881 
L 1116 2881 
L 1116 0 
L 556 0 
z
" transform="scale(0.015625)"/>
      <path id="ArialMT-6c" d="M 409 0 
L 409 4581 
L 972 4581 
L 972 0 
L 409 0 
z
" transform="scale(0.015625)"/>
     </defs>
     <use xlink:href="#ArialMT-41"/>
     <use xlink:href="#ArialMT-34" transform="translate(66.699219 0)"/>
     <use xlink:href="#ArialMT-30" transform="translate(122.314453 0)"/>
     <use xlink:href="#ArialMT-31" transform="translate(177.929688 0)"/>
     <use xlink:href="#ArialMT-20" transform="translate(233.544922 0)"/>
     <use xlink:href="#ArialMT-54" transform="translate(259.578125 0)"/>
     <use xlink:href="#ArialMT-65" transform="translate(309.537109 0)"/>
     <use xlink:href="#ArialMT-6d" transform="translate(365.152344 0)"/>
     <use xlink:href="#ArialMT-70" transform="translate(448.453125 0)"/>
     <use xlink:href="#ArialMT-65" transform="translate(504.068359 0)"/>
     <use xlink:href="#ArialMT-72" transform="translate(559.683594 0)"/>
     <use xlink:href="#ArialMT-61" transform="translate(592.984375 0)"/>
     <use xlink:href="#ArialMT-74" transform="translate(648.599609 0)"/>
     <use xlink:href="#ArialMT-75" transform="translate(676.382812 0)"/>
     <use xlink:href="#ArialMT-72" transform="translate(731.998047 0)"/>
     <use xlink:href="#ArialMT-65" transform="translate(765.298828 0)"/>
     <use xlink:href="#ArialMT-20" transform="translate(820.914062 0)"/>
     <use xlink:href="#ArialMT-50" transform="translate(848.697266 0)"/>
     <use xlink:href="#ArialMT-72" transform="translate(915.396484 0)"/>
     <use xlink:href="#ArialMT-6f" transform="translate(948.697266 0)"/>
     <use xlink:href="#ArialMT-66" transform="translate(1004.3125 0)"/>
     <use xlink:href="#ArialMT-69" transform="translate(1032.095703 0)"/>
     <use xlink:href="#ArialMT-6c" transform="translate(1054.3125 0)"/>
     <use xlink:href="#ArialMT-65" transform="translate(1076.529297 0)"/>
    </g>
   </g>
   <g id="line2d_34">
    <path d="M 81.232896 114.874993 
L 117.992883 100.207666 
L 154.752869 114.925253 
L 191.512856 119.530676 
L 228.272842 138.064993 
L 265.032829 134.739055 
L 301.792815 155.758358 
L 338.552802 160.431817 
L 375.312788 170.752759 
L 412.072775 183.943147 
L 448.832761 187.393823 
L 485.592747 211.56841 
" clip-path="url(#p37456f252e)" style="fill: none; stroke-dasharray: 4.44,1.92; stroke-dashoffset: 0; stroke: #ff6b6b; stroke-width: 1.2"/>
    <defs>
     <path id="meae9229cbb" d="M -0 3 
L 3 -3 
L -3 -3 
z
"/>
    </defs>
    <g clip-path="url(#p37456f252e)">
     <use xlink:href="#meae9229cbb" x="81.232896" y="114.874993" style="fill: #ff6b6b"/>
     <use xlink:href="#meae9229cbb" x="117.992883" y="100.207666" style="fill: #ff6b6b"/>
     <use xlink:href="#meae9229cbb" x="154.752869" y="114.925253" style="fill: #ff6b6b"/>
     <use xlink:href="#meae9229cbb" x="191.512856" y="119.530676" style="fill: #ff6b6b"/>
     <use xlink:href="#meae9229cbb" x="228.272842" y="138.064993" style="fill: #ff6b6b"/>
     <use xlink:href="#meae9229cbb" x="265.032829" y="134.739055" style="fill: #ff6b6b"/>
     <use xlink:href="#meae9229cbb" x="301.792815" y="155.758358" style="fill: #ff6b6b"/>
     <use xlink:href="#meae9229cbb" x="338.552802" y="160.431817" style="fill: #ff6b6b"/>
     <use xlink:href="#meae9229cbb" x="375.312788" y="170.752759" style="fill: #ff6b6b"/>
     <use xlink:href="#meae9229cbb" x="412.072775" y="183.943147" style="fill: #ff6b6b"/>
     <use xlink:href="#meae9229cbb" x="448.832761" y="187.393823" style="fill: #ff6b6b"/>
     <use xlink:href="#meae9229cbb" x="485.592747" y="211.56841" style="fill: #ff6b6b"/>
    </g>
   </g>
   <g id="legend_1">
    <g id="patch_7">
     <path d="M 433.48625 79.115625 
L 522.876875 79.115625 
L 522.876875 46.759375 
L 433.48625 46.759375 
z
" style="fill: #ffffff; opacity: 0.8; stroke: #d0d5dd; stroke-linejoin: miter"/>
    </g>
    <g id="line2d_35">
     <path d="M 437.48625 54.857812 
L 447.48625 54.857812 
L 457.48625 54.857812 
" style="fill: none; stroke: #ff6b6b; stroke-opacity: 0.6; stroke-width: 2.5; stroke-linecap: square"/>
    </g>
    <g id="text_12">
     <!-- GoE Model -->
     <g style="fill: #5a6470" transform="translate(465.48625 58.357812) scale(0.1 -0.1)">
      <defs>
       <path id="DejaVuSans-47" d="M 3809 666 
L 3809 1919 
L 2778 1919 
L 2778 2438 
L 4434 2438 
L 4434 434 
Q 4069 175 3628 42 
Q 3188 -91 2688 -91 
Q 1594 -91 976 548 
Q 359 1188 359 2328 
Q 359 3472 976 4111 
Q 1594 4750 2688 4750 
Q 3144 4750 3555 4637 
Q 3966 4525 4313 4306 
L 4313 3634 
Q 3963 3931 3569 4081 
Q 3175 4231 2741 4231 
Q 1884 4231 1454 3753 
Q 1025 3275 1025 2328 
Q 1025 1384 1454 906 
Q 1884 428 2741 428 
Q 3075 428 3337 486 
Q 3600 544 3809 666 
z
" transform="scale(0.015625)"/>
       <path id="DejaVuSans-6f" d="M 1959 3097 
Q 1497 3097 1228 2736 
Q 959 2375 959 1747 
Q 959 1119 1226 758 
Q 1494 397 1959 397 
Q 2419 397 2687 759 
Q 2956 1122 2956 1747 
Q 2956 2369 2687 2733 
Q 2419 3097 1959 3097 
z
M 1959 3584 
Q 2709 3584 3137 3096 
Q 3566 2609 3566 1747 
Q 3566 888 3137 398 
Q 2709 -91 1959 -91 
Q 1206 -91 779 398 
Q 353 888 353 1747 
Q 353 2609 779 3096 
Q 1206 3584 1959 3584 
z
" transform="scale(0.015625)"/>
       <path id="DejaVuSans-45" d="M 628 4666 
L 3578 4666 
L 3578 4134 
L 1259 4134 
L 1259 2753 
L 3481 2753 
L 3481 2222 
L 1259 2222 
L 1259 531 
L 3634 531 
L 3634 0 
L 628 0 
L 628 4666 
z
" transform="scale(0.015625)"/>
       <path id="DejaVuSans-20" transform="scale(0.015625)"/>
       <path id="DejaVuSans-4d" d="M 628 4666 
L 1569 4666 
L 2759 1491 
L 3956 4666 
L 4897 4666 
L 4897 0 
L 4281 0 
L 4281 4097 
L 3078 897 
L 2444 897 
L 1241 4097 
L 1241 0 
L 628 0 
L 628 4666 
z
" transform="scale(0.015625)"/>
       <path id="DejaVuSans-64" d="M 2906 2969 
L 2906 4863 
L 3481 4863 
L 3481 0 
L 2906 0 
L 2906 525 
Q 2725 213 2448 61 
Q 2172 -91 1784 -91 
Q 1150 -91 751 415 
Q 353 922 353 1747 
Q 353 2572 751 3078 
Q 1150 3584 1784 3584 
Q 2172 3584 2448 3432 
Q 2725 3281 2906 2969 
z
M 947 1747 
Q 947 1113 1208 752 
Q 1469 391 1925 391 
Q 2381 391 2643 752 
Q 2906 1113 2906 1747 
Q 2906 2381 2643 2742 
Q 2381 3103 1925 3103 
Q 1469 3103 1208 2742 
Q 947 2381 947 1747 
z
" transform="scale(0.015625)"/>
       <path id="DejaVuSans-65" d="M 3597 1894 
L 3597 1613 
L 953 1613 
Q 991 1019 1311 708 
Q 1631 397 2203 397 
Q 2534 397 2845 478 
Q 3156 559 3463 722 
L 3463 178 
Q 3153 47 2828 -22 
Q 2503 -91 2169 -91 
Q 1331 -91 842 396 
Q 353 884 353 1716 
Q 353 2575 817 3079 
Q 1281 3584 2069 3584 
Q 2775 3584 3186 3129 
Q 3597 2675 3597 1894 
z
M 3022 2063 
Q 3016 2534 2758 2815 
Q 2500 3097 2075 3097 
Q 1594 3097 1305 2825 
Q 1016 2553 972 2059 
L 3022 2063 
z
" transform="scale(0.015625)"/>
       <path id="DejaVuSans-6c" d="M 603 4863 
L 1178 4863 
L 1178 0 
L 603 0 
L 603 4863 
z
" transform="scale(0.015625)"/>
      </defs>
      <use xlink:href="#DejaVuSans-47"/>
      <use xlink:href="#DejaVuSans-6f" transform="translate(77.490234 0)"/>
      <use xlink:href="#DejaVuSans-45" transform="translate(138.671875 0)"/>
      <use xlink:href="#DejaVuSans-20" transform="translate(201.855469 0)"/>
      <use xlink:href="#DejaVuSans-4d" transform="translate(233.642578 0)"/>
      <use xlink:href="#DejaVuSans-6f" transform="translate(319.921875 0)"/>
      <use xlink:href="#DejaVuSans-64" transform="translate(381.103516 0)"/>
      <use xlink:href="#DejaVuSans-65" transform="translate(444.580078 0)"/>
      <use xlink:href="#DejaVuSans-6c" transform="translate(506.103516 0)"/>
     </g>
    </g>
    <g id="LineCollection_2">
     <path d="M 447.48625 74.535937 
L 447.48625 64.535937 
" style="fill: none; stroke: #ff6b6b; stroke-width: 1.5"/>
    </g>
    <g id="line2d_36">
     <g>
      <use xlink:href="#m6f5bcde870" x="447.48625" y="74.535937" style="fill: #ff6b6b"/>
     </g>
    </g>
    <g id="line2d_37">
     <g>
      <use xlink:href="#m6f5bcde870" x="447.48625" y="64.535937" style="fill: #ff6b6b"/>
     </g>
    </g>
    <g id="line2d_38">
     <path d="M 437.48625 69.535937 
L 457.48625 69.535937 
" style="fill: none; stroke-dasharray: 4.44,1.92; stroke-dashoffset: 0; stroke: #ff6b6b; stroke-width: 1.2"/>
    </g>
    <g id="line2d_39">
     <g>
      <use xlink:href="#meae9229cbb" x="447.48625" y="69.535937" style="fill: #ff6b6b"/>
     </g>
    </g>
    <g id="text_13">
     <!-- Observed -->
     <g style="fill: #5a6470" transform="translate(465.48625 73.035937) scale(0.1 -0.1)">
      <defs>
       <path id="DejaVuSans-4f" d="M 2522 4238 
Q 1834 4238 1429 3725 
Q 1025 3213 1025 2328 
Q 1025 1447 1429 934 
Q 1834 422 2522 422 
Q 3209 422 3611 934 
Q 4013 1447 4013 2328 
Q 4013 3213 3611 3725 
Q 3209 4238 2522 4238 
z
M 2522 4750 
Q 3503 4750 4090 4092 
Q 4678 3434 4678 2328 
Q 4678 1225 4090 567 
Q 3503 -91 2522 -91 
Q 1538 -91 948 565 
Q 359 1222 359 2328 
Q 359 3434 948 4092 
Q 1538 4750 2522 4750 
z
" transform="scale(0.015625)"/>
       <path id="DejaVuSans-62" d="M 3116 1747 
Q 3116 2381 2855 2742 
Q 2594 3103 2138 3103 
Q 1681 3103 1420 2742 
Q 1159 2381 1159 1747 
Q 1159 1113 1420 752 
Q 1681 391 2138 391 
Q 2594 391 2855 752 
Q 3116 1113 3116 1747 
z
M 1159 2969 
Q 1341 3281 1617 3432 
Q 1894 3584 2278 3584 
Q 2916 3584 3314 3078 
Q 3713 2572 3713 1747 
Q 3713 922 3314 415 
Q 2916 -91 2278 -91 
Q 1894 -91 1617 61 
Q 1341 213 1159 525 
L 1159 0 
L 581 0 
L 581 4863 
L 1159 4863 
L 1159 2969 
z
" transform="scale(0.015625)"/>
       <path id="DejaVuSans-73" d="M 2834 3397 
L 2834 2853 
Q 2591 2978 2328 3040 
Q 2066 3103 1784 3103 
Q 1356 3103 1142 2972 
Q 928 2841 928 2578 
Q 928 2378 1081 2264 
Q 1234 2150 1697 2047 
L 1894 2003 
Q 2506 1872 2764 1633 
Q 3022 1394 3022 966 
Q 3022 478 2636 193 
Q 2250 -91 1575 -91 
Q 1294 -91 989 -36 
Q 684 19 347 128 
L 347 722 
Q 666 556 975 473 
Q 1284 391 1588 391 
Q 1994 391 2212 530 
Q 2431 669 2431 922 
Q 2431 1156 2273 1281 
Q 2116 1406 1581 1522 
L 1381 1569 
Q 847 1681 609 1914 
Q 372 2147 372 2553 
Q 372 3047 722 3315 
Q 1072 3584 1716 3584 
Q 2034 3584 2315 3537 
Q 2597 3491 2834 3397 
z
" transform="scale(0.015625)"/>
       <path id="DejaVuSans-72" d="M 2631 2963 
Q 2534 3019 2420 3045 
Q 2306 3072 2169 3072 
Q 1681 3072 1420 2755 
Q 1159 2438 1159 1844 
L 1159 0 
L 581 0 
L 581 3500 
L 1159 3500 
L 1159 2956 
Q 1341 3275 1631 3429 
Q 1922 3584 2338 3584 
Q 2397 3584 2469 3576 
Q 2541 3569 2628 3553 
L 2631 2963 
z
" transform="scale(0.015625)"/>
       <path id="DejaVuSans-76" d="M 191 3500 
L 800 3500 
L 1894 563 
L 2988 3500 
L 3597 3500 
L 2284 0 
L 1503 0 
L 191 3500 
z
" transform="scale(0.015625)"/>
      </defs>
      <use xlink:href="#DejaVuSans-4f"/>
      <use xlink:href="#DejaVuSans-62" transform="translate(78.710938 0)"/>
      <use xlink:href="#DejaVuSans-73" transform="translate(142.1875 0)"/>
      <use xlink:href="#DejaVuSans-65" transform="translate(194.287109 0)"/>
      <use xlink:href="#DejaVuSans-72" transform="translate(255.810547 0)"/>
      <use xlink:href="#DejaVuSans-76" transform="translate(296.923828 0)"/>
      <use xlink:href="#DejaVuSans-65" transform="translate(356.103516 0)"/>
      <use xlink:href="#DejaVuSans-64" transform="translate(417.626953 0)"/>
     </g>
    </g>
   </g>
  </g>
 </g>
 <defs>
  <clipPath id="p37456f252e">
   <rect x="44.036875" y="41.759375" width="483.84" height="273.6"/>
  </clipPath>
 </defs>
</svg>
