<svg class="main-svg" xmlns="http://www.w3.org/2000/svg" xmlns:xlink="http://www.w3.org/1999/xlink" width="800" height="600" style="" viewBox="0 0 800 600"><rect x="0" y="0" width="800" height="600" style="fill: rgb(255, 255, 255); fill-opacity: 1;"/><defs id="defs-9e5a03"><g class="clips"><clipPath id="clip9e5a03xyplot" class="plotclip"><rect width="680" height="480"/></clipPath><clipPath class="axesclip" id="clip9e5a03x"><rect x="80" y="0" width="680" height="600"/></clipPath><clipPath class="axesclip" id="clip9e5a03y"><rect x="0" y="60" width="800" height="480"/></clipPath><clipPath class="axesclip" id="clip9e5a03xy"><rect x="80" y="60" width="680" height="480"/></clipPath></g><g class="gradients"/><g class="patterns"/></defs><g class="bglayer"/><g class="layer-below"><g class="imagelayer"/><g class="shapelayer"/></g><g class="cartesianlayer"><g class="subplot xy"><g class="layer-subplot"><g class="shapelayer"/><g class="imagelayer"/></g><g class="minor-gridlayer"><g class="x"/><g class="y"/></g><g class="gridlayer"><g class="x"><path class="xgrid crisp" transform="translate(85.75,0)" d="M0,60v480" style="stroke: rgb(229, 231, 235); stroke-opacity: 1; stroke-width: 0.5px;"/><path class="xgrid crisp" transform="translate(120.25,0)" d="M0,60v480" style="stroke: rgb(229, 231, 235); stroke-opacity: 1; stroke-width: 0.5px;"/><path class="xgrid crisp" transform="translate(148.44,0)" d="M0,60v480" style="stroke: rgb(229, 231, 235); stroke-opacity: 1; stroke-width: 0.5px;"/><path class="xgrid crisp" transform="translate(172.26999999999998,0)" d="M0,60v480" style="stroke: rgb(229, 231, 235); stroke-opacity: 1; stroke-width: 0.5px;"/><path class="xgrid crisp" transform="translate(192.92000000000002,0)" d="M0,60v480" style="stroke: rgb(229, 231, 235); stroke-opacity: 1; stroke-width: 0.5px;"/><path class="xgrid crisp" transform="translate(211.13,0)" d="M0,60v480" style="stroke: rgb(229, 231, 235); stroke-opacity: 1; stroke-width: 0.5px;"/><path class="xgrid crisp" transform="translate(227.42,0)" d="M0,60v480" style="stroke: rgb(229, 231, 235); stroke-opacity: 1; stroke-width: 0.5px;"/><path class="xgrid crisp" transform="translate(334.59000000000003,0)" d="M0,60v480" style="stroke: rgb(229, 231, 235); stroke-opacity: 1; stroke-width: 0.5px;"/><path class="xgrid crisp" transform="translate(397.28,0)" d="M0,60v480" style="stroke: rgb(229, 231, 235); stroke-opacity: 1; stroke-width: 0.5px;"/><path class="xgrid crisp" transform="translate(441.76,0)" d="M0,60v480" style="stroke: rgb(229, 231, 235); stroke-opacity: 1; stroke-width: 0.5px;"/><path class="xgrid crisp" transform="translate(476.26,0)" d="M0,60v480" style="stroke: rgb(229, 231, 235); stroke-opacity: 1; stroke-width: 0.5px;"/><path class="xgrid crisp" transform="translate(504.45,0)" d="M0,60v480" style="stroke: rgb(229, 231, 235); stroke-opacity: 1; stroke-width: 0.5px;"/><path class="xgrid crisp" transform="translate(528.28,0)" d="M0,60v480" style="stroke: rgb(229, 231, 235); stroke-opacity: 1; stroke-width: 0.5px;"/><path class="xgrid crisp" transform="translate(548.9300000000001,0)" d="M0,60v480" style="stroke: rgb(229, 231, 235); stroke-opacity: 1; stroke-width: 0.5px;"/><path class="xgrid crisp" transform="translate(567.14,0)" d="M0,60v480" style="stroke: rgb(229, 231, 235); stroke-opacity: 1; stroke-width: 0.5px;"/><path class="xgrid crisp" transform="translate(583.4300000000001,0)" d="M0,60v480" style="stroke: rgb(229, 231, 235); stroke-opacity: 1; stroke-width: 0.5px;"/><path class="xgrid crisp" transform="translate(690.6,0)" d="M0,60v480" style="stroke: rgb(229, 231, 235); stroke-opacity: 1; stroke-width: 0.5px;"/><path class="xgrid crisp" transform="translate(753.29,0)" d="M0,60v480" style="stroke: rgb(229, 231, 235); stroke-opacity: 1; stroke-width: 0.5px;"/></g><g class="y"><path class="ygrid crisp" transform="translate(0,511.03)" d="M80,0h680" style="stroke: rgb(229, 231, 235); stroke-opacity: 1; stroke-width: 0.5px;"/><path class="ygrid crisp" transform="translate(0,423.05)" d="M80,0h680" style="stroke: rgb(229, 231, 235); stroke-opacity: 1; stroke-width: 0.5px;"/><path class="ygrid crisp" transform="translate(0,335.08)" d="M80,0h680" style="stroke: rgb(229, 231, 235); stroke-opacity: 1; stroke-width: 0.5px;"/><path class="ygrid crisp" transform="translate(0,247.11)" d="M80,0h680" style="stroke: rgb(229, 231, 235); stroke-opacity: 1; stroke-width: 0.5px;"/><path class="ygrid crisp" transform="translate(0,159.13)" d="M80,0h680" style="stroke: rgb(229, 231, 235); stroke-opacity: 1; stroke-width: 0.5px;"/><path class="ygrid crisp" transform="translate(0,71.16)" d="M80,0h680" style="stroke: rgb(229, 231, 235); stroke-opacity: 1; stroke-width: 0.5px;"/></g></g><g class="zerolinelayer"/><g class="layer-between"><g class="shapelayer"/><g class="imagelayer"/></g><path class="xlines-below"/><path class="ylines-below"/><g class="overlines-below"/><g class="xaxislayer-below"/><g class="yaxislayer-below"/><g class="overaxes-below"/><g class="overplot"><g class="xy" transform="translate(80,60)" clip-path="url(#clip9e5a03xyplot)"><g class="scatterlayer mlayer"><g class="trace scatter tracef13143" style="stroke-miterlimit: 2; opacity: 1;"><g class="fills"/><g class="errorbars"><g class="errorbar"><path class="yerror" d="M35.25,66.03h10m-5,0V199.37m-5,0h10" style="vector-effect: none; stroke-width: 1.6px; stroke: rgb(107, 114, 128); stroke-opacity: 1;"/></g><g class="errorbar"><path class="yerror" d="M89.75,24h10m-5,0V156.21m-5,0h10" style="vector-effect: none; stroke-width: 1.6px; stroke: rgb(107, 114, 128); stroke-opacity: 1;"/></g><g class="errorbar"><path class="yerror" d="M144.25,67.62h10m-5,0V198.07m-5,0h10" style="vector-effect: none; stroke-width: 1.6px; stroke: rgb(107, 114, 128); stroke-opacity: 1;"/></g><g class="errorbar"><path class="yerror" d="M198.75,82.3h10m-5,0V210.14m-5,0h10" style="vector-effect: none; stroke-width: 1.6px; stroke: rgb(107, 114, 128); stroke-opacity: 1;"/></g><g class="errorbar"><path class="yerror" d="M253.25,137.93h10m-5,0V262.16m-5,0h10" style="vector-effect: none; stroke-width: 1.6px; stroke: rgb(107, 114, 128); stroke-opacity: 1;"/></g><g class="errorbar"><path class="yerror" d="M307.75,130.58h10m-5,0V250.19m-5,0h10" style="vector-effect: none; stroke-width: 1.6px; stroke: rgb(107, 114, 128); stroke-opacity: 1;"/></g><g class="errorbar"><path class="yerror" d="M362.25,194.36h10m-5,0V308.51m-5,0h10" style="vector-effect: none; stroke-width: 1.6px; stroke: rgb(107, 114, 128); stroke-opacity: 1;"/></g><g class="errorbar"><path class="yerror" d="M416.75,210.92h10m-5,0V319.09m-5,0h10" style="vector-effect: none; stroke-width: 1.6px; stroke: rgb(107, 114, 128); stroke-opacity: 1;"/></g><g class="errorbar"><path class="yerror" d="M471.25,243.97h10m-5,0V345.99m-5,0h10" style="vector-effect: none; stroke-width: 1.6px; stroke: rgb(107, 114, 128); stroke-opacity: 1;"/></g><g class="errorbar"><path class="yerror" d="M525.75,285.29h10m-5,0V381.29m-5,0h10" style="vector-effect: none; stroke-width: 1.6px; stroke: rgb(107, 114, 128); stroke-opacity: 1;"/></g><g class="errorbar"><path class="yerror" d="M580.25,298.17h10m-5,0V388.45m-5,0h10" style="vector-effect: none; stroke-width: 1.6px; stroke: rgb(107, 114, 128); stroke-opacity: 1;"/></g><g class="errorbar"><path class="yerror" d="M634.75,371.03h10m-5,0V456m-5,0h10" style="vector-effect: none; stroke-width: 1.6px; stroke: rgb(107, 114, 128); stroke-opacity: 1;"/></g></g><g class="lines"><path class="js-line" d="M40.25,132.7L94.75,90.1L149.25,132.85L203.75,146.22L258.25,200.05L312.75,190.39L367.25,251.43L421.75,265.01L476.25,294.98L530.75,333.29L585.25,343.31L639.75,413.52" style="vector-effect: none; fill: none; stroke: rgb(107, 114, 128); stroke-opacity: 1; stroke-dasharray: 3px, 3px; stroke-width: 1.2px; opacity: 1;"/></g><g class="points"><path class="point" transform="translate(40.25,132.7)" d="M-5.77,2.5H5.77L0,-5Z" style="opacity: 1; stroke-width: 1px; fill: rgb(107, 114, 128); fill-opacity: 1; stroke: rgb(255, 255, 255); stroke-opacity: 1;"/><path class="point" transform="translate(94.75,90.1)" d="M-5.77,2.5H5.77L0,-5Z" style="opacity: 1; stroke-width: 1px; fill: rgb(107, 114, 128); fill-opacity: 1; stroke: rgb(255, 255, 255); stroke-opacity: 1;"/><path class="point" transform="translate(149.25,132.85)" d="M-5.77,2.5H5.77L0,-5Z" style="opacity: 1; stroke-width: 1px; fill: rgb(107, 114, 128); fill-opacity: 1; stroke: rgb(255, 255, 255); stroke-opacity: 1;"/><path class="point" transform="translate(203.75,146.22)" d="M-5.77,2.5H5.77L0,-5Z" style="opacity: 1; stroke-width: 1px; fill: rgb(107, 114, 128); fill-opacity: 1; stroke: rgb(255, 255, 255); stroke-opacity: 1;"/><path class="point" transform="translate(258.25,200.05)" d="M-5.77,2.5H5.77L0,-5Z" style="opacity: 1; stroke-width: 1px; fill: rgb(107, 114, 128); fill-opacity: 1; stroke: rgb(255, 255, 255); stroke-opacity: 1;"/><path class="point" transform="translate(312.75,190.39)" d="M-5.77,2.5H5.77L0,-5Z" style="opacity: 1; stroke-width: 1px; fill: rgb(107, 114, 128); fill-opacity: 1; stroke: rgb(255, 255, 255); stroke-opacity: 1;"/><path class="point" transform="translate(367.25,251.43)" d="M-5.77,2.5H5.77L0,-5Z" style="opacity: 1; stroke-width: 1px; fill: rgb(107, 114, 128); fill-opacity: 1; stroke: rgb(255, 255, 255); stroke-opacity: 1;"/><path class="point" transform="translate(421.75,265.01)" d="M-5.77,2.5H5.77L0,-5Z" style="opacity: 1; stroke-width: 1px; fill: rgb(107, 114, 128); fill-opacity: 1; stroke: rgb(255, 255, 255); stroke-opacity: 1;"/><path class="point" transform="translate(476.25,294.98)" d="M-5.77,2.5H5.77L0,-5Z" style="opacity: 1; stroke-width: 1px; fill: rgb(107, 114, 128); fill-opacity: 1; stroke: rgb(255, 255, 255); stroke-opacity: 1;"/><path class="point" transform="translate(530.75,333.29)" d="M-5.77,2.5H5.77L0,-5Z" style="opacity: 1; stroke-width: 1px; fill: rgb(107, 114, 128); fill-opacity: 1; stroke: rgb(255, 255, 255); stroke-opacity: 1;"/><path class="point" transform="translate(585.25,343.31)" d="M-5.77,2.5H5.77L0,-5Z" style="opacity: 1; stroke-width: 1px; fill: rgb(107, 114, 128); fill-opacity: 1; stroke: rgb(255, 255, 255); stroke-opacity: 1;"/><path class="point" transform="translate(639.75,413.52)" d="M-5.77,2.5H5.77L0,-5Z" style="opacity: 1; stroke-width: 1px; fill: rgb(107, 114, 128); fill-opacity: 1; stroke: rgb(255, 255, 255); stroke-opacity: 1;"/></g><g class="text"/></g></g></g></g><g class="zerolinelayer-above"/><path class="xlines-above crisp" d="" style="fill: none; stroke-width: 1px; stroke: rgb(0, 0, 0); stroke-opacity: 0;"/><path class="ylines-above crisp" d="" style="fill: none; stroke-width: 1px; stroke: rgb(0, 0, 0); stroke-opacity: 0;"/><g class="overlines-above"/><g class="xaxislayer-above"><path class="xtick ticks crisp" d="M0,541v5" transform="translate(85.75,0)" style="stroke: rgb(107, 114, 128); stroke-opacity: 1; stroke-width: 1px;"/><path class="xtick ticks crisp" d="M0,541v5" transform="translate(120.25,0)" style="stroke: rgb(107, 114, 128); stroke-opacity: 1; stroke-width: 1px;"/><path class="xtick ticks crisp" d="M0,541v5" transform="translate(148.44,0)" style="stroke: rgb(107, 114, 128); stroke-opacity: 1; stroke-width: 1px;"/><path class="xtick ticks crisp" d="M0,541v5" transform="translate(172.26999999999998,0)" style="stroke: rgb(107, 114, 128); stroke-opacity: 1; stroke-width: 1px;"/><path class="xtick ticks crisp" d="M0,541v5" transform="translate(192.92000000000002,0)" style="stroke: rgb(107, 114, 128); stroke-opacity: 1; stroke-width: 1px;"/><path class="xtick ticks crisp" d="M0,541v5" transform="translate(211.13,0)" style="stroke: rgb(107, 114, 128); stroke-opacity: 1; stroke-width: 1px;"/><path class="xtick ticks crisp" d="M0,541v5" transform="translate(227.42,0)" style="stroke: rgb(107, 114, 128); stroke-opacity: 1; stroke-width: 1px;"/><path class="xtick ticks crisp" d="M0,541v5" transform="translate(334.59000000000003,0)" style="stroke: rgb(107, 114, 128); stroke-opacity: 1; stroke-width: 1px;"/><path class="xtick ticks crisp" d="M0,541v5" transform="translate(397.28,0)" style="stroke: rgb(107, 114, 128); stroke-opacity: 1; stroke-width: 1px;"/><path class="xtick ticks crisp" d="M0,541v5" transform="translate(441.76,0)" style="stroke: rgb(107, 114, 128); stroke-opacity: 1; stroke-width: 1px;"/><path class="xtick ticks crisp" d="M0,541v5" transform="translate(476.26,0)" style="stroke: rgb(107, 114, 128); stroke-opacity: 1; stroke-width: 1px;"/><path class="xtick ticks crisp" d="M0,541v5" transform="translate(504.45,0)" style="stroke: rgb(107, 114, 128); stroke-opacity: 1; stroke-width: 1px;"/><path class="xtick ticks crisp" d="M0,541v5" transform="translate(528.28,0)" style="stroke: rgb(107, 114, 128); stroke-opacity: 1; stroke-width: 1px;"/><path class="xtick ticks crisp" d="M0,541v5" transform="translate(548.9300000000001,0)" style="stroke: rgb(107, 114, 128); stroke-opacity: 1; stroke-width: 1px;"/><path class="xtick ticks crisp" d="M0,541v5" transform="translate(567.14,0)" style="stroke: rgb(107, 114, 128); stroke-opacity: 1; stroke-width: 1px;"/><path class="xtick ticks crisp" d="M0,541v5" transform="translate(583.4300000000001,0)" style="stroke: rgb(107, 114, 128); stroke-opacity: 1; stroke-width: 1px;"/><path class="xtick ticks crisp" d="M0,541v5" transform="translate(690.6,0)" style="stroke: rgb(107, 114, 128); stroke-opacity: 1; stroke-width: 1px;"/><path class="xtick ticks crisp" d="M0,541v5" transform="translate(753.29,0)" style="stroke: rgb(107, 114, 128); stroke-opacity: 1; stroke-width: 1px;"/><g class="xtick"><text text-anchor="middle" x="0" y="555.5" transform="translate(85.75,0)" style="font-family: 'Times New Roman', serif; font-size: 7.5px; fill: rgb(44, 62, 80); fill-opacity: 1; white-space: pre;">4</text></g><g class="xtick"><text text-anchor="middle" x="0" y="555.5" style="font-family: 'Times New Roman', serif; font-size: 7.5px; fill: rgb(44, 62, 80); fill-opacity: 1; white-space: pre;" transform="translate(120.25,0)">5</text></g><g class="xtick"><text text-anchor="middle" x="0" y="555.5" style="font-family: 'Times New Roman', serif; font-size: 7.5px; fill: rgb(44, 62, 80); fill-opacity: 1; white-space: pre;" transform="translate(148.44,0)">6</text></g><g class="xtick"><text text-anchor="middle" x="0" y="555.5" style="font-family: 'Times New Roman', serif; font-size: 7.5px; fill: rgb(44, 62, 80); fill-opacity: 1; white-space: pre;" transform="translate(172.26999999999998,0)">7</text></g><g class="xtick"><text text-anchor="middle" x="0" y="555.5" style="font-family: 'Times New Roman', serif; font-size: 7.5px; fill: rgb(44, 62, 80); fill-opacity: 1; white-space: pre;" transform="translate(192.92000000000002,0)">8</text></g><g class="xtick"><text text-anchor="middle" x="0" y="555.5" style="font-family: 'Times New Roman', serif; font-size: 7.5px; fill: rgb(44, 62, 80); fill-opacity: 1; white-space: pre;" transform="translate(211.13,0)">9</text></g><g class="xtick"><text text-anchor="middle" x="2.5" y="563" style="font-family: 'Times New Roman', serif; font-size: 10px; fill: rgb(44, 62, 80); fill-opacity: 1; white-space: pre;" transform="translate(227.42,0)">100</text></g><g class="xtick"><text text-anchor="middle" x="0" y="555.5" style="font-family: 'Times New Roman', serif; font-size: 7.5px; fill: rgb(44, 62, 80); fill-opacity: 1; white-space: pre;" transform="translate(334.59000000000003,0)">2</text></g><g class="xtick"><text text-anchor="middle" x="0" y="555.5" style="font-family: 'Times New Roman', serif; font-size: 7.5px; fill: rgb(44, 62, 80); fill-opacity: 1; white-space: pre;" transform="translate(397.28,0)">3</text></g><g class="xtick"><text text-anchor="middle" x="0" y="555.5" style="font-family: 'Times New Roman', serif; font-size: 7.5px; fill: rgb(44, 62, 80); fill-opacity: 1; white-space: pre;" transform="translate(441.76,0)">4</text></g><g class="xtick"><text text-anchor="middle" x="0" y="555.5" style="font-family: 'Times New Roman', serif; font-size: 7.5px; fill: rgb(44, 62, 80); fill-opacity: 1; white-space: pre;" transform="translate(476.26,0)">5</text></g><g class="xtick"><text text-anchor="middle" x="0" y="555.5" style="font-family: 'Times New Roman', serif; font-size: 7.5px; fill: rgb(44, 62, 80); fill-opacity: 1; white-space: pre;" transform="translate(504.45,0)">6</text></g><g class="xtick"><text text-anchor="middle" x="0" y="555.5" style="font-family: 'Times New Roman', serif; font-size: 7.5px; fill: rgb(44, 62, 80); fill-opacity: 1; white-space: pre;" transform="translate(528.28,0)">7</text></g><g class="xtick"><text text-anchor="middle" x="0" y="555.5" style="font-family: 'Times New Roman', serif; font-size: 7.5px; fill: rgb(44, 62, 80); fill-opacity: 1; white-space: pre;" transform="translate(548.9300000000001,0)">8</text></g><g class="xtick"><text text-anchor="middle" x="0" y="555.5" style="font-family: 'Times New Roman', serif; font-size: 7.5px; fill: rgb(44, 62, 80); fill-opacity: 1; white-space: pre;" transform="translate(567.14,0)">9</text></g><g class="xtick"><text text-anchor="middle" x="2.5" y="563" style="font-family: 'Times New Roman', serif; font-size: 10px; fill: rgb(44, 62, 80); fill-opacity: 1; white-space: pre;" transform="translate(583.4300000000001,0)">1000</text></g><g class="xtick"><text text-anchor="middle" x="0" y="555.5" style="font-family: 'Times New Roman', serif; font-size: 7.5px; fill: rgb(44, 62, 80); fill-opacity: 1; white-space: pre;" transform="translate(690.6,0)">2</text></g><g class="xtick"><text text-anchor="middle" x="0" y="555.5" style="font-family: 'Times New Roman', serif; font-size: 7.5px; fill: rgb(44, 62, 80); fill-opacity: 1; white-space: pre;" transform="translate(753.29,0)">3</text></g></g><g class="yaxislayer-above"><path class="ytick ticks crisp" d="M79,0h-5" transform="translate(0,511.03)" style="stroke: rgb(107, 114, 128); stroke-opacity: 1; stroke-width: 1px;"/><path class="ytick ticks crisp" d="M79,0h-5" transform="translate(0,423.05)" style="stroke: rgb(107, 114, 128); stroke-opacity: 1; stroke-width: 1px;"/><path class="ytick ticks crisp" d="M79,0h-5" transform="translate(0,335.08)" style="stroke: rgb(107, 114, 128); stroke-opacity: 1; stroke-width: 1px;"/><path class="ytick ticks crisp" d="M79,0h-5" transform="translate(0,247.11)" style="stroke: rgb(107, 114, 128); stroke-opacity: 1; stroke-width: 1px;"/><path class="ytick ticks crisp" d="M79,0h-5" transform="translate(0,159.13)" style="stroke: rgb(107, 114, 128); stroke-opacity: 1; stroke-width: 1px;"/><path class="ytick ticks crisp" d="M79,0h-5" transform="translate(0,71.16)" style="stroke: rgb(107, 114, 128); stroke-opacity: 1; stroke-width: 1px;"/><g class="ytick"><text text-anchor="end" x="72" y="3.5" transform="translate(0,511.03)" style="font-family: 'Times New Roman', serif; font-size: 10px; fill: rgb(44, 62, 80); fill-opacity: 1; white-space: pre;">3</text></g><g class="ytick"><text text-anchor="end" x="72" y="3.5" style="font-family: 'Times New Roman', serif; font-size: 10px; fill: rgb(44, 62, 80); fill-opacity: 1; white-space: pre;" transform="translate(0,423.05)">4</text></g><g class="ytick"><text text-anchor="end" x="72" y="3.5" style="font-family: 'Times New Roman', serif; font-size: 10px; fill: rgb(44, 62, 80); fill-opacity: 1; white-space: pre;" transform="translate(0,335.08)">5</text></g><g class="ytick"><text text-anchor="end" x="72" y="3.5" style="font-family: 'Times New Roman', serif; font-size: 10px; fill: rgb(44, 62, 80); fill-opacity: 1; white-space: pre;" transform="translate(0,247.11)">6</text></g><g class="ytick"><text text-anchor="end" x="72" y="3.5" style="font-family: 'Times New Roman', serif; font-size: 10px; fill: rgb(44, 62, 80); fill-opacity: 1; white-space: pre;" transform="translate(0,159.13)">7</text></g><g class="ytick"><text text-anchor="end" x="72" y="3.5" style="font-family: 'Times New Roman', serif; font-size: 10px; fill: rgb(44, 62, 80); fill-opacity: 1; white-space: pre;" transform="translate(0,71.16)">8</text></g></g><g class="overaxes-above"/></g></g><g class="polarlayer"/><g class="smithlayer"/><g class="ternarylayer"/><g class="geolayer"/><g class="funnelarealayer"/><g class="pielayer"/><g class="iciclelayer"/><g class="treemaplayer"/><g class="sunburstlayer"/><g class="glimages"/><defs id="topdefs-9e5a03"><g class="clips"/></defs><g class="layer-above"><g class="imagelayer"/><g class="shapelayer"/></g><g class="infolayer"><g class="g-gtitle"><text class="gtitle" x="400" y="30" text-anchor="middle" dy="0em" style="opacity: 1; font-family: 'Times New Roman', serif; font-size: 13px; fill: rgb(44, 62, 80); fill-opacity: 1; white-space: pre;"><tspan class="line" dy="0em" x="400" y="30">A401 Temperature Profile</tspan><tspan class="line" dy="1.3em" x="400" y="30">​<tspan style="font-size:70%" dy="0.3em">Merging | z = 0.0748 | M​<tspan style="font-size:70%" dy="0.3em">500</tspan><tspan dy="-0.21em">​</tspan> = 6.20e+14 M​<tspan style="font-size:70%" dy="0.3em">☉</tspan><tspan dy="-0.21em">​</tspan></tspan><tspan dy="-0.21em">​</tspan></tspan></text></g><g class="g-xtitle"><text class="xtitle" x="420" y="583" text-anchor="middle" style="opacity: 1; font-family: 'Times New Roman', serif; font-size: 11px; fill: rgb(44, 62, 80); fill-opacity: 1; white-space: pre;">Radius [kpc]</text></g><g class="g-ytitle"><text class="ytitle" transform="rotate(-90,48,300)" x="48" y="300" text-anchor="middle" style="opacity: 1; font-family: 'Times New Roman', serif; font-size: 11px; fill: rgb(44, 62, 80); fill-opacity: 1; white-space: pre;">Temperature [keV]</text></g></g></svg>