<svg class="main-svg" xmlns="http://www.w3.org/2000/svg" xmlns:xlink="http://www.w3.org/1999/xlink" width="800" height="600" style="" viewBox="0 0 800 600"><rect x="0" y="0" width="800" height="600" style="fill: rgb(255, 255, 255); fill-opacity: 1;"/><defs id="defs-f15994"><g class="clips"><clipPath id="clipf15994xyplot" class="plotclip"><rect width="680" height="480"/></clipPath><clipPath class="axesclip" id="clipf15994x"><rect x="80" y="0" width="680" height="600"/></clipPath><clipPath class="axesclip" id="clipf15994y"><rect x="0" y="60" width="800" height="480"/></clipPath><clipPath class="axesclip" id="clipf15994xy"><rect x="80" y="60" width="680" height="480"/></clipPath></g><g class="gradients"/><g class="patterns"/></defs><g class="bglayer"/><g class="layer-below"><g class="imagelayer"/><g class="shapelayer"/></g><g class="cartesianlayer"><g class="subplot xy"><g class="layer-subplot"><g class="shapelayer"/><g class="imagelayer"/></g><g class="minor-gridlayer"><g class="x"/><g class="y"/></g><g class="gridlayer"><g class="x"><path class="xgrid crisp" transform="translate(88.66,0)" d="M0,60v480" style="stroke: rgb(229, 231, 235); stroke-opacity: 1; stroke-width: 0.5px;"/><path class="xgrid crisp" transform="translate(120.25,0)" d="M0,60v480" style="stroke: rgb(229, 231, 235); stroke-opacity: 1; stroke-width: 0.5px;"/><path class="xgrid crisp" transform="translate(146.06,0)" d="M0,60v480" style="stroke: rgb(229, 231, 235); stroke-opacity: 1; stroke-width: 0.5px;"/><path class="xgrid crisp" transform="translate(167.89,0)" d="M0,60v480" style="stroke: rgb(229, 231, 235); stroke-opacity: 1; stroke-width: 0.5px;"/><path class="xgrid crisp" transform="translate(186.8,0)" d="M0,60v480" style="stroke: rgb(229, 231, 235); stroke-opacity: 1; stroke-width: 0.5px;"/><path class="xgrid crisp" transform="translate(203.47,0)" d="M0,60v480" style="stroke: rgb(229, 231, 235); stroke-opacity: 1; stroke-width: 0.5px;"/><path class="xgrid crisp" transform="translate(218.39,0)" d="M0,60v480" style="stroke: rgb(229, 231, 235); stroke-opacity: 1; stroke-width: 0.5px;"/><path class="xgrid crisp" transform="translate(316.53,0)" d="M0,60v480" style="stroke: rgb(229, 231, 235); stroke-opacity: 1; stroke-width: 0.5px;"/><path class="xgrid crisp" transform="translate(373.94,0)" d="M0,60v480" style="stroke: rgb(229, 231, 235); stroke-opacity: 1; stroke-width: 0.5px;"/><path class="xgrid crisp" transform="translate(414.67,0)" d="M0,60v480" style="stroke: rgb(229, 231, 235); stroke-opacity: 1; stroke-width: 0.5px;"/><path class="xgrid crisp" transform="translate(446.27,0)" d="M0,60v480" style="stroke: rgb(229, 231, 235); stroke-opacity: 1; stroke-width: 0.5px;"/><path class="xgrid crisp" transform="translate(472.08,0)" d="M0,60v480" style="stroke: rgb(229, 231, 235); stroke-opacity: 1; stroke-width: 0.5px;"/><path class="xgrid crisp" transform="translate(493.91,0)" d="M0,60v480" style="stroke: rgb(229, 231, 235); stroke-opacity: 1; stroke-width: 0.5px;"/><path class="xgrid crisp" transform="translate(512.8199999999999,0)" d="M0,60v480" style="stroke: rgb(229, 231, 235); stroke-opacity: 1; stroke-width: 0.5px;"/><path class="xgrid crisp" transform="translate(529.49,0)" d="M0,60v480" style="stroke: rgb(229, 231, 235); stroke-opacity: 1; stroke-width: 0.5px;"/><path class="xgrid crisp" transform="translate(544.4100000000001,0)" d="M0,60v480" style="stroke: rgb(229, 231, 235); stroke-opacity: 1; stroke-width: 0.5px;"/><path class="xgrid crisp" transform="translate(642.55,0)" d="M0,60v480" style="stroke: rgb(229, 231, 235); stroke-opacity: 1; stroke-width: 0.5px;"/><path class="xgrid crisp" transform="translate(699.96,0)" d="M0,60v480" style="stroke: rgb(229, 231, 235); stroke-opacity: 1; stroke-width: 0.5px;"/><path class="xgrid crisp" transform="translate(740.69,0)" d="M0,60v480" style="stroke: rgb(229, 231, 235); stroke-opacity: 1; stroke-width: 0.5px;"/></g><g class="y"><path class="ygrid crisp" transform="translate(0,492.87)" d="M80,0h680" style="stroke: rgb(229, 231, 235); stroke-opacity: 1; stroke-width: 0.5px;"/><path class="ygrid crisp" transform="translate(0,403.29)" d="M80,0h680" style="stroke: rgb(229, 231, 235); stroke-opacity: 1; stroke-width: 0.5px;"/><path class="ygrid crisp" transform="translate(0,313.7)" d="M80,0h680" style="stroke: rgb(229, 231, 235); stroke-opacity: 1; stroke-width: 0.5px;"/><path class="ygrid crisp" transform="translate(0,224.12)" d="M80,0h680" style="stroke: rgb(229, 231, 235); stroke-opacity: 1; stroke-width: 0.5px;"/><path class="ygrid crisp" transform="translate(0,134.54000000000002)" d="M80,0h680" style="stroke: rgb(229, 231, 235); stroke-opacity: 1; stroke-width: 0.5px;"/></g></g><g class="zerolinelayer"/><g class="layer-between"><g class="shapelayer"/><g class="imagelayer"/></g><path class="xlines-below"/><path class="ylines-below"/><g class="overlines-below"/><g class="xaxislayer-below"/><g class="yaxislayer-below"/><g class="overaxes-below"/><g class="overplot"><g class="xy" transform="translate(80,60)" clip-path="url(#clipf15994xyplot)"><g class="scatterlayer mlayer"><g class="trace scatter tracefeb698" style="stroke-miterlimit: 2; opacity: 1;"><g class="fills"/><g class="errorbars"><g class="errorbar"><path class="yerror" d="M35.25,24h10m-5,0V115.08m-5,0h10" style="vector-effect: none; stroke-width: 1.6px; stroke: rgb(156, 163, 175); stroke-opacity: 1;"/></g><g class="errorbar"><path class="yerror" d="M89.75,55.66h10m-5,0V143.71m-5,0h10" style="vector-effect: none; stroke-width: 1.6px; stroke: rgb(156, 163, 175); stroke-opacity: 1;"/></g><g class="errorbar"><path class="yerror" d="M144.25,71.5h10m-5,0V154.65m-5,0h10" style="vector-effect: none; stroke-width: 1.6px; stroke: rgb(156, 163, 175); stroke-opacity: 1;"/></g><g class="errorbar"><path class="yerror" d="M198.75,93.34h10m-5,0V169.78m-5,0h10" style="vector-effect: none; stroke-width: 1.6px; stroke: rgb(156, 163, 175); stroke-opacity: 1;"/></g><g class="errorbar"><path class="yerror" d="M253.25,165.87h10m-5,0V234.6m-5,0h10" style="vector-effect: none; stroke-width: 1.6px; stroke: rgb(156, 163, 175); stroke-opacity: 1;"/></g><g class="errorbar"><path class="yerror" d="M307.75,202.53h10m-5,0V263.54m-5,0h10" style="vector-effect: none; stroke-width: 1.6px; stroke: rgb(156, 163, 175); stroke-opacity: 1;"/></g><g class="errorbar"><path class="yerror" d="M362.25,261.1h10m-5,0V315.06m-5,0h10" style="vector-effect: none; stroke-width: 1.6px; stroke: rgb(156, 163, 175); stroke-opacity: 1;"/></g><g class="errorbar"><path class="yerror" d="M416.75,305.91h10m-5,0V353.77m-5,0h10" style="vector-effect: none; stroke-width: 1.6px; stroke: rgb(156, 163, 175); stroke-opacity: 1;"/></g><g class="errorbar"><path class="yerror" d="M471.25,348.95h10m-5,0V391.65m-5,0h10" style="vector-effect: none; stroke-width: 1.6px; stroke: rgb(156, 163, 175); stroke-opacity: 1;"/></g><g class="errorbar"><path class="yerror" d="M525.75,382.4h10m-5,0V420.78m-5,0h10" style="vector-effect: none; stroke-width: 1.6px; stroke: rgb(156, 163, 175); stroke-opacity: 1;"/></g><g class="errorbar"><path class="yerror" d="M580.25,402.65h10m-5,0V437.47m-5,0h10" style="vector-effect: none; stroke-width: 1.6px; stroke: rgb(156, 163, 175); stroke-opacity: 1;"/></g><g class="errorbar"><path class="yerror" d="M634.75,424.14h10m-5,0V456m-5,0h10" style="vector-effect: none; stroke-width: 1.6px; stroke: rgb(156, 163, 175); stroke-opacity: 1;"/></g></g><g class="lines"><path class="js-line" d="M40.25,69.54L94.75,99.69L149.25,113.08L203.75,131.56L258.25,200.24L312.75,233.04L367.25,288.08L421.75,329.84L476.25,370.3L530.75,401.59L585.25,420.06L639.75,440.07" style="vector-effect: none; fill: none; stroke: rgb(156, 163, 175); stroke-opacity: 1; stroke-dasharray: 3px, 3px; stroke-width: 1.2px; opacity: 1;"/></g><g class="points"><path class="point" transform="translate(40.25,69.54)" d="M6,2H2V6H-2V2H-6V-2H-2V-6H2V-2H6Z" style="opacity: 1; stroke-width: 1px; fill: rgb(156, 163, 175); fill-opacity: 1; stroke: rgb(255, 255, 255); stroke-opacity: 1;"/><path class="point" transform="translate(94.75,99.69)" d="M6,2H2V6H-2V2H-6V-2H-2V-6H2V-2H6Z" style="opacity: 1; stroke-width: 1px; fill: rgb(156, 163, 175); fill-opacity: 1; stroke: rgb(255, 255, 255); stroke-opacity: 1;"/><path class="point" transform="translate(149.25,113.08)" d="M6,2H2V6H-2V2H-6V-2H-2V-6H2V-2H6Z" style="opacity: 1; stroke-width: 1px; fill: rgb(156, 163, 175); fill-opacity: 1; stroke: rgb(255, 255, 255); stroke-opacity: 1;"/><path class="point" transform="translate(203.75,131.56)" d="M6,2H2V6H-2V2H-6V-2H-2V-6H2V-2H6Z" style="opacity: 1; stroke-width: 1px; fill: rgb(156, 163, 175); fill-opacity: 1; stroke: rgb(255, 255, 255); stroke-opacity: 1;"/><path class="point" transform="translate(258.25,200.24)" d="M6,2H2V6H-2V2H-6V-2H-2V-6H2V-2H6Z" style="opacity: 1; stroke-width: 1px; fill: rgb(156, 163, 175); fill-opacity: 1; stroke: rgb(255, 255, 255); stroke-opacity: 1;"/><path class="point" transform="translate(312.75,233.04)" d="M6,2H2V6H-2V2H-6V-2H-2V-6H2V-2H6Z" style="opacity: 1; stroke-width: 1px; fill: rgb(156, 163, 175); fill-opacity: 1; stroke: rgb(255, 255, 255); stroke-opacity: 1;"/><path class="point" transform="translate(367.25,288.08)" d="M6,2H2V6H-2V2H-6V-2H-2V-6H2V-2H6Z" style="opacity: 1; stroke-width: 1px; fill: rgb(156, 163, 175); fill-opacity: 1; stroke: rgb(255, 255, 255); stroke-opacity: 1;"/><path class="point" transform="translate(421.75,329.84)" d="M6,2H2V6H-2V2H-6V-2H-2V-6H2V-2H6Z" style="opacity: 1; stroke-width: 1px; fill: rgb(156, 163, 175); fill-opacity: 1; stroke: rgb(255, 255, 255); stroke-opacity: 1;"/><path class="point" transform="translate(476.25,370.3)" d="M6,2H2V6H-2V2H-6V-2H-2V-6H2V-2H6Z" style="opacity: 1; stroke-width: 1px; fill: rgb(156, 163, 175); fill-opacity: 1; stroke: rgb(255, 255, 255); stroke-opacity: 1;"/><path class="point" transform="translate(530.75,401.59)" d="M6,2H2V6H-2V2H-6V-2H-2V-6H2V-2H6Z" style="opacity: 1; stroke-width: 1px; fill: rgb(156, 163, 175); fill-opacity: 1; stroke: rgb(255, 255, 255); stroke-opacity: 1;"/><path class="point" transform="translate(585.25,420.06)" d="M6,2H2V6H-2V2H-6V-2H-2V-6H2V-2H6Z" style="opacity: 1; stroke-width: 1px; fill: rgb(156, 163, 175); fill-opacity: 1; stroke: rgb(255, 255, 255); stroke-opacity: 1;"/><path class="point" transform="translate(639.75,440.07)" d="M6,2H2V6H-2V2H-6V-2H-2V-6H2V-2H6Z" style="opacity: 1; stroke-width: 1px; fill: rgb(156, 163, 175); fill-opacity: 1; stroke: rgb(255, 255, 255); stroke-opacity: 1;"/></g><g class="text"/></g></g></g></g><g class="zerolinelayer-above"/><path class="xlines-above crisp" d="" style="fill: none; stroke-width: 1px; stroke: rgb(0, 0, 0); stroke-opacity: 0;"/><path class="ylines-above crisp" d="" style="fill: none; stroke-width: 1px; stroke: rgb(0, 0, 0); stroke-opacity: 0;"/><g class="overlines-above"/><g class="xaxislayer-above"><path class="xtick ticks crisp" d="M0,541v5" transform="translate(88.66,0)" style="stroke: rgb(107, 114, 128); stroke-opacity: 1; stroke-width: 1px;"/><path class="xtick ticks crisp" d="M0,541v5" transform="translate(120.25,0)" style="stroke: rgb(107, 114, 128); stroke-opacity: 1; stroke-width: 1px;"/><path class="xtick ticks crisp" d="M0,541v5" transform="translate(146.06,0)" style="stroke: rgb(107, 114, 128); stroke-opacity: 1; stroke-width: 1px;"/><path class="xtick ticks crisp" d="M0,541v5" transform="translate(167.89,0)" style="stroke: rgb(107, 114, 128); stroke-opacity: 1; stroke-width: 1px;"/><path class="xtick ticks crisp" d="M0,541v5" transform="translate(186.8,0)" style="stroke: rgb(107, 114, 128); stroke-opacity: 1; stroke-width: 1px;"/><path class="xtick ticks crisp" d="M0,541v5" transform="translate(203.47,0)" style="stroke: rgb(107, 114, 128); stroke-opacity: 1; stroke-width: 1px;"/><path class="xtick ticks crisp" d="M0,541v5" transform="translate(218.39,0)" style="stroke: rgb(107, 114, 128); stroke-opacity: 1; stroke-width: 1px;"/><path class="xtick ticks crisp" d="M0,541v5" transform="translate(316.53,0)" style="stroke: rgb(107, 114, 128); stroke-opacity: 1; stroke-width: 1px;"/><path class="xtick ticks crisp" d="M0,541v5" transform="translate(373.94,0)" style="stroke: rgb(107, 114, 128); stroke-opacity: 1; stroke-width: 1px;"/><path class="xtick ticks crisp" d="M0,541v5" transform="translate(414.67,0)" style="stroke: rgb(107, 114, 128); stroke-opacity: 1; stroke-width: 1px;"/><path class="xtick ticks crisp" d="M0,541v5" transform="translate(446.27,0)" style="stroke: rgb(107, 114, 128); stroke-opacity: 1; stroke-width: 1px;"/><path class="xtick ticks crisp" d="M0,541v5" transform="translate(472.08,0)" style="stroke: rgb(107, 114, 128); stroke-opacity: 1; stroke-width: 1px;"/><path class="xtick ticks crisp" d="M0,541v5" transform="translate(493.91,0)" style="stroke: rgb(107, 114, 128); stroke-opacity: 1; stroke-width: 1px;"/><path class="xtick ticks crisp" d="M0,541v5" transform="translate(512.8199999999999,0)" style="stroke: rgb(107, 114, 128); stroke-opacity: 1; stroke-width: 1px;"/><path class="xtick ticks crisp" d="M0,541v5" transform="translate(529.49,0)" style="stroke: rgb(107, 114, 128); stroke-opacity: 1; stroke-width: 1px;"/><path class="xtick ticks crisp" d="M0,541v5" transform="translate(544.4100000000001,0)" style="stroke: rgb(107, 114, 128); stroke-opacity: 1; stroke-width: 1px;"/><path class="xtick ticks crisp" d="M0,541v5" transform="translate(642.55,0)" style="stroke: rgb(107, 114, 128); stroke-opacity: 1; stroke-width: 1px;"/><path class="xtick ticks crisp" d="M0,541v5" transform="translate(699.96,0)" style="stroke: rgb(107, 114, 128); stroke-opacity: 1; stroke-width: 1px;"/><path class="xtick ticks crisp" d="M0,541v5" transform="translate(740.69,0)" style="stroke: rgb(107, 114, 128); stroke-opacity: 1; stroke-width: 1px;"/><g class="xtick"><text text-anchor="middle" x="0" y="555.5" transform="translate(88.66,0)" style="font-family: 'Times New Roman', serif; font-size: 7.5px; fill: rgb(44, 62, 80); fill-opacity: 1; white-space: pre;">4</text></g><g class="xtick"><text text-anchor="middle" x="0" y="555.5" style="font-family: 'Times New Roman', serif; font-size: 7.5px; fill: rgb(44, 62, 80); fill-opacity: 1; white-space: pre;" transform="translate(120.25,0)">5</text></g><g class="xtick"><text text-anchor="middle" x="0" y="555.5" style="font-family: 'Times New Roman', serif; font-size: 7.5px; fill: rgb(44, 62, 80); fill-opacity: 1; white-space: pre;" transform="translate(146.06,0)">6</text></g><g class="xtick"><text text-anchor="middle" x="0" y="555.5" style="font-family: 'Times New Roman', serif; font-size: 7.5px; fill: rgb(44, 62, 80); fill-opacity: 1; white-space: pre;" transform="translate(167.89,0)">7</text></g><g class="xtick"><text text-anchor="middle" x="0" y="555.5" style="font-family: 'Times New Roman', serif; font-size: 7.5px; fill: rgb(44, 62, 80); fill-opacity: 1; white-space: pre;" transform="translate(186.8,0)">8</text></g><g class="xtick"><text text-anchor="middle" x="0" y="555.5" style="font-family: 'Times New Roman', serif; font-size: 7.5px; fill: rgb(44, 62, 80); fill-opacity: 1; white-space: pre;" transform="translate(203.47,0)">9</text></g><g class="xtick"><text text-anchor="middle" x="2.5" y="563" style="font-family: 'Times New Roman', serif; font-size: 10px; fill: rgb(44, 62, 80); fill-opacity: 1; white-space: pre;" transform="translate(218.39,0)">100</text></g><g class="xtick"><text text-anchor="middle" x="0" y="555.5" style="font-family: 'Times New Roman', serif; font-size: 7.5px; fill: rgb(44, 62, 80); fill-opacity: 1; white-space: pre;" transform="translate(316.53,0)">2</text></g><g class="xtick"><text text-anchor="middle" x="0" y="555.5" style="font-family: 'Times New Roman', serif; font-size: 7.5px; fill: rgb(44, 62, 80); fill-opacity: 1; white-space: pre;" transform="translate(373.94,0)">3</text></g><g class="xtick"><text text-anchor="middle" x="0" y="555.5" style="font-family: 'Times New Roman', serif; font-size: 7.5px; fill: rgb(44, 62, 80); fill-opacity: 1; white-space: pre;" transform="translate(414.67,0)">4</text></g><g class="xtick"><text text-anchor="middle" x="0" y="555.5" style="font-family: 'Times New Roman', serif; font-size: 7.5px; fill: rgb(44, 62, 80); fill-opacity: 1; white-space: pre;" transform="translate(446.27,0)">5</text></g><g class="xtick"><text text-anchor="middle" x="0" y="555.5" style="font-family: 'Times New Roman', serif; font-size: 7.5px; fill: rgb(44, 62, 80); fill-opacity: 1; white-space: pre;" transform="translate(472.08,0)">6</text></g><g class="xtick"><text text-anchor="middle" x="0" y="555.5" style="font-family: 'Times New Roman', serif; font-size: 7.5px; fill: rgb(44, 62, 80); fill-opacity: 1; white-space: pre;" transform="translate(493.91,0)">7</text></g><g class="xtick"><text text-anchor="middle" x="0" y="555.5" style="font-family: 'Times New Roman', serif; font-size: 7.5px; fill: rgb(44, 62, 80); fill-opacity: 1; white-space: pre;" transform="translate(512.8199999999999,0)">8</text></g><g class="xtick"><text text-anchor="middle" x="0" y="555.5" style="font-family: 'Times New Roman', serif; font-size: 7.5px; fill: rgb(44, 62, 80); fill-opacity: 1; white-space: pre;" transform="translate(529.49,0)">9</text></g><g class="xtick"><text text-anchor="middle" x="2.5" y="563" style="font-family: 'Times New Roman', serif; font-size: 10px; fill: rgb(44, 62, 80); fill-opacity: 1; white-space: pre;" transform="translate(544.4100000000001,0)">1000</text></g><g class="xtick"><text text-anchor="middle" x="0" y="555.5" style="font-family: 'Times New Roman', serif; font-size: 7.5px; fill: rgb(44, 62, 80); fill-opacity: 1; white-space: pre;" transform="translate(642.55,0)">2</text></g><g class="xtick"><text text-anchor="middle" x="0" y="555.5" style="font-family: 'Times New Roman', serif; font-size: 7.5px; fill: rgb(44, 62, 80); fill-opacity: 1; white-space: pre;" transform="translate(699.96,0)">3</text></g><g class="xtick"><text text-anchor="middle" x="0" y="555.5" style="font-family: 'Times New Roman', serif; font-size: 7.5px; fill: rgb(44, 62, 80); fill-opacity: 1; white-space: pre;" transform="translate(740.69,0)">4</text></g></g><g class="yaxislayer-above"><path class="ytick ticks crisp" d="M79,0h-5" transform="translate(0,492.87)" style="stroke: rgb(107, 114, 128); stroke-opacity: 1; stroke-width: 1px;"/><path class="ytick ticks crisp" d="M79,0h-5" transform="translate(0,403.29)" style="stroke: rgb(107, 114, 128); stroke-opacity: 1; stroke-width: 1px;"/><path class="ytick ticks crisp" d="M79,0h-5" transform="translate(0,313.7)" style="stroke: rgb(107, 114, 128); stroke-opacity: 1; stroke-width: 1px;"/><path class="ytick ticks crisp" d="M79,0h-5" transform="translate(0,224.12)" style="stroke: rgb(107, 114, 128); stroke-opacity: 1; stroke-width: 1px;"/><path class="ytick ticks crisp" d="M79,0h-5" transform="translate(0,134.54000000000002)" style="stroke: rgb(107, 114, 128); stroke-opacity: 1; stroke-width: 1px;"/><g class="ytick"><text text-anchor="end" x="72" y="3.5" transform="translate(0,492.87)" style="font-family: 'Times New Roman', serif; font-size: 10px; fill: rgb(44, 62, 80); fill-opacity: 1; white-space: pre;">2</text></g><g class="ytick"><text text-anchor="end" x="72" y="3.5" style="font-family: 'Times New Roman', serif; font-size: 10px; fill: rgb(44, 62, 80); fill-opacity: 1; white-space: pre;" transform="translate(0,403.29)">4</text></g><g class="ytick"><text text-anchor="end" x="72" y="3.5" style="font-family: 'Times New Roman', serif; font-size: 10px; fill: rgb(44, 62, 80); fill-opacity: 1; white-space: pre;" transform="translate(0,313.7)">6</text></g><g class="ytick"><text text-anchor="end" x="72" y="3.5" style="font-family: 'Times New Roman', serif; font-size: 10px; fill: rgb(44, 62, 80); fill-opacity: 1; white-space: pre;" transform="translate(0,224.12)">8</text></g><g class="ytick"><text text-anchor="end" x="72" y="3.5" style="font-family: 'Times New Roman', serif; font-size: 10px; fill: rgb(44, 62, 80); fill-opacity: 1; white-space: pre;" transform="translate(0,134.54000000000002)">10</text></g></g><g class="overaxes-above"/></g></g><g class="polarlayer"/><g class="smithlayer"/><g class="ternarylayer"/><g class="geolayer"/><g class="funnelarealayer"/><g class="pielayer"/><g class="iciclelayer"/><g class="treemaplayer"/><g class="sunburstlayer"/><g class="glimages"/><defs id="topdefs-f15994"><g class="clips"/></defs><g class="layer-above"><g class="imagelayer"/><g class="shapelayer"/></g><g class="infolayer"><g class="g-gtitle"><text class="gtitle" x="400" y="30" text-anchor="middle" dy="0em" style="opacity: 1; font-family: 'Times New Roman', serif; font-size: 13px; fill: rgb(44, 62, 80); fill-opacity: 1; white-space: pre;"><tspan class="line" dy="0em" x="400" y="30">Coma Temperature Profile</tspan><tspan class="line" dy="1.3em" x="400" y="30">​<tspan style="font-size:70%" dy="0.3em">Non Cool Core | z = 0.0231 | M​<tspan style="font-size:70%" dy="0.3em">500</tspan><tspan dy="-0.21em">​</tspan> = 8.40e+14 M​<tspan style="font-size:70%" dy="0.3em">☉</tspan><tspan dy="-0.21em">​</tspan></tspan><tspan dy="-0.21em">​</tspan></tspan></text></g><g class="g-xtitle"><text class="xtitle" x="420" y="583" text-anchor="middle" style="opacity: 1; font-family: 'Times New Roman', serif; font-size: 11px; fill: rgb(44, 62, 80); fill-opacity: 1; white-space: pre;">Radius [kpc]</text></g><g class="g-ytitle"><text class="ytitle" transform="rotate(-90,48,300)" x="48" y="300" text-anchor="middle" style="opacity: 1; font-family: 'Times New Roman', serif; font-size: 11px; fill: rgb(44, 62, 80); fill-opacity: 1; white-space: pre;">Temperature [keV]</text></g></g></svg>