<?xml version="1.0" encoding="utf-8" standalone="no"?>
<!DOCTYPE svg PUBLIC "-//W3C//DTD SVG 1.1//EN"
  "http://www.w3.org/Graphics/SVG/1.1/DTD/svg11.dtd">
<svg xmlns:xlink="http://www.w3.org/1999/xlink" width="541.439375pt" height="361.111875pt" viewBox="0 0 541.439375 361.111875" xmlns="http://www.w3.org/2000/svg" version="1.1">
 <metadata>
  <rdf:RDF xmlns:dc="http://purl.org/dc/elements/1.1/" xmlns:cc="http://creativecommons.org/ns#" xmlns:rdf="http://www.w3.org/1999/02/22-rdf-syntax-ns#">
   <cc:Work>
    <dc:type rdf:resource="http://purl.org/dc/dcmitype/StillImage"/>
    <dc:date>2025-10-22T11:35:17.565606</dc:date>
    <dc:format>image/svg+xml</dc:format>
    <dc:creator>
     <cc:Agent>
      <dc:title>Matplotlib v3.10.7, https://matplotlib.org/</dc:title>
     </cc:Agent>
    </dc:creator>
   </cc:Work>
  </rdf:RDF>
 </metadata>
 <defs>
  <style type="text/css">*{stroke-linejoin: round; stroke-linecap: butt}</style>
 </defs>
 <g id="figure_1">
  <g id="patch_1">
   <path d="M 0 361.111875 
L 541.439375 361.111875 
L 541.439375 -0 
L 0 -0 
z
" style="fill: #ffffff"/>
  </g>
  <g id="axes_1">
   <g id="patch_2">
    <path d="M 50.399375 313.759375 
L 534.239375 313.759375 
L 534.239375 61.759375 
L 50.399375 61.759375 
z
" style="fill: #ffffff"/>
   </g>
   <g id="matplotlib.axis_1">
    <g id="xtick_1">
     <g id="line2d_1">
      <path d="M 50.399375 313.759375 
L 50.399375 61.759375 
" clip-path="url(#p09121f9e20)" style="fill: none; stroke: #d0d5dd; stroke-linecap: square"/>
     </g>
     <g id="line2d_2">
      <defs>
       <path id="mc5a5025029" d="M 0 0 
L 0 6 
" style="stroke: #6b7380"/>
      </defs>
      <g>
       <use xlink:href="#mc5a5025029" x="50.399375" y="313.759375" style="fill: #6b7380; stroke: #6b7380"/>
      </g>
     </g>
     <g id="text_1">
      <!-- $\mathdefault{10^{1}}$ -->
      <g style="fill: #6b7380" transform="translate(41.599375 330.857812) scale(0.1 -0.1)">
       <defs>
        <path id="DejaVuSans-31" d="M 794 531 
L 1825 531 
L 1825 4091 
L 703 3866 
L 703 4441 
L 1819 4666 
L 2450 4666 
L 2450 531 
L 3481 531 
L 3481 0 
L 794 0 
L 794 531 
z
" transform="scale(0.015625)"/>
        <path id="DejaVuSans-30" d="M 2034 4250 
Q 1547 4250 1301 3770 
Q 1056 3291 1056 2328 
Q 1056 1369 1301 889 
Q 1547 409 2034 409 
Q 2525 409 2770 889 
Q 3016 1369 3016 2328 
Q 3016 3291 2770 3770 
Q 2525 4250 2034 4250 
z
M 2034 4750 
Q 2819 4750 3233 4129 
Q 3647 3509 3647 2328 
Q 3647 1150 3233 529 
Q 2819 -91 2034 -91 
Q 1250 -91 836 529 
Q 422 1150 422 2328 
Q 422 3509 836 4129 
Q 1250 4750 2034 4750 
z
" transform="scale(0.015625)"/>
       </defs>
       <use xlink:href="#DejaVuSans-31" transform="translate(0 0.684375)"/>
       <use xlink:href="#DejaVuSans-30" transform="translate(63.623047 0.684375)"/>
       <use xlink:href="#DejaVuSans-31" transform="translate(128.203125 38.965625) scale(0.7)"/>
      </g>
     </g>
    </g>
    <g id="xtick_2">
     <g id="line2d_3">
      <path d="M 245.722878 313.759375 
L 245.722878 61.759375 
" clip-path="url(#p09121f9e20)" style="fill: none; stroke: #d0d5dd; stroke-linecap: square"/>
     </g>
     <g id="line2d_4">
      <g>
       <use xlink:href="#mc5a5025029" x="245.722878" y="313.759375" style="fill: #6b7380; stroke: #6b7380"/>
      </g>
     </g>
     <g id="text_2">
      <!-- $\mathdefault{10^{2}}$ -->
      <g style="fill: #6b7380" transform="translate(236.922878 330.857812) scale(0.1 -0.1)">
       <defs>
        <path id="DejaVuSans-32" d="M 1228 531 
L 3431 531 
L 3431 0 
L 469 0 
L 469 531 
Q 828 903 1448 1529 
Q 2069 2156 2228 2338 
Q 2531 2678 2651 2914 
Q 2772 3150 2772 3378 
Q 2772 3750 2511 3984 
Q 2250 4219 1831 4219 
Q 1534 4219 1204 4116 
Q 875 4013 500 3803 
L 500 4441 
Q 881 4594 1212 4672 
Q 1544 4750 1819 4750 
Q 2544 4750 2975 4387 
Q 3406 4025 3406 3419 
Q 3406 3131 3298 2873 
Q 3191 2616 2906 2266 
Q 2828 2175 2409 1742 
Q 1991 1309 1228 531 
z
" transform="scale(0.015625)"/>
       </defs>
       <use xlink:href="#DejaVuSans-31" transform="translate(0 0.765625)"/>
       <use xlink:href="#DejaVuSans-30" transform="translate(63.623047 0.765625)"/>
       <use xlink:href="#DejaVuSans-32" transform="translate(128.203125 39.046875) scale(0.7)"/>
      </g>
     </g>
    </g>
    <g id="xtick_3">
     <g id="line2d_5">
      <path d="M 441.04638 313.759375 
L 441.04638 61.759375 
" clip-path="url(#p09121f9e20)" style="fill: none; stroke: #d0d5dd; stroke-linecap: square"/>
     </g>
     <g id="line2d_6">
      <g>
       <use xlink:href="#mc5a5025029" x="441.04638" y="313.759375" style="fill: #6b7380; stroke: #6b7380"/>
      </g>
     </g>
     <g id="text_3">
      <!-- $\mathdefault{10^{3}}$ -->
      <g style="fill: #6b7380" transform="translate(432.24638 330.857812) scale(0.1 -0.1)">
       <defs>
        <path id="DejaVuSans-33" d="M 2597 2516 
Q 3050 2419 3304 2112 
Q 3559 1806 3559 1356 
Q 3559 666 3084 287 
Q 2609 -91 1734 -91 
Q 1441 -91 1130 -33 
Q 819 25 488 141 
L 488 750 
Q 750 597 1062 519 
Q 1375 441 1716 441 
Q 2309 441 2620 675 
Q 2931 909 2931 1356 
Q 2931 1769 2642 2001 
Q 2353 2234 1838 2234 
L 1294 2234 
L 1294 2753 
L 1863 2753 
Q 2328 2753 2575 2939 
Q 2822 3125 2822 3475 
Q 2822 3834 2567 4026 
Q 2313 4219 1838 4219 
Q 1578 4219 1281 4162 
Q 984 4106 628 3988 
L 628 4550 
Q 988 4650 1302 4700 
Q 1616 4750 1894 4750 
Q 2613 4750 3031 4423 
Q 3450 4097 3450 3541 
Q 3450 3153 3228 2886 
Q 3006 2619 2597 2516 
z
" transform="scale(0.015625)"/>
       </defs>
       <use xlink:href="#DejaVuSans-31" transform="translate(0 0.765625)"/>
       <use xlink:href="#DejaVuSans-30" transform="translate(63.623047 0.765625)"/>
       <use xlink:href="#DejaVuSans-33" transform="translate(128.203125 39.046875) scale(0.7)"/>
      </g>
     </g>
    </g>
    <g id="xtick_4">
     <g id="line2d_7">
      <defs>
       <path id="m5dc553b448" d="M 0 0 
L 0 2 
" style="stroke: #000000; stroke-width: 0.6"/>
      </defs>
      <g>
       <use xlink:href="#m5dc553b448" x="109.197608" y="313.759375" style="stroke: #000000; stroke-width: 0.6"/>
      </g>
     </g>
    </g>
    <g id="xtick_5">
     <g id="line2d_8">
      <g>
       <use xlink:href="#m5dc553b448" x="143.59237" y="313.759375" style="stroke: #000000; stroke-width: 0.6"/>
      </g>
     </g>
    </g>
    <g id="xtick_6">
     <g id="line2d_9">
      <g>
       <use xlink:href="#m5dc553b448" x="167.995841" y="313.759375" style="stroke: #000000; stroke-width: 0.6"/>
      </g>
     </g>
    </g>
    <g id="xtick_7">
     <g id="line2d_10">
      <g>
       <use xlink:href="#m5dc553b448" x="186.924645" y="313.759375" style="stroke: #000000; stroke-width: 0.6"/>
      </g>
     </g>
    </g>
    <g id="xtick_8">
     <g id="line2d_11">
      <g>
       <use xlink:href="#m5dc553b448" x="202.390603" y="313.759375" style="stroke: #000000; stroke-width: 0.6"/>
      </g>
     </g>
    </g>
    <g id="xtick_9">
     <g id="line2d_12">
      <g>
       <use xlink:href="#m5dc553b448" x="215.466884" y="313.759375" style="stroke: #000000; stroke-width: 0.6"/>
      </g>
     </g>
    </g>
    <g id="xtick_10">
     <g id="line2d_13">
      <g>
       <use xlink:href="#m5dc553b448" x="226.794074" y="313.759375" style="stroke: #000000; stroke-width: 0.6"/>
      </g>
     </g>
    </g>
    <g id="xtick_11">
     <g id="line2d_14">
      <g>
       <use xlink:href="#m5dc553b448" x="236.785364" y="313.759375" style="stroke: #000000; stroke-width: 0.6"/>
      </g>
     </g>
    </g>
    <g id="xtick_12">
     <g id="line2d_15">
      <g>
       <use xlink:href="#m5dc553b448" x="304.521111" y="313.759375" style="stroke: #000000; stroke-width: 0.6"/>
      </g>
     </g>
    </g>
    <g id="xtick_13">
     <g id="line2d_16">
      <g>
       <use xlink:href="#m5dc553b448" x="338.915872" y="313.759375" style="stroke: #000000; stroke-width: 0.6"/>
      </g>
     </g>
    </g>
    <g id="xtick_14">
     <g id="line2d_17">
      <g>
       <use xlink:href="#m5dc553b448" x="363.319344" y="313.759375" style="stroke: #000000; stroke-width: 0.6"/>
      </g>
     </g>
    </g>
    <g id="xtick_15">
     <g id="line2d_18">
      <g>
       <use xlink:href="#m5dc553b448" x="382.248147" y="313.759375" style="stroke: #000000; stroke-width: 0.6"/>
      </g>
     </g>
    </g>
    <g id="xtick_16">
     <g id="line2d_19">
      <g>
       <use xlink:href="#m5dc553b448" x="397.714105" y="313.759375" style="stroke: #000000; stroke-width: 0.6"/>
      </g>
     </g>
    </g>
    <g id="xtick_17">
     <g id="line2d_20">
      <g>
       <use xlink:href="#m5dc553b448" x="410.790387" y="313.759375" style="stroke: #000000; stroke-width: 0.6"/>
      </g>
     </g>
    </g>
    <g id="xtick_18">
     <g id="line2d_21">
      <g>
       <use xlink:href="#m5dc553b448" x="422.117577" y="313.759375" style="stroke: #000000; stroke-width: 0.6"/>
      </g>
     </g>
    </g>
    <g id="xtick_19">
     <g id="line2d_22">
      <g>
       <use xlink:href="#m5dc553b448" x="432.108867" y="313.759375" style="stroke: #000000; stroke-width: 0.6"/>
      </g>
     </g>
    </g>
    <g id="xtick_20">
     <g id="line2d_23">
      <g>
       <use xlink:href="#m5dc553b448" x="499.844613" y="313.759375" style="stroke: #000000; stroke-width: 0.6"/>
      </g>
     </g>
    </g>
    <g id="xtick_21">
     <g id="line2d_24">
      <g>
       <use xlink:href="#m5dc553b448" x="534.239375" y="313.759375" style="stroke: #000000; stroke-width: 0.6"/>
      </g>
     </g>
    </g>
    <g id="text_4">
     <!-- Radius [kpc] -->
     <g style="fill: #586172" transform="translate(259.30625 351.526875) scale(0.12 -0.12)">
      <defs>
       <path id="ArialMT-52" d="M 503 0 
L 503 4581 
L 2534 4581 
Q 3147 4581 3465 4457 
Q 3784 4334 3975 4021 
Q 4166 3709 4166 3331 
Q 4166 2844 3850 2509 
Q 3534 2175 2875 2084 
Q 3116 1969 3241 1856 
Q 3506 1613 3744 1247 
L 4541 0 
L 3778 0 
L 3172 953 
Q 2906 1366 2734 1584 
Q 2563 1803 2427 1890 
Q 2291 1978 2150 2013 
Q 2047 2034 1813 2034 
L 1109 2034 
L 1109 0 
L 503 0 
z
M 1109 2559 
L 2413 2559 
Q 2828 2559 3062 2645 
Q 3297 2731 3419 2920 
Q 3541 3109 3541 3331 
Q 3541 3656 3305 3865 
Q 3069 4075 2559 4075 
L 1109 4075 
L 1109 2559 
z
" transform="scale(0.015625)"/>
       <path id="ArialMT-61" d="M 2588 409 
Q 2275 144 1986 34 
Q 1697 -75 1366 -75 
Q 819 -75 525 192 
Q 231 459 231 875 
Q 231 1119 342 1320 
Q 453 1522 633 1644 
Q 813 1766 1038 1828 
Q 1203 1872 1538 1913 
Q 2219 1994 2541 2106 
Q 2544 2222 2544 2253 
Q 2544 2597 2384 2738 
Q 2169 2928 1744 2928 
Q 1347 2928 1158 2789 
Q 969 2650 878 2297 
L 328 2372 
Q 403 2725 575 2942 
Q 747 3159 1072 3276 
Q 1397 3394 1825 3394 
Q 2250 3394 2515 3294 
Q 2781 3194 2906 3042 
Q 3031 2891 3081 2659 
Q 3109 2516 3109 2141 
L 3109 1391 
Q 3109 606 3145 398 
Q 3181 191 3288 0 
L 2700 0 
Q 2613 175 2588 409 
z
M 2541 1666 
Q 2234 1541 1622 1453 
Q 1275 1403 1131 1340 
Q 988 1278 909 1158 
Q 831 1038 831 891 
Q 831 666 1001 516 
Q 1172 366 1500 366 
Q 1825 366 2078 508 
Q 2331 650 2450 897 
Q 2541 1088 2541 1459 
L 2541 1666 
z
" transform="scale(0.015625)"/>
       <path id="ArialMT-64" d="M 2575 0 
L 2575 419 
Q 2259 -75 1647 -75 
Q 1250 -75 917 144 
Q 584 363 401 755 
Q 219 1147 219 1656 
Q 219 2153 384 2558 
Q 550 2963 881 3178 
Q 1213 3394 1622 3394 
Q 1922 3394 2156 3267 
Q 2391 3141 2538 2938 
L 2538 4581 
L 3097 4581 
L 3097 0 
L 2575 0 
z
M 797 1656 
Q 797 1019 1065 703 
Q 1334 388 1700 388 
Q 2069 388 2326 689 
Q 2584 991 2584 1609 
Q 2584 2291 2321 2609 
Q 2059 2928 1675 2928 
Q 1300 2928 1048 2622 
Q 797 2316 797 1656 
z
" transform="scale(0.015625)"/>
       <path id="ArialMT-69" d="M 425 3934 
L 425 4581 
L 988 4581 
L 988 3934 
L 425 3934 
z
M 425 0 
L 425 3319 
L 988 3319 
L 988 0 
L 425 0 
z
" transform="scale(0.015625)"/>
       <path id="ArialMT-75" d="M 2597 0 
L 2597 488 
Q 2209 -75 1544 -75 
Q 1250 -75 995 37 
Q 741 150 617 320 
Q 494 491 444 738 
Q 409 903 409 1263 
L 409 3319 
L 972 3319 
L 972 1478 
Q 972 1038 1006 884 
Q 1059 663 1231 536 
Q 1403 409 1656 409 
Q 1909 409 2131 539 
Q 2353 669 2445 892 
Q 2538 1116 2538 1541 
L 2538 3319 
L 3100 3319 
L 3100 0 
L 2597 0 
z
" transform="scale(0.015625)"/>
       <path id="ArialMT-73" d="M 197 991 
L 753 1078 
Q 800 744 1014 566 
Q 1228 388 1613 388 
Q 2000 388 2187 545 
Q 2375 703 2375 916 
Q 2375 1106 2209 1216 
Q 2094 1291 1634 1406 
Q 1016 1563 777 1677 
Q 538 1791 414 1992 
Q 291 2194 291 2438 
Q 291 2659 392 2848 
Q 494 3038 669 3163 
Q 800 3259 1026 3326 
Q 1253 3394 1513 3394 
Q 1903 3394 2198 3281 
Q 2494 3169 2634 2976 
Q 2775 2784 2828 2463 
L 2278 2388 
Q 2241 2644 2061 2787 
Q 1881 2931 1553 2931 
Q 1166 2931 1000 2803 
Q 834 2675 834 2503 
Q 834 2394 903 2306 
Q 972 2216 1119 2156 
Q 1203 2125 1616 2013 
Q 2213 1853 2448 1751 
Q 2684 1650 2818 1456 
Q 2953 1263 2953 975 
Q 2953 694 2789 445 
Q 2625 197 2315 61 
Q 2006 -75 1616 -75 
Q 969 -75 630 194 
Q 291 463 197 991 
z
" transform="scale(0.015625)"/>
       <path id="ArialMT-20" transform="scale(0.015625)"/>
       <path id="ArialMT-5b" d="M 434 -1272 
L 434 4581 
L 1675 4581 
L 1675 4116 
L 997 4116 
L 997 -806 
L 1675 -806 
L 1675 -1272 
L 434 -1272 
z
" transform="scale(0.015625)"/>
       <path id="ArialMT-6b" d="M 425 0 
L 425 4581 
L 988 4581 
L 988 1969 
L 2319 3319 
L 3047 3319 
L 1778 2088 
L 3175 0 
L 2481 0 
L 1384 1697 
L 988 1316 
L 988 0 
L 425 0 
z
" transform="scale(0.015625)"/>
       <path id="ArialMT-70" d="M 422 -1272 
L 422 3319 
L 934 3319 
L 934 2888 
Q 1116 3141 1344 3267 
Q 1572 3394 1897 3394 
Q 2322 3394 2647 3175 
Q 2972 2956 3137 2557 
Q 3303 2159 3303 1684 
Q 3303 1175 3120 767 
Q 2938 359 2589 142 
Q 2241 -75 1856 -75 
Q 1575 -75 1351 44 
Q 1128 163 984 344 
L 984 -1272 
L 422 -1272 
z
M 931 1641 
Q 931 1000 1190 694 
Q 1450 388 1819 388 
Q 2194 388 2461 705 
Q 2728 1022 2728 1688 
Q 2728 2322 2467 2637 
Q 2206 2953 1844 2953 
Q 1484 2953 1207 2617 
Q 931 2281 931 1641 
z
" transform="scale(0.015625)"/>
       <path id="ArialMT-63" d="M 2588 1216 
L 3141 1144 
Q 3050 572 2676 248 
Q 2303 -75 1759 -75 
Q 1078 -75 664 370 
Q 250 816 250 1647 
Q 250 2184 428 2587 
Q 606 2991 970 3192 
Q 1334 3394 1763 3394 
Q 2303 3394 2647 3120 
Q 2991 2847 3088 2344 
L 2541 2259 
Q 2463 2594 2264 2762 
Q 2066 2931 1784 2931 
Q 1359 2931 1093 2626 
Q 828 2322 828 1663 
Q 828 994 1084 691 
Q 1341 388 1753 388 
Q 2084 388 2306 591 
Q 2528 794 2588 1216 
z
" transform="scale(0.015625)"/>
       <path id="ArialMT-5d" d="M 1363 -1272 
L 122 -1272 
L 122 -806 
L 800 -806 
L 800 4116 
L 122 4116 
L 122 4581 
L 1363 4581 
L 1363 -1272 
z
" transform="scale(0.015625)"/>
      </defs>
      <use xlink:href="#ArialMT-52"/>
      <use xlink:href="#ArialMT-61" transform="translate(72.216797 0)"/>
      <use xlink:href="#ArialMT-64" transform="translate(127.832031 0)"/>
      <use xlink:href="#ArialMT-69" transform="translate(183.447266 0)"/>
      <use xlink:href="#ArialMT-75" transform="translate(205.664062 0)"/>
      <use xlink:href="#ArialMT-73" transform="translate(261.279297 0)"/>
      <use xlink:href="#ArialMT-20" transform="translate(311.279297 0)"/>
      <use xlink:href="#ArialMT-5b" transform="translate(339.0625 0)"/>
      <use xlink:href="#ArialMT-6b" transform="translate(366.845703 0)"/>
      <use xlink:href="#ArialMT-70" transform="translate(416.845703 0)"/>
      <use xlink:href="#ArialMT-63" transform="translate(472.460938 0)"/>
      <use xlink:href="#ArialMT-5d" transform="translate(522.460938 0)"/>
     </g>
    </g>
   </g>
   <g id="matplotlib.axis_2">
    <g id="ytick_1">
     <g id="line2d_25">
      <path d="M 50.399375 313.759375 
L 534.239375 313.759375 
" clip-path="url(#p09121f9e20)" style="fill: none; stroke: #d0d5dd; stroke-linecap: square"/>
     </g>
     <g id="line2d_26">
      <defs>
       <path id="mce102334f0" d="M 0 0 
L -6 0 
" style="stroke: #6b7380"/>
      </defs>
      <g>
       <use xlink:href="#mce102334f0" x="50.399375" y="313.759375" style="fill: #6b7380; stroke: #6b7380"/>
      </g>
     </g>
     <g id="text_5">
      <!-- 0 -->
      <g style="fill: #6b7380" transform="translate(34.536875 317.558594) scale(0.1 -0.1)">
       <use xlink:href="#DejaVuSans-30"/>
      </g>
     </g>
    </g>
    <g id="ytick_2">
     <g id="line2d_27">
      <path d="M 50.399375 271.759375 
L 534.239375 271.759375 
" clip-path="url(#p09121f9e20)" style="fill: none; stroke: #d0d5dd; stroke-linecap: square"/>
     </g>
     <g id="line2d_28">
      <g>
       <use xlink:href="#mce102334f0" x="50.399375" y="271.759375" style="fill: #6b7380; stroke: #6b7380"/>
      </g>
     </g>
     <g id="text_6">
      <!-- 2 -->
      <g style="fill: #6b7380" transform="translate(34.536875 275.558594) scale(0.1 -0.1)">
       <use xlink:href="#DejaVuSans-32"/>
      </g>
     </g>
    </g>
    <g id="ytick_3">
     <g id="line2d_29">
      <path d="M 50.399375 229.759375 
L 534.239375 229.759375 
" clip-path="url(#p09121f9e20)" style="fill: none; stroke: #d0d5dd; stroke-linecap: square"/>
     </g>
     <g id="line2d_30">
      <g>
       <use xlink:href="#mce102334f0" x="50.399375" y="229.759375" style="fill: #6b7380; stroke: #6b7380"/>
      </g>
     </g>
     <g id="text_7">
      <!-- 4 -->
      <g style="fill: #6b7380" transform="translate(34.536875 233.558594) scale(0.1 -0.1)">
       <defs>
        <path id="DejaVuSans-34" d="M 2419 4116 
L 825 1625 
L 2419 1625 
L 2419 4116 
z
M 2253 4666 
L 3047 4666 
L 3047 1625 
L 3713 1625 
L 3713 1100 
L 3047 1100 
L 3047 0 
L 2419 0 
L 2419 1100 
L 313 1100 
L 313 1709 
L 2253 4666 
z
" transform="scale(0.015625)"/>
       </defs>
       <use xlink:href="#DejaVuSans-34"/>
      </g>
     </g>
    </g>
    <g id="ytick_4">
     <g id="line2d_31">
      <path d="M 50.399375 187.759375 
L 534.239375 187.759375 
" clip-path="url(#p09121f9e20)" style="fill: none; stroke: #d0d5dd; stroke-linecap: square"/>
     </g>
     <g id="line2d_32">
      <g>
       <use xlink:href="#mce102334f0" x="50.399375" y="187.759375" style="fill: #6b7380; stroke: #6b7380"/>
      </g>
     </g>
     <g id="text_8">
      <!-- 6 -->
      <g style="fill: #6b7380" transform="translate(34.536875 191.558594) scale(0.1 -0.1)">
       <defs>
        <path id="DejaVuSans-36" d="M 2113 2584 
Q 1688 2584 1439 2293 
Q 1191 2003 1191 1497 
Q 1191 994 1439 701 
Q 1688 409 2113 409 
Q 2538 409 2786 701 
Q 3034 994 3034 1497 
Q 3034 2003 2786 2293 
Q 2538 2584 2113 2584 
z
M 3366 4563 
L 3366 3988 
Q 3128 4100 2886 4159 
Q 2644 4219 2406 4219 
Q 1781 4219 1451 3797 
Q 1122 3375 1075 2522 
Q 1259 2794 1537 2939 
Q 1816 3084 2150 3084 
Q 2853 3084 3261 2657 
Q 3669 2231 3669 1497 
Q 3669 778 3244 343 
Q 2819 -91 2113 -91 
Q 1303 -91 875 529 
Q 447 1150 447 2328 
Q 447 3434 972 4092 
Q 1497 4750 2381 4750 
Q 2619 4750 2861 4703 
Q 3103 4656 3366 4563 
z
" transform="scale(0.015625)"/>
       </defs>
       <use xlink:href="#DejaVuSans-36"/>
      </g>
     </g>
    </g>
    <g id="ytick_5">
     <g id="line2d_33">
      <path d="M 50.399375 145.759375 
L 534.239375 145.759375 
" clip-path="url(#p09121f9e20)" style="fill: none; stroke: #d0d5dd; stroke-linecap: square"/>
     </g>
     <g id="line2d_34">
      <g>
       <use xlink:href="#mce102334f0" x="50.399375" y="145.759375" style="fill: #6b7380; stroke: #6b7380"/>
      </g>
     </g>
     <g id="text_9">
      <!-- 8 -->
      <g style="fill: #6b7380" transform="translate(34.536875 149.558594) scale(0.1 -0.1)">
       <defs>
        <path id="DejaVuSans-38" d="M 2034 2216 
Q 1584 2216 1326 1975 
Q 1069 1734 1069 1313 
Q 1069 891 1326 650 
Q 1584 409 2034 409 
Q 2484 409 2743 651 
Q 3003 894 3003 1313 
Q 3003 1734 2745 1975 
Q 2488 2216 2034 2216 
z
M 1403 2484 
Q 997 2584 770 2862 
Q 544 3141 544 3541 
Q 544 4100 942 4425 
Q 1341 4750 2034 4750 
Q 2731 4750 3128 4425 
Q 3525 4100 3525 3541 
Q 3525 3141 3298 2862 
Q 3072 2584 2669 2484 
Q 3125 2378 3379 2068 
Q 3634 1759 3634 1313 
Q 3634 634 3220 271 
Q 2806 -91 2034 -91 
Q 1263 -91 848 271 
Q 434 634 434 1313 
Q 434 1759 690 2068 
Q 947 2378 1403 2484 
z
M 1172 3481 
Q 1172 3119 1398 2916 
Q 1625 2713 2034 2713 
Q 2441 2713 2670 2916 
Q 2900 3119 2900 3481 
Q 2900 3844 2670 4047 
Q 2441 4250 2034 4250 
Q 1625 4250 1398 4047 
Q 1172 3844 1172 3481 
z
" transform="scale(0.015625)"/>
       </defs>
       <use xlink:href="#DejaVuSans-38"/>
      </g>
     </g>
    </g>
    <g id="ytick_6">
     <g id="line2d_35">
      <path d="M 50.399375 103.759375 
L 534.239375 103.759375 
" clip-path="url(#p09121f9e20)" style="fill: none; stroke: #d0d5dd; stroke-linecap: square"/>
     </g>
     <g id="line2d_36">
      <g>
       <use xlink:href="#mce102334f0" x="50.399375" y="103.759375" style="fill: #6b7380; stroke: #6b7380"/>
      </g>
     </g>
     <g id="text_10">
      <!-- 10 -->
      <g style="fill: #6b7380" transform="translate(28.174375 107.558594) scale(0.1 -0.1)">
       <use xlink:href="#DejaVuSans-31"/>
       <use xlink:href="#DejaVuSans-30" transform="translate(63.623047 0)"/>
      </g>
     </g>
    </g>
    <g id="ytick_7">
     <g id="line2d_37">
      <path d="M 50.399375 61.759375 
L 534.239375 61.759375 
" clip-path="url(#p09121f9e20)" style="fill: none; stroke: #d0d5dd; stroke-linecap: square"/>
     </g>
     <g id="line2d_38">
      <g>
       <use xlink:href="#mce102334f0" x="50.399375" y="61.759375" style="fill: #6b7380; stroke: #6b7380"/>
      </g>
     </g>
     <g id="text_11">
      <!-- 12 -->
      <g style="fill: #6b7380" transform="translate(28.174375 65.558594) scale(0.1 -0.1)">
       <use xlink:href="#DejaVuSans-31"/>
       <use xlink:href="#DejaVuSans-32" transform="translate(63.623047 0)"/>
      </g>
     </g>
    </g>
    <g id="text_12">
     <!-- Temperature [keV] -->
     <g style="fill: #586172" transform="translate(15.789375 236.775625) rotate(-90) scale(0.12 -0.12)">
      <defs>
       <path id="ArialMT-54" d="M 1659 0 
L 1659 4041 
L 150 4041 
L 150 4581 
L 3781 4581 
L 3781 4041 
L 2266 4041 
L 2266 0 
L 1659 0 
z
" transform="scale(0.015625)"/>
       <path id="ArialMT-65" d="M 2694 1069 
L 3275 997 
Q 3138 488 2766 206 
Q 2394 -75 1816 -75 
Q 1088 -75 661 373 
Q 234 822 234 1631 
Q 234 2469 665 2931 
Q 1097 3394 1784 3394 
Q 2450 3394 2872 2941 
Q 3294 2488 3294 1666 
Q 3294 1616 3291 1516 
L 816 1516 
Q 847 969 1125 678 
Q 1403 388 1819 388 
Q 2128 388 2347 550 
Q 2566 713 2694 1069 
z
M 847 1978 
L 2700 1978 
Q 2663 2397 2488 2606 
Q 2219 2931 1791 2931 
Q 1403 2931 1139 2672 
Q 875 2413 847 1978 
z
" transform="scale(0.015625)"/>
       <path id="ArialMT-6d" d="M 422 0 
L 422 3319 
L 925 3319 
L 925 2853 
Q 1081 3097 1340 3245 
Q 1600 3394 1931 3394 
Q 2300 3394 2536 3241 
Q 2772 3088 2869 2813 
Q 3263 3394 3894 3394 
Q 4388 3394 4653 3120 
Q 4919 2847 4919 2278 
L 4919 0 
L 4359 0 
L 4359 2091 
Q 4359 2428 4304 2576 
Q 4250 2725 4106 2815 
Q 3963 2906 3769 2906 
Q 3419 2906 3187 2673 
Q 2956 2441 2956 1928 
L 2956 0 
L 2394 0 
L 2394 2156 
Q 2394 2531 2256 2718 
Q 2119 2906 1806 2906 
Q 1569 2906 1367 2781 
Q 1166 2656 1075 2415 
Q 984 2175 984 1722 
L 984 0 
L 422 0 
z
" transform="scale(0.015625)"/>
       <path id="ArialMT-72" d="M 416 0 
L 416 3319 
L 922 3319 
L 922 2816 
Q 1116 3169 1280 3281 
Q 1444 3394 1641 3394 
Q 1925 3394 2219 3213 
L 2025 2691 
Q 1819 2813 1613 2813 
Q 1428 2813 1281 2702 
Q 1134 2591 1072 2394 
Q 978 2094 978 1738 
L 978 0 
L 416 0 
z
" transform="scale(0.015625)"/>
       <path id="ArialMT-74" d="M 1650 503 
L 1731 6 
Q 1494 -44 1306 -44 
Q 1000 -44 831 53 
Q 663 150 594 308 
Q 525 466 525 972 
L 525 2881 
L 113 2881 
L 113 3319 
L 525 3319 
L 525 4141 
L 1084 4478 
L 1084 3319 
L 1650 3319 
L 1650 2881 
L 1084 2881 
L 1084 941 
Q 1084 700 1114 631 
Q 1144 563 1211 522 
Q 1278 481 1403 481 
Q 1497 481 1650 503 
z
" transform="scale(0.015625)"/>
       <path id="ArialMT-56" d="M 1803 0 
L 28 4581 
L 684 4581 
L 1875 1253 
Q 2019 853 2116 503 
Q 2222 878 2363 1253 
L 3600 4581 
L 4219 4581 
L 2425 0 
L 1803 0 
z
" transform="scale(0.015625)"/>
      </defs>
      <use xlink:href="#ArialMT-54"/>
      <use xlink:href="#ArialMT-65" transform="translate(49.958984 0)"/>
      <use xlink:href="#ArialMT-6d" transform="translate(105.574219 0)"/>
      <use xlink:href="#ArialMT-70" transform="translate(188.875 0)"/>
      <use xlink:href="#ArialMT-65" transform="translate(244.490234 0)"/>
      <use xlink:href="#ArialMT-72" transform="translate(300.105469 0)"/>
      <use xlink:href="#ArialMT-61" transform="translate(333.40625 0)"/>
      <use xlink:href="#ArialMT-74" transform="translate(389.021484 0)"/>
      <use xlink:href="#ArialMT-75" transform="translate(416.804688 0)"/>
      <use xlink:href="#ArialMT-72" transform="translate(472.419922 0)"/>
      <use xlink:href="#ArialMT-65" transform="translate(505.720703 0)"/>
      <use xlink:href="#ArialMT-20" transform="translate(561.335938 0)"/>
      <use xlink:href="#ArialMT-5b" transform="translate(589.119141 0)"/>
      <use xlink:href="#ArialMT-6b" transform="translate(616.902344 0)"/>
      <use xlink:href="#ArialMT-65" transform="translate(666.902344 0)"/>
      <use xlink:href="#ArialMT-56" transform="translate(722.517578 0)"/>
      <use xlink:href="#ArialMT-5d" transform="translate(789.216797 0)"/>
     </g>
    </g>
   </g>
   <g id="line2d_39">
    <path d="M 186.924645 169.19039 
L 190.353945 169.453082 
L 193.783246 169.736685 
L 197.212547 170.042758 
L 200.641848 170.372957 
L 204.071149 170.729039 
L 207.500449 171.112868 
L 210.92975 171.52641 
L 214.359051 171.971741 
L 217.788352 172.451045 
L 221.217653 172.966611 
L 224.646954 173.520835 
L 228.076254 174.116215 
L 231.505555 174.755343 
L 234.934856 175.440902 
L 238.364157 176.175655 
L 241.793458 176.96243 
L 245.222759 177.804111 
L 248.652059 178.703615 
L 252.08136 179.663871 
L 255.510661 180.687801 
L 258.939962 181.778283 
L 262.369263 182.938127 
L 265.798564 184.170036 
L 269.227864 185.476564 
L 272.657165 186.860079 
L 276.086466 188.322713 
L 279.515767 189.866317 
L 282.945068 191.492409 
L 286.374369 193.202123 
L 289.803669 194.996161 
L 293.23297 196.874742 
L 296.662271 198.837557 
L 300.091572 200.883725 
L 303.520873 203.011757 
L 306.950174 205.219531 
L 310.379474 207.504263 
L 313.808775 209.862508 
L 317.238076 212.290152 
L 320.667377 214.78243 
L 324.096678 217.333951 
L 327.525979 219.938739 
L 330.955279 222.590284 
L 334.38458 225.281601 
L 337.813881 228.005313 
L 341.243182 230.753726 
L 344.672483 233.518924 
L 348.101784 236.29286 
L 351.531084 239.067457 
L 354.960385 241.834701 
L 358.389686 244.586735 
L 361.818987 247.31595 
L 365.248288 250.015064 
L 368.677589 252.677196 
L 372.106889 255.295928 
L 375.53619 257.865354 
L 378.965491 260.380125 
L 382.394792 262.835468 
L 385.824093 265.227213 
L 389.253393 267.551786 
L 392.682694 269.806217 
L 396.111995 271.988118 
L 399.541296 274.095662 
L 402.970597 276.127562 
L 406.399898 278.08303 
L 409.829198 279.961748 
L 413.258499 281.763822 
L 416.6878 283.489748 
L 420.117101 285.140364 
L 423.546402 286.716814 
L 426.975703 288.220506 
L 430.405003 289.653076 
L 433.834304 291.016345 
L 437.263605 292.312293 
L 440.692906 293.543021 
L 444.122207 294.710728 
L 447.551508 295.817679 
L 450.980808 296.866183 
L 454.410109 297.858577 
L 457.83941 298.7972 
L 461.268711 299.684381 
L 464.698012 300.522429 
L 468.127313 301.313612 
L 471.556613 302.060158 
L 474.985914 302.764237 
L 478.415215 303.427963 
L 481.844516 304.053383 
L 485.273817 304.642476 
L 488.703118 305.19715 
L 492.132418 305.719239 
L 495.561719 306.210504 
L 498.99102 306.672631 
L 502.420321 307.107231 
L 505.849622 307.515842 
L 509.278923 307.899931 
L 512.708223 308.260891 
L 516.137524 308.600048 
L 519.566825 308.918662 
L 522.996126 309.217927 
L 526.425427 309.498974 
" clip-path="url(#p09121f9e20)" style="fill: none; stroke: #1e5f74; stroke-opacity: 0.4; stroke-width: 2; stroke-linecap: square"/>
   </g>
   <g id="line2d_40">
    <path d="M 186.924645 106.341204 
L 190.508286 106.73575 
L 194.091928 107.163166 
L 197.675569 107.626016 
L 201.259211 108.12703 
L 204.842852 108.669113 
L 208.426494 109.255347 
L 212.010135 109.889 
L 215.593777 110.57352 
L 219.177418 111.312542 
L 222.76106 112.109881 
L 226.344701 112.969532 
L 229.928343 113.895659 
L 233.511984 114.892585 
L 237.095626 115.964778 
L 240.679267 117.116829 
L 244.262909 118.353431 
L 247.84655 119.679346 
L 251.430192 121.09937 
L 255.013833 122.618289 
L 258.597475 124.240833 
L 262.181116 125.971619 
L 265.764758 127.815085 
L 269.348399 129.775424 
L 272.932041 131.856506 
L 276.515682 134.061798 
L 280.099324 136.394275 
L 283.682965 138.856334 
L 287.266607 141.449704 
L 290.850248 144.17535 
L 294.43389 147.033395 
L 298.017532 150.023029 
L 301.601173 153.142448 
L 305.184815 156.388784 
L 308.768456 159.758063 
L 312.352098 163.24518 
L 315.935739 166.843886 
L 319.519381 170.546805 
L 323.103022 174.345473 
L 326.686664 178.230395 
L 330.270305 182.191137 
L 333.853947 186.216429 
L 337.437588 190.294296 
L 341.02123 194.412205 
L 344.604871 198.55722 
L 348.188513 202.716176 
L 351.772154 206.875848 
L 355.355796 211.023126 
L 358.939437 215.14518 
L 362.523079 219.229619 
L 366.10672 223.264633 
L 369.690362 227.239122 
L 373.274003 231.142798 
L 376.857645 234.966278 
L 380.441286 238.70114 
L 384.024928 242.339971 
L 387.608569 245.876386 
L 391.192211 249.305027 
L 394.775852 252.62155 
L 398.359494 255.822592 
L 401.943135 258.905725 
L 405.526777 261.869402 
L 409.110419 264.712894 
L 412.69406 267.43622 
L 416.277702 270.040074 
L 419.861343 272.525754 
L 423.444985 274.895087 
L 427.028626 277.150357 
L 430.612268 279.294236 
L 434.195909 281.329719 
L 437.779551 283.260065 
L 441.363192 285.088737 
L 444.946834 286.819354 
L 448.530475 288.455646 
L 452.114117 290.001406 
L 455.697758 291.460465 
L 459.2814 292.83665 
L 462.865041 294.133763 
L 466.448683 295.355557 
L 470.032324 296.505714 
L 473.615966 297.587834 
L 477.199607 298.605417 
L 480.783249 299.561857 
L 484.36689 300.460432 
L 487.950532 301.304299 
L 491.534173 302.096491 
L 495.117815 302.839915 
L 498.701456 303.53735 
L 502.285098 304.191445 
L 505.868739 304.804729 
L 509.452381 305.379601 
L 513.036022 305.918343 
L 516.619664 306.423118 
L 520.203306 306.895975 
L 523.786947 307.33885 
L 527.370589 307.753576 
L 530.95423 308.141882 
L 534.537872 308.505399 
L 538.121513 308.845666 
L 541.705155 309.164132 
" clip-path="url(#p09121f9e20)" style="fill: none; stroke: #ffc400; stroke-opacity: 0.4; stroke-width: 2; stroke-linecap: square"/>
   </g>
   <g id="line2d_41">
    <path d="M 186.924645 217.862806 
L 190.136995 218.025632 
L 193.349346 218.200574 
L 196.561696 218.388476 
L 199.774047 218.590233 
L 202.986397 218.80679 
L 206.198748 219.039146 
L 209.411098 219.288355 
L 212.623449 219.555523 
L 215.835799 219.841814 
L 219.04815 220.148444 
L 222.2605 220.476685 
L 225.472851 220.827863 
L 228.685201 221.203353 
L 231.897552 221.60458 
L 235.109902 222.033014 
L 238.322253 222.490163 
L 241.534603 222.977573 
L 244.746954 223.496812 
L 247.959304 224.04947 
L 251.171655 224.637146 
L 254.384005 225.261433 
L 257.596356 225.923911 
L 260.808706 226.626128 
L 264.021057 227.369584 
L 267.233407 228.155714 
L 270.445758 228.98587 
L 273.658108 229.861296 
L 276.870459 230.783107 
L 280.082809 231.75227 
L 283.29516 232.769572 
L 286.507511 233.835603 
L 289.719861 234.950729 
L 292.932212 236.115067 
L 296.144562 237.328465 
L 299.356913 238.590483 
L 302.569263 239.90037 
L 305.781614 241.257055 
L 308.993964 242.659134 
L 312.206315 244.104862 
L 315.418665 245.592154 
L 318.631016 247.118589 
L 321.843366 248.681416 
L 325.055717 250.277574 
L 328.268067 251.903709 
L 331.480418 253.556203 
L 334.692768 255.231207 
L 337.905119 256.924671 
L 341.117469 258.632393 
L 344.32982 260.350056 
L 347.54217 262.073275 
L 350.754521 263.797645 
L 353.966871 265.518784 
L 357.179222 267.232381 
L 360.391572 268.934238 
L 363.603923 270.620311 
L 366.816273 272.286745 
L 370.028624 273.929907 
L 373.240974 275.546413 
L 376.453325 277.133151 
L 379.665675 278.687297 
L 382.878026 280.206325 
L 386.090377 281.688017 
L 389.302727 283.130462 
L 392.515078 284.532055 
L 395.727428 285.891488 
L 398.939779 287.207741 
L 402.152129 288.480072 
L 405.36448 289.707997 
L 408.57683 290.891276 
L 411.789181 292.029891 
L 415.001531 293.124032 
L 418.213882 294.174073 
L 421.426232 295.180555 
L 424.638583 296.144162 
L 427.850933 297.065709 
L 431.063284 297.946118 
L 434.275634 298.786405 
L 437.487985 299.58766 
L 440.700335 300.351036 
L 443.912686 301.077733 
L 447.125036 301.768984 
L 450.337387 302.426048 
L 453.549737 303.050197 
L 456.762088 303.642707 
L 459.974438 304.204851 
L 463.186789 304.737892 
L 466.399139 305.243076 
L 469.61149 305.721629 
L 472.82384 306.174753 
L 476.036191 306.603617 
L 479.248541 307.009364 
L 482.460892 307.393098 
L 485.673243 307.755891 
L 488.885593 308.098778 
L 492.097944 308.422755 
L 495.310294 308.72878 
L 498.522645 309.017776 
L 501.734995 309.290625 
L 504.947346 309.548171 
" clip-path="url(#p09121f9e20)" style="fill: none; stroke: #27ae60; stroke-opacity: 0.4; stroke-width: 2; stroke-linecap: square"/>
   </g>
   <g id="line2d_42">
    <path d="M 186.924645 184.584361 
L 190.403235 184.822588 
L 193.881825 185.08006 
L 197.360415 185.358233 
L 200.839005 185.658656 
L 204.317595 185.982972 
L 207.796185 186.332924 
L 211.274775 186.710355 
L 214.753365 187.11721 
L 218.231955 187.555537 
L 221.710545 188.027483 
L 225.189135 188.535295 
L 228.667725 189.081316 
L 232.146315 189.667979 
L 235.624905 190.297799 
L 239.103495 190.973367 
L 242.582085 191.697331 
L 246.060675 192.47239 
L 249.539265 193.301267 
L 253.017855 194.186697 
L 256.496445 195.131395 
L 259.975035 196.138031 
L 263.453625 197.209199 
L 266.932215 198.347381 
L 270.410805 199.554907 
L 273.889395 200.833917 
L 277.367985 202.18631 
L 280.846575 203.613706 
L 284.325165 205.117387 
L 287.803755 206.698259 
L 291.282345 208.356797 
L 294.760935 210.093001 
L 298.239525 211.906353 
L 301.718115 213.79578 
L 305.196705 215.759618 
L 308.675295 217.795595 
L 312.153885 219.900807 
L 315.632475 222.071724 
L 319.111065 224.304187 
L 322.589655 226.593435 
L 326.068245 228.934134 
L 329.546835 231.320419 
L 333.025425 233.745955 
L 336.504015 236.204001 
L 339.982605 238.687487 
L 343.461195 241.189098 
L 346.939785 243.701364 
L 350.418375 246.216752 
L 353.896965 248.727758 
L 357.375555 251.227001 
L 360.854145 253.707305 
L 364.332735 256.161785 
L 367.811325 258.583915 
L 371.289915 260.967592 
L 374.768505 263.307188 
L 378.247095 265.59759 
L 381.725685 267.834232 
L 385.204275 270.013107 
L 388.682865 272.13078 
L 392.161455 274.184383 
L 395.640045 276.171604 
L 399.118635 278.090664 
L 402.597225 279.9403 
L 406.075815 281.719724 
L 409.554405 283.428595 
L 413.032995 285.066981 
L 416.511585 286.635317 
L 419.990175 288.134369 
L 423.468765 289.56519 
L 426.947355 290.929088 
L 430.425945 292.227583 
L 433.904535 293.462376 
L 437.383125 294.635313 
L 440.861715 295.748357 
L 444.340305 296.803562 
L 447.818895 297.803042 
L 451.297485 298.748954 
L 454.776075 299.643478 
L 458.254665 300.488794 
L 461.733255 301.287074 
L 465.211845 302.040466 
L 468.690435 302.751081 
L 472.169025 303.420987 
L 475.647615 304.052202 
L 479.126205 304.646683 
L 482.604795 305.20633 
L 486.083385 305.732972 
L 489.561975 306.228374 
L 493.040565 306.694229 
L 496.519155 307.132163 
L 499.997745 307.543727 
L 503.476335 307.930405 
L 506.954925 308.293611 
L 510.433515 308.634691 
L 513.912105 308.954925 
L 517.390695 309.255527 
L 520.869285 309.53765 
L 524.347875 309.802384 
L 527.826465 310.050763 
L 531.305055 310.283765 
" clip-path="url(#p09121f9e20)" style="fill: none; stroke: #ff6b6b; stroke-opacity: 0.4; stroke-width: 2; stroke-linecap: square"/>
   </g>
   <g id="line2d_43">
    <path d="M 186.924645 116.406149 
L 190.708851 116.803461 
L 194.493057 117.235798 
L 198.277263 117.706044 
L 202.061469 118.217287 
L 205.845675 118.77282 
L 209.629881 119.376149 
L 213.414087 120.030994 
L 217.198293 120.741297 
L 220.982499 121.511215 
L 224.766705 122.345118 
L 228.550912 123.247584 
L 232.335118 124.223385 
L 236.119324 125.277469 
L 239.90353 126.414942 
L 243.687736 127.641035 
L 247.471942 128.961071 
L 251.256148 130.38042 
L 255.040354 131.904447 
L 258.82456 133.538452 
L 262.608766 135.287599 
L 266.392973 137.156839 
L 270.177179 139.150819 
L 273.961385 141.27379 
L 277.745591 143.5295 
L 281.529797 145.92109 
L 285.314003 148.450977 
L 289.098209 151.120742 
L 292.882415 153.931022 
L 296.666621 156.8814 
L 300.450827 159.970315 
L 304.235034 163.194974 
L 308.01924 166.551293 
L 311.803446 170.033854 
L 315.587652 173.635888 
L 319.371858 177.349288 
L 323.156064 181.164654 
L 326.94027 185.071366 
L 330.724476 189.057693 
L 334.508682 193.110925 
L 338.292888 197.217543 
L 342.077094 201.363396 
L 345.861301 205.533907 
L 349.645507 209.714288 
L 353.429713 213.88975 
L 357.213919 218.045723 
L 360.998125 222.168055 
L 364.782331 226.243204 
L 368.566537 230.258402 
L 372.350743 234.201804 
L 376.134949 238.062601 
L 379.919155 241.831104 
L 383.703362 245.498813 
L 387.487568 249.058435 
L 391.271774 252.503898 
L 395.05598 255.830329 
L 398.840186 259.034012 
L 402.624392 262.112335 
L 406.408598 265.063717 
L 410.192804 267.887529 
L 413.97701 270.584007 
L 417.761216 273.15416 
L 421.545423 275.59968 
L 425.329629 277.922847 
L 429.113835 280.126446 
L 432.898041 282.213678 
L 436.682247 284.188086 
L 440.466453 286.053479 
L 444.250659 287.813868 
L 448.034865 289.473406 
L 451.819071 291.036337 
L 455.603277 292.506945 
L 459.387483 293.88952 
L 463.17169 295.188322 
L 466.955896 296.40755 
L 470.740102 297.55132 
L 474.524308 298.623646 
L 478.308514 299.628425 
L 482.09272 300.569421 
L 485.876926 301.450263 
L 489.661132 302.274433 
L 493.445338 303.045266 
L 497.229544 303.765946 
L 501.013751 304.439505 
L 504.797957 305.068827 
L 508.582163 305.656647 
L 512.366369 306.205558 
L 516.150575 306.71801 
L 519.934781 307.196319 
L 523.718987 307.642669 
L 527.503193 308.059116 
L 531.287399 308.447598 
L 535.071605 308.809935 
L 538.855812 309.147838 
L 542.439375 309.446207 
" clip-path="url(#p09121f9e20)" style="fill: none; stroke: #8e44ad; stroke-opacity: 0.4; stroke-width: 2; stroke-linecap: square"/>
   </g>
   <g id="patch_3">
    <path d="M 50.399375 313.759375 
L 50.399375 61.759375 
" style="fill: none; stroke: #d0d5dd; stroke-linejoin: miter; stroke-linecap: square"/>
   </g>
   <g id="patch_4">
    <path d="M 534.239375 313.759375 
L 534.239375 61.759375 
" style="fill: none; stroke: #d0d5dd; stroke-linejoin: miter; stroke-linecap: square"/>
   </g>
   <g id="patch_5">
    <path d="M 50.399375 313.759375 
L 534.239375 313.759375 
" style="fill: none; stroke: #d0d5dd; stroke-linejoin: miter; stroke-linecap: square"/>
   </g>
   <g id="patch_6">
    <path d="M 50.399375 61.759375 
L 534.239375 61.759375 
" style="fill: none; stroke: #d0d5dd; stroke-linejoin: miter; stroke-linecap: square"/>
   </g>
   <g id="LineCollection_1">
    <path d="M 186.924645 174.785504 
L 186.924645 141.632609 
" clip-path="url(#p09121f9e20)" style="fill: none; stroke: #1e5f74; stroke-width: 1.2"/>
    <path d="M 216.382356 190.411844 
L 216.382356 158.843387 
" clip-path="url(#p09121f9e20)" style="fill: none; stroke: #1e5f74; stroke-width: 1.2"/>
    <path d="M 245.840067 198.304489 
L 245.840067 168.847724 
" clip-path="url(#p09121f9e20)" style="fill: none; stroke: #1e5f74; stroke-width: 1.2"/>
    <path d="M 275.297778 215.555512 
L 275.297778 188.53773 
" clip-path="url(#p09121f9e20)" style="fill: none; stroke: #1e5f74; stroke-width: 1.2"/>
    <path d="M 304.75549 225.378853 
L 304.75549 200.857659 
" clip-path="url(#p09121f9e20)" style="fill: none; stroke: #1e5f74; stroke-width: 1.2"/>
    <path d="M 334.213201 240.533665 
L 334.213201 218.360301 
" clip-path="url(#p09121f9e20)" style="fill: none; stroke: #1e5f74; stroke-width: 1.2"/>
    <path d="M 363.670912 249.658049 
L 363.670912 229.58103 
" clip-path="url(#p09121f9e20)" style="fill: none; stroke: #1e5f74; stroke-width: 1.2"/>
    <path d="M 393.128623 259.960352 
L 393.128623 241.701646 
" clip-path="url(#p09121f9e20)" style="fill: none; stroke: #1e5f74; stroke-width: 1.2"/>
    <path d="M 422.586335 271.060643 
L 422.586335 254.355036 
" clip-path="url(#p09121f9e20)" style="fill: none; stroke: #1e5f74; stroke-width: 1.2"/>
    <path d="M 452.044046 279.587665 
L 452.044046 264.198169 
" clip-path="url(#p09121f9e20)" style="fill: none; stroke: #1e5f74; stroke-width: 1.2"/>
    <path d="M 481.501757 282.842743 
L 481.501757 268.564063 
" clip-path="url(#p09121f9e20)" style="fill: none; stroke: #1e5f74; stroke-width: 1.2"/>
    <path d="M 510.959468 291.695825 
L 510.959468 278.352796 
" clip-path="url(#p09121f9e20)" style="fill: none; stroke: #1e5f74; stroke-width: 1.2"/>
   </g>
   <g id="line2d_44">
    <defs>
     <path id="mac145cd6d4" d="M 3 0 
L -3 -0 
"/>
    </defs>
    <g clip-path="url(#p09121f9e20)">
     <use xlink:href="#mac145cd6d4" x="186.924645" y="174.785504" style="fill: #1e5f74"/>
     <use xlink:href="#mac145cd6d4" x="216.382356" y="190.411844" style="fill: #1e5f74"/>
     <use xlink:href="#mac145cd6d4" x="245.840067" y="198.304489" style="fill: #1e5f74"/>
     <use xlink:href="#mac145cd6d4" x="275.297778" y="215.555512" style="fill: #1e5f74"/>
     <use xlink:href="#mac145cd6d4" x="304.75549" y="225.378853" style="fill: #1e5f74"/>
     <use xlink:href="#mac145cd6d4" x="334.213201" y="240.533665" style="fill: #1e5f74"/>
     <use xlink:href="#mac145cd6d4" x="363.670912" y="249.658049" style="fill: #1e5f74"/>
     <use xlink:href="#mac145cd6d4" x="393.128623" y="259.960352" style="fill: #1e5f74"/>
     <use xlink:href="#mac145cd6d4" x="422.586335" y="271.060643" style="fill: #1e5f74"/>
     <use xlink:href="#mac145cd6d4" x="452.044046" y="279.587665" style="fill: #1e5f74"/>
     <use xlink:href="#mac145cd6d4" x="481.501757" y="282.842743" style="fill: #1e5f74"/>
     <use xlink:href="#mac145cd6d4" x="510.959468" y="291.695825" style="fill: #1e5f74"/>
    </g>
   </g>
   <g id="line2d_45">
    <g clip-path="url(#p09121f9e20)">
     <use xlink:href="#mac145cd6d4" x="186.924645" y="141.632609" style="fill: #1e5f74"/>
     <use xlink:href="#mac145cd6d4" x="216.382356" y="158.843387" style="fill: #1e5f74"/>
     <use xlink:href="#mac145cd6d4" x="245.840067" y="168.847724" style="fill: #1e5f74"/>
     <use xlink:href="#mac145cd6d4" x="275.297778" y="188.53773" style="fill: #1e5f74"/>
     <use xlink:href="#mac145cd6d4" x="304.75549" y="200.857659" style="fill: #1e5f74"/>
     <use xlink:href="#mac145cd6d4" x="334.213201" y="218.360301" style="fill: #1e5f74"/>
     <use xlink:href="#mac145cd6d4" x="363.670912" y="229.58103" style="fill: #1e5f74"/>
     <use xlink:href="#mac145cd6d4" x="393.128623" y="241.701646" style="fill: #1e5f74"/>
     <use xlink:href="#mac145cd6d4" x="422.586335" y="254.355036" style="fill: #1e5f74"/>
     <use xlink:href="#mac145cd6d4" x="452.044046" y="264.198169" style="fill: #1e5f74"/>
     <use xlink:href="#mac145cd6d4" x="481.501757" y="268.564063" style="fill: #1e5f74"/>
     <use xlink:href="#mac145cd6d4" x="510.959468" y="278.352796" style="fill: #1e5f74"/>
    </g>
   </g>
   <g id="LineCollection_2">
    <path d="M 186.924645 112.16501 
L 186.924645 69.006793 
" clip-path="url(#p09121f9e20)" style="fill: none; stroke: #ffc400; stroke-width: 1.2"/>
    <path d="M 217.771422 140.216781 
L 217.771422 98.931276 
" clip-path="url(#p09121f9e20)" style="fill: none; stroke: #ffc400; stroke-width: 1.2"/>
    <path d="M 248.618199 140.311079 
L 248.618199 101.738985 
" clip-path="url(#p09121f9e20)" style="fill: none; stroke: #ffc400; stroke-width: 1.2"/>
    <path d="M 279.464977 156.968438 
L 279.464977 121.753902 
" clip-path="url(#p09121f9e20)" style="fill: none; stroke: #ffc400; stroke-width: 1.2"/>
    <path d="M 310.311754 187.807133 
L 310.311754 156.187365 
" clip-path="url(#p09121f9e20)" style="fill: none; stroke: #ffc400; stroke-width: 1.2"/>
    <path d="M 341.158532 207.522223 
L 341.158532 179.359984 
" clip-path="url(#p09121f9e20)" style="fill: none; stroke: #ffc400; stroke-width: 1.2"/>
    <path d="M 372.005309 220.695218 
L 372.005309 195.64298 
" clip-path="url(#p09121f9e20)" style="fill: none; stroke: #ffc400; stroke-width: 1.2"/>
    <path d="M 402.852087 237.825279 
L 402.852087 215.467902 
" clip-path="url(#p09121f9e20)" style="fill: none; stroke: #ffc400; stroke-width: 1.2"/>
    <path d="M 433.698864 252.282133 
L 433.698864 232.214926 
" clip-path="url(#p09121f9e20)" style="fill: none; stroke: #ffc400; stroke-width: 1.2"/>
    <path d="M 464.545641 260.93188 
L 464.545641 242.792034 
" clip-path="url(#p09121f9e20)" style="fill: none; stroke: #ffc400; stroke-width: 1.2"/>
    <path d="M 495.392419 271.51859 
L 495.392419 254.993001 
" clip-path="url(#p09121f9e20)" style="fill: none; stroke: #ffc400; stroke-width: 1.2"/>
    <path d="M 526.239196 276.802651 
L 526.239196 261.625919 
" clip-path="url(#p09121f9e20)" style="fill: none; stroke: #ffc400; stroke-width: 1.2"/>
   </g>
   <g id="line2d_46">
    <defs>
     <path id="m67b12784dc" d="M 3 0 
L -3 -0 
"/>
    </defs>
    <g clip-path="url(#p09121f9e20)">
     <use xlink:href="#m67b12784dc" x="186.924645" y="112.16501" style="fill: #ffc400"/>
     <use xlink:href="#m67b12784dc" x="217.771422" y="140.216781" style="fill: #ffc400"/>
     <use xlink:href="#m67b12784dc" x="248.618199" y="140.311079" style="fill: #ffc400"/>
     <use xlink:href="#m67b12784dc" x="279.464977" y="156.968438" style="fill: #ffc400"/>
     <use xlink:href="#m67b12784dc" x="310.311754" y="187.807133" style="fill: #ffc400"/>
     <use xlink:href="#m67b12784dc" x="341.158532" y="207.522223" style="fill: #ffc400"/>
     <use xlink:href="#m67b12784dc" x="372.005309" y="220.695218" style="fill: #ffc400"/>
     <use xlink:href="#m67b12784dc" x="402.852087" y="237.825279" style="fill: #ffc400"/>
     <use xlink:href="#m67b12784dc" x="433.698864" y="252.282133" style="fill: #ffc400"/>
     <use xlink:href="#m67b12784dc" x="464.545641" y="260.93188" style="fill: #ffc400"/>
     <use xlink:href="#m67b12784dc" x="495.392419" y="271.51859" style="fill: #ffc400"/>
     <use xlink:href="#m67b12784dc" x="526.239196" y="276.802651" style="fill: #ffc400"/>
    </g>
   </g>
   <g id="line2d_47">
    <g clip-path="url(#p09121f9e20)">
     <use xlink:href="#m67b12784dc" x="186.924645" y="69.006793" style="fill: #ffc400"/>
     <use xlink:href="#m67b12784dc" x="217.771422" y="98.931276" style="fill: #ffc400"/>
     <use xlink:href="#m67b12784dc" x="248.618199" y="101.738985" style="fill: #ffc400"/>
     <use xlink:href="#m67b12784dc" x="279.464977" y="121.753902" style="fill: #ffc400"/>
     <use xlink:href="#m67b12784dc" x="310.311754" y="156.187365" style="fill: #ffc400"/>
     <use xlink:href="#m67b12784dc" x="341.158532" y="179.359984" style="fill: #ffc400"/>
     <use xlink:href="#m67b12784dc" x="372.005309" y="195.64298" style="fill: #ffc400"/>
     <use xlink:href="#m67b12784dc" x="402.852087" y="215.467902" style="fill: #ffc400"/>
     <use xlink:href="#m67b12784dc" x="433.698864" y="232.214926" style="fill: #ffc400"/>
     <use xlink:href="#m67b12784dc" x="464.545641" y="242.792034" style="fill: #ffc400"/>
     <use xlink:href="#m67b12784dc" x="495.392419" y="254.993001" style="fill: #ffc400"/>
     <use xlink:href="#m67b12784dc" x="526.239196" y="261.625919" style="fill: #ffc400"/>
    </g>
   </g>
   <g id="LineCollection_3">
    <path d="M 186.924645 222.599708 
L 186.924645 198.557464 
" clip-path="url(#p09121f9e20)" style="fill: none; stroke: #27ae60; stroke-width: 1.2"/>
    <path d="M 214.429803 235.090053 
L 214.429803 212.261832 
" clip-path="url(#p09121f9e20)" style="fill: none; stroke: #27ae60; stroke-width: 1.2"/>
    <path d="M 241.934961 245.555871 
L 241.934961 224.178982 
" clip-path="url(#p09121f9e20)" style="fill: none; stroke: #27ae60; stroke-width: 1.2"/>
    <path d="M 269.44012 251.678025 
L 269.44012 231.847268 
" clip-path="url(#p09121f9e20)" style="fill: none; stroke: #27ae60; stroke-width: 1.2"/>
    <path d="M 296.945278 261.270819 
L 296.945278 242.948254 
" clip-path="url(#p09121f9e20)" style="fill: none; stroke: #27ae60; stroke-width: 1.2"/>
    <path d="M 324.450437 267.884906 
L 324.450437 250.949775 
" clip-path="url(#p09121f9e20)" style="fill: none; stroke: #27ae60; stroke-width: 1.2"/>
    <path d="M 351.955595 276.445478 
L 351.955595 260.742378 
" clip-path="url(#p09121f9e20)" style="fill: none; stroke: #27ae60; stroke-width: 1.2"/>
    <path d="M 379.460754 285.641814 
L 379.460754 271.011065 
" clip-path="url(#p09121f9e20)" style="fill: none; stroke: #27ae60; stroke-width: 1.2"/>
    <path d="M 406.965912 287.201813 
L 406.965912 273.494279 
" clip-path="url(#p09121f9e20)" style="fill: none; stroke: #27ae60; stroke-width: 1.2"/>
    <path d="M 434.47107 293.916518 
L 434.47107 280.999166 
" clip-path="url(#p09121f9e20)" style="fill: none; stroke: #27ae60; stroke-width: 1.2"/>
    <path d="M 461.976229 295.513014 
L 461.976229 283.269889 
" clip-path="url(#p09121f9e20)" style="fill: none; stroke: #27ae60; stroke-width: 1.2"/>
    <path d="M 489.481387 299.894105 
L 489.481387 288.225328 
" clip-path="url(#p09121f9e20)" style="fill: none; stroke: #27ae60; stroke-width: 1.2"/>
   </g>
   <g id="line2d_48">
    <defs>
     <path id="mbdb98cf963" d="M 3 0 
L -3 -0 
"/>
    </defs>
    <g clip-path="url(#p09121f9e20)">
     <use xlink:href="#mbdb98cf963" x="186.924645" y="222.599708" style="fill: #27ae60"/>
     <use xlink:href="#mbdb98cf963" x="214.429803" y="235.090053" style="fill: #27ae60"/>
     <use xlink:href="#mbdb98cf963" x="241.934961" y="245.555871" style="fill: #27ae60"/>
     <use xlink:href="#mbdb98cf963" x="269.44012" y="251.678025" style="fill: #27ae60"/>
     <use xlink:href="#mbdb98cf963" x="296.945278" y="261.270819" style="fill: #27ae60"/>
     <use xlink:href="#mbdb98cf963" x="324.450437" y="267.884906" style="fill: #27ae60"/>
     <use xlink:href="#mbdb98cf963" x="351.955595" y="276.445478" style="fill: #27ae60"/>
     <use xlink:href="#mbdb98cf963" x="379.460754" y="285.641814" style="fill: #27ae60"/>
     <use xlink:href="#mbdb98cf963" x="406.965912" y="287.201813" style="fill: #27ae60"/>
     <use xlink:href="#mbdb98cf963" x="434.47107" y="293.916518" style="fill: #27ae60"/>
     <use xlink:href="#mbdb98cf963" x="461.976229" y="295.513014" style="fill: #27ae60"/>
     <use xlink:href="#mbdb98cf963" x="489.481387" y="299.894105" style="fill: #27ae60"/>
    </g>
   </g>
   <g id="line2d_49">
    <g clip-path="url(#p09121f9e20)">
     <use xlink:href="#mbdb98cf963" x="186.924645" y="198.557464" style="fill: #27ae60"/>
     <use xlink:href="#mbdb98cf963" x="214.429803" y="212.261832" style="fill: #27ae60"/>
     <use xlink:href="#mbdb98cf963" x="241.934961" y="224.178982" style="fill: #27ae60"/>
     <use xlink:href="#mbdb98cf963" x="269.44012" y="231.847268" style="fill: #27ae60"/>
     <use xlink:href="#mbdb98cf963" x="296.945278" y="242.948254" style="fill: #27ae60"/>
     <use xlink:href="#mbdb98cf963" x="324.450437" y="250.949775" style="fill: #27ae60"/>
     <use xlink:href="#mbdb98cf963" x="351.955595" y="260.742378" style="fill: #27ae60"/>
     <use xlink:href="#mbdb98cf963" x="379.460754" y="271.011065" style="fill: #27ae60"/>
     <use xlink:href="#mbdb98cf963" x="406.965912" y="273.494279" style="fill: #27ae60"/>
     <use xlink:href="#mbdb98cf963" x="434.47107" y="280.999166" style="fill: #27ae60"/>
     <use xlink:href="#mbdb98cf963" x="461.976229" y="283.269889" style="fill: #27ae60"/>
     <use xlink:href="#mbdb98cf963" x="489.481387" y="288.225328" style="fill: #27ae60"/>
    </g>
   </g>
   <g id="LineCollection_4">
    <path d="M 186.924645 190.687489 
L 186.924645 158.857191 
" clip-path="url(#p09121f9e20)" style="fill: none; stroke: #ff6b6b; stroke-width: 1.2"/>
    <path d="M 216.825958 180.38356 
L 216.825958 148.824689 
" clip-path="url(#p09121f9e20)" style="fill: none; stroke: #ff6b6b; stroke-width: 1.2"/>
    <path d="M 246.727272 190.376197 
L 246.727272 159.238169 
" clip-path="url(#p09121f9e20)" style="fill: none; stroke: #ff6b6b; stroke-width: 1.2"/>
    <path d="M 276.628586 193.258107 
L 276.628586 162.741735 
" clip-path="url(#p09121f9e20)" style="fill: none; stroke: #ff6b6b; stroke-width: 1.2"/>
    <path d="M 306.5299 205.67666 
L 306.5299 176.021241 
" clip-path="url(#p09121f9e20)" style="fill: none; stroke: #ff6b6b; stroke-width: 1.2"/>
    <path d="M 336.431214 202.81908 
L 336.431214 174.267366 
" clip-path="url(#p09121f9e20)" style="fill: none; stroke: #ff6b6b; stroke-width: 1.2"/>
    <path d="M 366.332527 216.73901 
L 366.332527 189.49096 
" clip-path="url(#p09121f9e20)" style="fill: none; stroke: #ff6b6b; stroke-width: 1.2"/>
    <path d="M 396.233841 219.265531 
L 396.233841 193.444248 
" clip-path="url(#p09121f9e20)" style="fill: none; stroke: #ff6b6b; stroke-width: 1.2"/>
    <path d="M 426.135155 225.687458 
L 426.135155 201.332435 
" clip-path="url(#p09121f9e20)" style="fill: none; stroke: #ff6b6b; stroke-width: 1.2"/>
    <path d="M 456.036469 234.112828 
L 456.036469 211.1957 
" clip-path="url(#p09121f9e20)" style="fill: none; stroke: #ff6b6b; stroke-width: 1.2"/>
    <path d="M 485.937783 235.822342 
L 485.937783 214.270591 
" clip-path="url(#p09121f9e20)" style="fill: none; stroke: #ff6b6b; stroke-width: 1.2"/>
    <path d="M 515.839096 251.946702 
L 515.839096 231.664595 
" clip-path="url(#p09121f9e20)" style="fill: none; stroke: #ff6b6b; stroke-width: 1.2"/>
   </g>
   <g id="line2d_50">
    <defs>
     <path id="m6bd2c90a4a" d="M 3 0 
L -3 -0 
"/>
    </defs>
    <g clip-path="url(#p09121f9e20)">
     <use xlink:href="#m6bd2c90a4a" x="186.924645" y="190.687489" style="fill: #ff6b6b"/>
     <use xlink:href="#m6bd2c90a4a" x="216.825958" y="180.38356" style="fill: #ff6b6b"/>
     <use xlink:href="#m6bd2c90a4a" x="246.727272" y="190.376197" style="fill: #ff6b6b"/>
     <use xlink:href="#m6bd2c90a4a" x="276.628586" y="193.258107" style="fill: #ff6b6b"/>
     <use xlink:href="#m6bd2c90a4a" x="306.5299" y="205.67666" style="fill: #ff6b6b"/>
     <use xlink:href="#m6bd2c90a4a" x="336.431214" y="202.81908" style="fill: #ff6b6b"/>
     <use xlink:href="#m6bd2c90a4a" x="366.332527" y="216.73901" style="fill: #ff6b6b"/>
     <use xlink:href="#m6bd2c90a4a" x="396.233841" y="219.265531" style="fill: #ff6b6b"/>
     <use xlink:href="#m6bd2c90a4a" x="426.135155" y="225.687458" style="fill: #ff6b6b"/>
     <use xlink:href="#m6bd2c90a4a" x="456.036469" y="234.112828" style="fill: #ff6b6b"/>
     <use xlink:href="#m6bd2c90a4a" x="485.937783" y="235.822342" style="fill: #ff6b6b"/>
     <use xlink:href="#m6bd2c90a4a" x="515.839096" y="251.946702" style="fill: #ff6b6b"/>
    </g>
   </g>
   <g id="line2d_51">
    <g clip-path="url(#p09121f9e20)">
     <use xlink:href="#m6bd2c90a4a" x="186.924645" y="158.857191" style="fill: #ff6b6b"/>
     <use xlink:href="#m6bd2c90a4a" x="216.825958" y="148.824689" style="fill: #ff6b6b"/>
     <use xlink:href="#m6bd2c90a4a" x="246.727272" y="159.238169" style="fill: #ff6b6b"/>
     <use xlink:href="#m6bd2c90a4a" x="276.628586" y="162.741735" style="fill: #ff6b6b"/>
     <use xlink:href="#m6bd2c90a4a" x="306.5299" y="176.021241" style="fill: #ff6b6b"/>
     <use xlink:href="#m6bd2c90a4a" x="336.431214" y="174.267366" style="fill: #ff6b6b"/>
     <use xlink:href="#m6bd2c90a4a" x="366.332527" y="189.49096" style="fill: #ff6b6b"/>
     <use xlink:href="#m6bd2c90a4a" x="396.233841" y="193.444248" style="fill: #ff6b6b"/>
     <use xlink:href="#m6bd2c90a4a" x="426.135155" y="201.332435" style="fill: #ff6b6b"/>
     <use xlink:href="#m6bd2c90a4a" x="456.036469" y="211.1957" style="fill: #ff6b6b"/>
     <use xlink:href="#m6bd2c90a4a" x="485.937783" y="214.270591" style="fill: #ff6b6b"/>
     <use xlink:href="#m6bd2c90a4a" x="515.839096" y="231.664595" style="fill: #ff6b6b"/>
    </g>
   </g>
   <g id="LineCollection_5">
    <path d="M 186.924645 122.765514 
L 186.924645 80.065228 
" clip-path="url(#p09121f9e20)" style="fill: none; stroke: #8e44ad; stroke-width: 1.2"/>
    <path d="M 219.576503 136.190581 
L 219.576503 94.910729 
" clip-path="url(#p09121f9e20)" style="fill: none; stroke: #8e44ad; stroke-width: 1.2"/>
    <path d="M 252.228362 141.319 
L 252.228362 102.336634 
" clip-path="url(#p09121f9e20)" style="fill: none; stroke: #8e44ad; stroke-width: 1.2"/>
    <path d="M 284.88022 148.413887 
L 284.88022 112.57503 
" clip-path="url(#p09121f9e20)" style="fill: none; stroke: #8e44ad; stroke-width: 1.2"/>
    <path d="M 317.532079 178.8035 
L 317.532079 146.581307 
" clip-path="url(#p09121f9e20)" style="fill: none; stroke: #8e44ad; stroke-width: 1.2"/>
    <path d="M 350.183938 192.373274 
L 350.183938 163.768714 
" clip-path="url(#p09121f9e20)" style="fill: none; stroke: #8e44ad; stroke-width: 1.2"/>
    <path d="M 382.835796 216.528254 
L 382.835796 191.226398 
" clip-path="url(#p09121f9e20)" style="fill: none; stroke: #8e44ad; stroke-width: 1.2"/>
    <path d="M 415.487655 234.673725 
L 415.487655 212.236539 
" clip-path="url(#p09121f9e20)" style="fill: none; stroke: #8e44ad; stroke-width: 1.2"/>
    <path d="M 448.139514 252.433145 
L 448.139514 232.416519 
" clip-path="url(#p09121f9e20)" style="fill: none; stroke: #8e44ad; stroke-width: 1.2"/>
    <path d="M 480.791372 266.093611 
L 480.791372 248.096448 
" clip-path="url(#p09121f9e20)" style="fill: none; stroke: #8e44ad; stroke-width: 1.2"/>
    <path d="M 513.443231 273.916317 
L 513.443231 257.593863 
" clip-path="url(#p09121f9e20)" style="fill: none; stroke: #8e44ad; stroke-width: 1.2"/>
    <path clip-path="url(#p09121f9e20)" style="fill: none; stroke: #8e44ad; stroke-width: 1.2"/>
   </g>
   <g id="line2d_52">
    <defs>
     <path id="m2cc147d18d" d="M 3 0 
L -3 -0 
"/>
    </defs>
    <g clip-path="url(#p09121f9e20)">
     <use xlink:href="#m2cc147d18d" x="186.924645" y="122.765514" style="fill: #8e44ad"/>
     <use xlink:href="#m2cc147d18d" x="219.576503" y="136.190581" style="fill: #8e44ad"/>
     <use xlink:href="#m2cc147d18d" x="252.228362" y="141.319" style="fill: #8e44ad"/>
     <use xlink:href="#m2cc147d18d" x="284.88022" y="148.413887" style="fill: #8e44ad"/>
     <use xlink:href="#m2cc147d18d" x="317.532079" y="178.8035" style="fill: #8e44ad"/>
     <use xlink:href="#m2cc147d18d" x="350.183938" y="192.373274" style="fill: #8e44ad"/>
     <use xlink:href="#m2cc147d18d" x="382.835796" y="216.528254" style="fill: #8e44ad"/>
     <use xlink:href="#m2cc147d18d" x="415.487655" y="234.673725" style="fill: #8e44ad"/>
     <use xlink:href="#m2cc147d18d" x="448.139514" y="252.433145" style="fill: #8e44ad"/>
     <use xlink:href="#m2cc147d18d" x="480.791372" y="266.093611" style="fill: #8e44ad"/>
     <use xlink:href="#m2cc147d18d" x="513.443231" y="273.916317" style="fill: #8e44ad"/>
     <use xlink:href="#m2cc147d18d" x="546.09509" y="282.604343" style="fill: #8e44ad"/>
    </g>
   </g>
   <g id="line2d_53">
    <g clip-path="url(#p09121f9e20)">
     <use xlink:href="#m2cc147d18d" x="186.924645" y="80.065228" style="fill: #8e44ad"/>
     <use xlink:href="#m2cc147d18d" x="219.576503" y="94.910729" style="fill: #8e44ad"/>
     <use xlink:href="#m2cc147d18d" x="252.228362" y="102.336634" style="fill: #8e44ad"/>
     <use xlink:href="#m2cc147d18d" x="284.88022" y="112.57503" style="fill: #8e44ad"/>
     <use xlink:href="#m2cc147d18d" x="317.532079" y="146.581307" style="fill: #8e44ad"/>
     <use xlink:href="#m2cc147d18d" x="350.183938" y="163.768714" style="fill: #8e44ad"/>
     <use xlink:href="#m2cc147d18d" x="382.835796" y="191.226398" style="fill: #8e44ad"/>
     <use xlink:href="#m2cc147d18d" x="415.487655" y="212.236539" style="fill: #8e44ad"/>
     <use xlink:href="#m2cc147d18d" x="448.139514" y="232.416519" style="fill: #8e44ad"/>
     <use xlink:href="#m2cc147d18d" x="480.791372" y="248.096448" style="fill: #8e44ad"/>
     <use xlink:href="#m2cc147d18d" x="513.443231" y="257.593863" style="fill: #8e44ad"/>
     <use xlink:href="#m2cc147d18d" x="546.09509" y="267.666789" style="fill: #8e44ad"/>
    </g>
   </g>
   <g id="text_13">
    <!-- Chandra X-ray Observations (Vikhlinin et al. 2006) -->
    <g style="fill: #5a6470" transform="translate(169.836094 39.284219) scale(0.11 -0.11)">
     <defs>
      <path id="ArialMT-43" d="M 3763 1606 
L 4369 1453 
Q 4178 706 3683 314 
Q 3188 -78 2472 -78 
Q 1731 -78 1267 223 
Q 803 525 561 1097 
Q 319 1669 319 2325 
Q 319 3041 592 3573 
Q 866 4106 1370 4382 
Q 1875 4659 2481 4659 
Q 3169 4659 3637 4309 
Q 4106 3959 4291 3325 
L 3694 3184 
Q 3534 3684 3231 3912 
Q 2928 4141 2469 4141 
Q 1941 4141 1586 3887 
Q 1231 3634 1087 3207 
Q 944 2781 944 2328 
Q 944 1744 1114 1308 
Q 1284 872 1643 656 
Q 2003 441 2422 441 
Q 2931 441 3284 734 
Q 3638 1028 3763 1606 
z
" transform="scale(0.015625)"/>
      <path id="ArialMT-68" d="M 422 0 
L 422 4581 
L 984 4581 
L 984 2938 
Q 1378 3394 1978 3394 
Q 2347 3394 2619 3248 
Q 2891 3103 3008 2847 
Q 3125 2591 3125 2103 
L 3125 0 
L 2563 0 
L 2563 2103 
Q 2563 2525 2380 2717 
Q 2197 2909 1863 2909 
Q 1613 2909 1392 2779 
Q 1172 2650 1078 2428 
Q 984 2206 984 1816 
L 984 0 
L 422 0 
z
" transform="scale(0.015625)"/>
      <path id="ArialMT-6e" d="M 422 0 
L 422 3319 
L 928 3319 
L 928 2847 
Q 1294 3394 1984 3394 
Q 2284 3394 2536 3286 
Q 2788 3178 2913 3003 
Q 3038 2828 3088 2588 
Q 3119 2431 3119 2041 
L 3119 0 
L 2556 0 
L 2556 2019 
Q 2556 2363 2490 2533 
Q 2425 2703 2258 2804 
Q 2091 2906 1866 2906 
Q 1506 2906 1245 2678 
Q 984 2450 984 1813 
L 984 0 
L 422 0 
z
" transform="scale(0.015625)"/>
      <path id="ArialMT-58" d="M 28 0 
L 1800 2388 
L 238 4581 
L 959 4581 
L 1791 3406 
Q 2050 3041 2159 2844 
Q 2313 3094 2522 3366 
L 3444 4581 
L 4103 4581 
L 2494 2422 
L 4228 0 
L 3478 0 
L 2325 1634 
Q 2228 1775 2125 1941 
Q 1972 1691 1906 1597 
L 756 0 
L 28 0 
z
" transform="scale(0.015625)"/>
      <path id="ArialMT-2d" d="M 203 1375 
L 203 1941 
L 1931 1941 
L 1931 1375 
L 203 1375 
z
" transform="scale(0.015625)"/>
      <path id="ArialMT-79" d="M 397 -1278 
L 334 -750 
Q 519 -800 656 -800 
Q 844 -800 956 -737 
Q 1069 -675 1141 -563 
Q 1194 -478 1313 -144 
Q 1328 -97 1363 -6 
L 103 3319 
L 709 3319 
L 1400 1397 
Q 1534 1031 1641 628 
Q 1738 1016 1872 1384 
L 2581 3319 
L 3144 3319 
L 1881 -56 
Q 1678 -603 1566 -809 
Q 1416 -1088 1222 -1217 
Q 1028 -1347 759 -1347 
Q 597 -1347 397 -1278 
z
" transform="scale(0.015625)"/>
      <path id="ArialMT-4f" d="M 309 2231 
Q 309 3372 921 4017 
Q 1534 4663 2503 4663 
Q 3138 4663 3647 4359 
Q 4156 4056 4423 3514 
Q 4691 2972 4691 2284 
Q 4691 1588 4409 1038 
Q 4128 488 3612 205 
Q 3097 -78 2500 -78 
Q 1853 -78 1343 234 
Q 834 547 571 1087 
Q 309 1628 309 2231 
z
M 934 2222 
Q 934 1394 1379 917 
Q 1825 441 2497 441 
Q 3181 441 3623 922 
Q 4066 1403 4066 2288 
Q 4066 2847 3877 3264 
Q 3688 3681 3323 3911 
Q 2959 4141 2506 4141 
Q 1863 4141 1398 3698 
Q 934 3256 934 2222 
z
" transform="scale(0.015625)"/>
      <path id="ArialMT-62" d="M 941 0 
L 419 0 
L 419 4581 
L 981 4581 
L 981 2947 
Q 1338 3394 1891 3394 
Q 2197 3394 2470 3270 
Q 2744 3147 2920 2923 
Q 3097 2700 3197 2384 
Q 3297 2069 3297 1709 
Q 3297 856 2875 390 
Q 2453 -75 1863 -75 
Q 1275 -75 941 416 
L 941 0 
z
M 934 1684 
Q 934 1088 1097 822 
Q 1363 388 1816 388 
Q 2184 388 2453 708 
Q 2722 1028 2722 1663 
Q 2722 2313 2464 2622 
Q 2206 2931 1841 2931 
Q 1472 2931 1203 2611 
Q 934 2291 934 1684 
z
" transform="scale(0.015625)"/>
      <path id="ArialMT-76" d="M 1344 0 
L 81 3319 
L 675 3319 
L 1388 1331 
Q 1503 1009 1600 663 
Q 1675 925 1809 1294 
L 2547 3319 
L 3125 3319 
L 1869 0 
L 1344 0 
z
" transform="scale(0.015625)"/>
      <path id="ArialMT-6f" d="M 213 1659 
Q 213 2581 725 3025 
Q 1153 3394 1769 3394 
Q 2453 3394 2887 2945 
Q 3322 2497 3322 1706 
Q 3322 1066 3130 698 
Q 2938 331 2570 128 
Q 2203 -75 1769 -75 
Q 1072 -75 642 372 
Q 213 819 213 1659 
z
M 791 1659 
Q 791 1022 1069 705 
Q 1347 388 1769 388 
Q 2188 388 2466 706 
Q 2744 1025 2744 1678 
Q 2744 2294 2464 2611 
Q 2184 2928 1769 2928 
Q 1347 2928 1069 2612 
Q 791 2297 791 1659 
z
" transform="scale(0.015625)"/>
      <path id="ArialMT-28" d="M 1497 -1347 
Q 1031 -759 709 28 
Q 388 816 388 1659 
Q 388 2403 628 3084 
Q 909 3875 1497 4659 
L 1900 4659 
Q 1522 4009 1400 3731 
Q 1209 3300 1100 2831 
Q 966 2247 966 1656 
Q 966 153 1900 -1347 
L 1497 -1347 
z
" transform="scale(0.015625)"/>
      <path id="ArialMT-6c" d="M 409 0 
L 409 4581 
L 972 4581 
L 972 0 
L 409 0 
z
" transform="scale(0.015625)"/>
      <path id="ArialMT-2e" d="M 581 0 
L 581 641 
L 1222 641 
L 1222 0 
L 581 0 
z
" transform="scale(0.015625)"/>
      <path id="ArialMT-32" d="M 3222 541 
L 3222 0 
L 194 0 
Q 188 203 259 391 
Q 375 700 629 1000 
Q 884 1300 1366 1694 
Q 2113 2306 2375 2664 
Q 2638 3022 2638 3341 
Q 2638 3675 2398 3904 
Q 2159 4134 1775 4134 
Q 1369 4134 1125 3890 
Q 881 3647 878 3216 
L 300 3275 
Q 359 3922 746 4261 
Q 1134 4600 1788 4600 
Q 2447 4600 2831 4234 
Q 3216 3869 3216 3328 
Q 3216 3053 3103 2787 
Q 2991 2522 2730 2228 
Q 2469 1934 1863 1422 
Q 1356 997 1212 845 
Q 1069 694 975 541 
L 3222 541 
z
" transform="scale(0.015625)"/>
      <path id="ArialMT-30" d="M 266 2259 
Q 266 3072 433 3567 
Q 600 4063 929 4331 
Q 1259 4600 1759 4600 
Q 2128 4600 2406 4451 
Q 2684 4303 2865 4023 
Q 3047 3744 3150 3342 
Q 3253 2941 3253 2259 
Q 3253 1453 3087 958 
Q 2922 463 2592 192 
Q 2263 -78 1759 -78 
Q 1097 -78 719 397 
Q 266 969 266 2259 
z
M 844 2259 
Q 844 1131 1108 757 
Q 1372 384 1759 384 
Q 2147 384 2411 759 
Q 2675 1134 2675 2259 
Q 2675 3391 2411 3762 
Q 2147 4134 1753 4134 
Q 1366 4134 1134 3806 
Q 844 3388 844 2259 
z
" transform="scale(0.015625)"/>
      <path id="ArialMT-36" d="M 3184 3459 
L 2625 3416 
Q 2550 3747 2413 3897 
Q 2184 4138 1850 4138 
Q 1581 4138 1378 3988 
Q 1113 3794 959 3422 
Q 806 3050 800 2363 
Q 1003 2672 1297 2822 
Q 1591 2972 1913 2972 
Q 2475 2972 2870 2558 
Q 3266 2144 3266 1488 
Q 3266 1056 3080 686 
Q 2894 316 2569 119 
Q 2244 -78 1831 -78 
Q 1128 -78 684 439 
Q 241 956 241 2144 
Q 241 3472 731 4075 
Q 1159 4600 1884 4600 
Q 2425 4600 2770 4297 
Q 3116 3994 3184 3459 
z
M 888 1484 
Q 888 1194 1011 928 
Q 1134 663 1356 523 
Q 1578 384 1822 384 
Q 2178 384 2434 671 
Q 2691 959 2691 1453 
Q 2691 1928 2437 2201 
Q 2184 2475 1800 2475 
Q 1419 2475 1153 2201 
Q 888 1928 888 1484 
z
" transform="scale(0.015625)"/>
      <path id="ArialMT-29" d="M 791 -1347 
L 388 -1347 
Q 1322 153 1322 1656 
Q 1322 2244 1188 2822 
Q 1081 3291 891 3722 
Q 769 4003 388 4659 
L 791 4659 
Q 1378 3875 1659 3084 
Q 1900 2403 1900 1659 
Q 1900 816 1576 28 
Q 1253 -759 791 -1347 
z
" transform="scale(0.015625)"/>
     </defs>
     <use xlink:href="#ArialMT-43"/>
     <use xlink:href="#ArialMT-68" transform="translate(72.216797 0)"/>
     <use xlink:href="#ArialMT-61" transform="translate(127.832031 0)"/>
     <use xlink:href="#ArialMT-6e" transform="translate(183.447266 0)"/>
     <use xlink:href="#ArialMT-64" transform="translate(239.0625 0)"/>
     <use xlink:href="#ArialMT-72" transform="translate(294.677734 0)"/>
     <use xlink:href="#ArialMT-61" transform="translate(327.978516 0)"/>
     <use xlink:href="#ArialMT-20" transform="translate(383.59375 0)"/>
     <use xlink:href="#ArialMT-58" transform="translate(411.376953 0)"/>
     <use xlink:href="#ArialMT-2d" transform="translate(478.076172 0)"/>
     <use xlink:href="#ArialMT-72" transform="translate(511.376953 0)"/>
     <use xlink:href="#ArialMT-61" transform="translate(544.677734 0)"/>
     <use xlink:href="#ArialMT-79" transform="translate(600.292969 0)"/>
     <use xlink:href="#ArialMT-20" transform="translate(650.292969 0)"/>
     <use xlink:href="#ArialMT-4f" transform="translate(678.076172 0)"/>
     <use xlink:href="#ArialMT-62" transform="translate(755.859375 0)"/>
     <use xlink:href="#ArialMT-73" transform="translate(811.474609 0)"/>
     <use xlink:href="#ArialMT-65" transform="translate(861.474609 0)"/>
     <use xlink:href="#ArialMT-72" transform="translate(917.089844 0)"/>
     <use xlink:href="#ArialMT-76" transform="translate(950.390625 0)"/>
     <use xlink:href="#ArialMT-61" transform="translate(1000.390625 0)"/>
     <use xlink:href="#ArialMT-74" transform="translate(1056.005859 0)"/>
     <use xlink:href="#ArialMT-69" transform="translate(1083.789062 0)"/>
     <use xlink:href="#ArialMT-6f" transform="translate(1106.005859 0)"/>
     <use xlink:href="#ArialMT-6e" transform="translate(1161.621094 0)"/>
     <use xlink:href="#ArialMT-73" transform="translate(1217.236328 0)"/>
     <use xlink:href="#ArialMT-20" transform="translate(1267.236328 0)"/>
     <use xlink:href="#ArialMT-28" transform="translate(1295.019531 0)"/>
     <use xlink:href="#ArialMT-56" transform="translate(1328.320312 0)"/>
     <use xlink:href="#ArialMT-69" transform="translate(1393.269531 0)"/>
     <use xlink:href="#ArialMT-6b" transform="translate(1415.486328 0)"/>
     <use xlink:href="#ArialMT-68" transform="translate(1465.486328 0)"/>
     <use xlink:href="#ArialMT-6c" transform="translate(1521.101562 0)"/>
     <use xlink:href="#ArialMT-69" transform="translate(1543.318359 0)"/>
     <use xlink:href="#ArialMT-6e" transform="translate(1565.535156 0)"/>
     <use xlink:href="#ArialMT-69" transform="translate(1621.150391 0)"/>
     <use xlink:href="#ArialMT-6e" transform="translate(1643.367188 0)"/>
     <use xlink:href="#ArialMT-20" transform="translate(1698.982422 0)"/>
     <use xlink:href="#ArialMT-65" transform="translate(1726.765625 0)"/>
     <use xlink:href="#ArialMT-74" transform="translate(1782.380859 0)"/>
     <use xlink:href="#ArialMT-20" transform="translate(1810.164062 0)"/>
     <use xlink:href="#ArialMT-61" transform="translate(1837.947266 0)"/>
     <use xlink:href="#ArialMT-6c" transform="translate(1893.5625 0)"/>
     <use xlink:href="#ArialMT-2e" transform="translate(1915.779297 0)"/>
     <use xlink:href="#ArialMT-20" transform="translate(1943.5625 0)"/>
     <use xlink:href="#ArialMT-32" transform="translate(1971.345703 0)"/>
     <use xlink:href="#ArialMT-30" transform="translate(2026.960938 0)"/>
     <use xlink:href="#ArialMT-30" transform="translate(2082.576172 0)"/>
     <use xlink:href="#ArialMT-36" transform="translate(2138.191406 0)"/>
     <use xlink:href="#ArialMT-29" transform="translate(2193.806641 0)"/>
    </g>
   </g>
   <g id="text_14">
    <!-- Galaxy Cluster Temperature Profiles -->
    <g style="fill: #586172" transform="translate(131.892812 21.759375) scale(0.2 -0.2)">
     <defs>
      <path id="ArialMT-47" d="M 2638 1797 
L 2638 2334 
L 4578 2338 
L 4578 638 
Q 4131 281 3656 101 
Q 3181 -78 2681 -78 
Q 2006 -78 1454 211 
Q 903 500 622 1047 
Q 341 1594 341 2269 
Q 341 2938 620 3517 
Q 900 4097 1425 4378 
Q 1950 4659 2634 4659 
Q 3131 4659 3532 4498 
Q 3934 4338 4162 4050 
Q 4391 3763 4509 3300 
L 3963 3150 
Q 3859 3500 3706 3700 
Q 3553 3900 3268 4020 
Q 2984 4141 2638 4141 
Q 2222 4141 1919 4014 
Q 1616 3888 1430 3681 
Q 1244 3475 1141 3228 
Q 966 2803 966 2306 
Q 966 1694 1177 1281 
Q 1388 869 1791 669 
Q 2194 469 2647 469 
Q 3041 469 3416 620 
Q 3791 772 3984 944 
L 3984 1797 
L 2638 1797 
z
" transform="scale(0.015625)"/>
      <path id="ArialMT-78" d="M 47 0 
L 1259 1725 
L 138 3319 
L 841 3319 
L 1350 2541 
Q 1494 2319 1581 2169 
Q 1719 2375 1834 2534 
L 2394 3319 
L 3066 3319 
L 1919 1756 
L 3153 0 
L 2463 0 
L 1781 1031 
L 1600 1309 
L 728 0 
L 47 0 
z
" transform="scale(0.015625)"/>
      <path id="ArialMT-50" d="M 494 0 
L 494 4581 
L 2222 4581 
Q 2678 4581 2919 4538 
Q 3256 4481 3484 4323 
Q 3713 4166 3852 3881 
Q 3991 3597 3991 3256 
Q 3991 2672 3619 2267 
Q 3247 1863 2275 1863 
L 1100 1863 
L 1100 0 
L 494 0 
z
M 1100 2403 
L 2284 2403 
Q 2872 2403 3119 2622 
Q 3366 2841 3366 3238 
Q 3366 3525 3220 3729 
Q 3075 3934 2838 4000 
Q 2684 4041 2272 4041 
L 1100 4041 
L 1100 2403 
z
" transform="scale(0.015625)"/>
      <path id="ArialMT-66" d="M 556 0 
L 556 2881 
L 59 2881 
L 59 3319 
L 556 3319 
L 556 3672 
Q 556 4006 616 4169 
Q 697 4388 901 4523 
Q 1106 4659 1475 4659 
Q 1713 4659 2000 4603 
L 1916 4113 
Q 1741 4144 1584 4144 
Q 1328 4144 1222 4034 
Q 1116 3925 1116 3625 
L 1116 3319 
L 1763 3319 
L 1763 2881 
L 1116 2881 
L 1116 0 
L 556 0 
z
" transform="scale(0.015625)"/>
     </defs>
     <use xlink:href="#ArialMT-47"/>
     <use xlink:href="#ArialMT-61" transform="translate(77.783203 0)"/>
     <use xlink:href="#ArialMT-6c" transform="translate(133.398438 0)"/>
     <use xlink:href="#ArialMT-61" transform="translate(155.615234 0)"/>
     <use xlink:href="#ArialMT-78" transform="translate(211.230469 0)"/>
     <use xlink:href="#ArialMT-79" transform="translate(261.230469 0)"/>
     <use xlink:href="#ArialMT-20" transform="translate(311.230469 0)"/>
     <use xlink:href="#ArialMT-43" transform="translate(339.013672 0)"/>
     <use xlink:href="#ArialMT-6c" transform="translate(411.230469 0)"/>
     <use xlink:href="#ArialMT-75" transform="translate(433.447266 0)"/>
     <use xlink:href="#ArialMT-73" transform="translate(489.0625 0)"/>
     <use xlink:href="#ArialMT-74" transform="translate(539.0625 0)"/>
     <use xlink:href="#ArialMT-65" transform="translate(566.845703 0)"/>
     <use xlink:href="#ArialMT-72" transform="translate(622.460938 0)"/>
     <use xlink:href="#ArialMT-20" transform="translate(655.761719 0)"/>
     <use xlink:href="#ArialMT-54" transform="translate(681.794922 0)"/>
     <use xlink:href="#ArialMT-65" transform="translate(731.753906 0)"/>
     <use xlink:href="#ArialMT-6d" transform="translate(787.369141 0)"/>
     <use xlink:href="#ArialMT-70" transform="translate(870.669922 0)"/>
     <use xlink:href="#ArialMT-65" transform="translate(926.285156 0)"/>
     <use xlink:href="#ArialMT-72" transform="translate(981.900391 0)"/>
     <use xlink:href="#ArialMT-61" transform="translate(1015.201172 0)"/>
     <use xlink:href="#ArialMT-74" transform="translate(1070.816406 0)"/>
     <use xlink:href="#ArialMT-75" transform="translate(1098.599609 0)"/>
     <use xlink:href="#ArialMT-72" transform="translate(1154.214844 0)"/>
     <use xlink:href="#ArialMT-65" transform="translate(1187.515625 0)"/>
     <use xlink:href="#ArialMT-20" transform="translate(1243.130859 0)"/>
     <use xlink:href="#ArialMT-50" transform="translate(1270.914062 0)"/>
     <use xlink:href="#ArialMT-72" transform="translate(1337.613281 0)"/>
     <use xlink:href="#ArialMT-6f" transform="translate(1370.914062 0)"/>
     <use xlink:href="#ArialMT-66" transform="translate(1426.529297 0)"/>
     <use xlink:href="#ArialMT-69" transform="translate(1454.3125 0)"/>
     <use xlink:href="#ArialMT-6c" transform="translate(1476.529297 0)"/>
     <use xlink:href="#ArialMT-65" transform="translate(1498.746094 0)"/>
     <use xlink:href="#ArialMT-73" transform="translate(1554.361328 0)"/>
    </g>
   </g>
   <g id="line2d_54">
    <path d="M 186.924645 158.209056 
L 216.382356 174.627615 
L 245.840067 183.576106 
L 275.297778 202.046621 
L 304.75549 213.118256 
L 334.213201 229.446983 
L 363.670912 239.61954 
L 393.128623 250.830999 
L 422.586335 262.70784 
L 452.044046 271.892917 
L 481.501757 275.703403 
L 510.959468 285.024311 
" clip-path="url(#p09121f9e20)" style="fill: none; stroke-dasharray: 3.7,1.6; stroke-dashoffset: 0; stroke: #1e5f74"/>
    <defs>
     <path id="m320ca4c6b3" d="M 0 2.5 
C 0.663008 2.5 1.29895 2.236584 1.767767 1.767767 
C 2.236584 1.29895 2.5 0.663008 2.5 0 
C 2.5 -0.663008 2.236584 -1.29895 1.767767 -1.767767 
C 1.29895 -2.236584 0.663008 -2.5 0 -2.5 
C -0.663008 -2.5 -1.29895 -2.236584 -1.767767 -1.767767 
C -2.236584 -1.29895 -2.5 -0.663008 -2.5 0 
C -2.5 0.663008 -2.236584 1.29895 -1.767767 1.767767 
C -1.29895 2.236584 -0.663008 2.5 0 2.5 
z
"/>
    </defs>
    <g clip-path="url(#p09121f9e20)">
     <use xlink:href="#m320ca4c6b3" x="186.924645" y="158.209056" style="fill: #1e5f74"/>
     <use xlink:href="#m320ca4c6b3" x="216.382356" y="174.627615" style="fill: #1e5f74"/>
     <use xlink:href="#m320ca4c6b3" x="245.840067" y="183.576106" style="fill: #1e5f74"/>
     <use xlink:href="#m320ca4c6b3" x="275.297778" y="202.046621" style="fill: #1e5f74"/>
     <use xlink:href="#m320ca4c6b3" x="304.75549" y="213.118256" style="fill: #1e5f74"/>
     <use xlink:href="#m320ca4c6b3" x="334.213201" y="229.446983" style="fill: #1e5f74"/>
     <use xlink:href="#m320ca4c6b3" x="363.670912" y="239.61954" style="fill: #1e5f74"/>
     <use xlink:href="#m320ca4c6b3" x="393.128623" y="250.830999" style="fill: #1e5f74"/>
     <use xlink:href="#m320ca4c6b3" x="422.586335" y="262.70784" style="fill: #1e5f74"/>
     <use xlink:href="#m320ca4c6b3" x="452.044046" y="271.892917" style="fill: #1e5f74"/>
     <use xlink:href="#m320ca4c6b3" x="481.501757" y="275.703403" style="fill: #1e5f74"/>
     <use xlink:href="#m320ca4c6b3" x="510.959468" y="285.024311" style="fill: #1e5f74"/>
    </g>
   </g>
   <g id="line2d_55">
    <path d="M 186.924645 90.585901 
L 217.771422 119.574028 
L 248.618199 121.025032 
L 279.464977 139.36117 
L 310.311754 171.997249 
L 341.158532 193.441103 
L 372.005309 208.169099 
L 402.852087 226.646591 
L 433.698864 242.24853 
L 464.545641 251.861957 
L 495.392419 263.255796 
L 526.239196 269.214285 
" clip-path="url(#p09121f9e20)" style="fill: none; stroke-dasharray: 3.7,1.6; stroke-dashoffset: 0; stroke: #ffc400"/>
    <defs>
     <path id="m8b414d58b2" d="M -2.5 2.5 
L 2.5 2.5 
L 2.5 -2.5 
L -2.5 -2.5 
z
"/>
    </defs>
    <g clip-path="url(#p09121f9e20)">
     <use xlink:href="#m8b414d58b2" x="186.924645" y="90.585901" style="fill: #ffc400"/>
     <use xlink:href="#m8b414d58b2" x="217.771422" y="119.574028" style="fill: #ffc400"/>
     <use xlink:href="#m8b414d58b2" x="248.618199" y="121.025032" style="fill: #ffc400"/>
     <use xlink:href="#m8b414d58b2" x="279.464977" y="139.36117" style="fill: #ffc400"/>
     <use xlink:href="#m8b414d58b2" x="310.311754" y="171.997249" style="fill: #ffc400"/>
     <use xlink:href="#m8b414d58b2" x="341.158532" y="193.441103" style="fill: #ffc400"/>
     <use xlink:href="#m8b414d58b2" x="372.005309" y="208.169099" style="fill: #ffc400"/>
     <use xlink:href="#m8b414d58b2" x="402.852087" y="226.646591" style="fill: #ffc400"/>
     <use xlink:href="#m8b414d58b2" x="433.698864" y="242.24853" style="fill: #ffc400"/>
     <use xlink:href="#m8b414d58b2" x="464.545641" y="251.861957" style="fill: #ffc400"/>
     <use xlink:href="#m8b414d58b2" x="495.392419" y="263.255796" style="fill: #ffc400"/>
     <use xlink:href="#m8b414d58b2" x="526.239196" y="269.214285" style="fill: #ffc400"/>
    </g>
   </g>
   <g id="line2d_56">
    <path d="M 186.924645 210.578586 
L 214.429803 223.675943 
L 241.934961 234.867427 
L 269.44012 241.762647 
L 296.945278 252.109537 
L 324.450437 259.417341 
L 351.955595 268.593928 
L 379.460754 278.32644 
L 406.965912 280.348046 
L 434.47107 287.457842 
L 461.976229 289.391451 
L 489.481387 294.059717 
" clip-path="url(#p09121f9e20)" style="fill: none; stroke-dasharray: 3.7,1.6; stroke-dashoffset: 0; stroke: #27ae60"/>
    <defs>
     <path id="me300523feb" d="M 0 -2.5 
L -2.5 2.5 
L 2.5 2.5 
z
"/>
    </defs>
    <g clip-path="url(#p09121f9e20)">
     <use xlink:href="#me300523feb" x="186.924645" y="210.578586" style="fill: #27ae60"/>
     <use xlink:href="#me300523feb" x="214.429803" y="223.675943" style="fill: #27ae60"/>
     <use xlink:href="#me300523feb" x="241.934961" y="234.867427" style="fill: #27ae60"/>
     <use xlink:href="#me300523feb" x="269.44012" y="241.762647" style="fill: #27ae60"/>
     <use xlink:href="#me300523feb" x="296.945278" y="252.109537" style="fill: #27ae60"/>
     <use xlink:href="#me300523feb" x="324.450437" y="259.417341" style="fill: #27ae60"/>
     <use xlink:href="#me300523feb" x="351.955595" y="268.593928" style="fill: #27ae60"/>
     <use xlink:href="#me300523feb" x="379.460754" y="278.32644" style="fill: #27ae60"/>
     <use xlink:href="#me300523feb" x="406.965912" y="280.348046" style="fill: #27ae60"/>
     <use xlink:href="#me300523feb" x="434.47107" y="287.457842" style="fill: #27ae60"/>
     <use xlink:href="#me300523feb" x="461.976229" y="289.391451" style="fill: #27ae60"/>
     <use xlink:href="#me300523feb" x="489.481387" y="294.059717" style="fill: #27ae60"/>
    </g>
   </g>
   <g id="line2d_57">
    <path d="M 186.924645 174.77234 
L 216.825958 164.604125 
L 246.727272 174.807183 
L 276.628586 177.999921 
L 306.5299 190.848951 
L 336.431214 188.543223 
L 366.332527 203.114985 
L 396.233841 206.354889 
L 426.135155 213.509946 
L 456.036469 222.654264 
L 485.937783 225.046466 
L 515.839096 241.805648 
" clip-path="url(#p09121f9e20)" style="fill: none; stroke-dasharray: 3.7,1.6; stroke-dashoffset: 0; stroke: #ff6b6b"/>
    <defs>
     <path id="m0bea3f8e6b" d="M -0 2.5 
L 2.5 -2.5 
L -2.5 -2.5 
z
"/>
    </defs>
    <g clip-path="url(#p09121f9e20)">
     <use xlink:href="#m0bea3f8e6b" x="186.924645" y="174.77234" style="fill: #ff6b6b"/>
     <use xlink:href="#m0bea3f8e6b" x="216.825958" y="164.604125" style="fill: #ff6b6b"/>
     <use xlink:href="#m0bea3f8e6b" x="246.727272" y="174.807183" style="fill: #ff6b6b"/>
     <use xlink:href="#m0bea3f8e6b" x="276.628586" y="177.999921" style="fill: #ff6b6b"/>
     <use xlink:href="#m0bea3f8e6b" x="306.5299" y="190.848951" style="fill: #ff6b6b"/>
     <use xlink:href="#m0bea3f8e6b" x="336.431214" y="188.543223" style="fill: #ff6b6b"/>
     <use xlink:href="#m0bea3f8e6b" x="366.332527" y="203.114985" style="fill: #ff6b6b"/>
     <use xlink:href="#m0bea3f8e6b" x="396.233841" y="206.354889" style="fill: #ff6b6b"/>
     <use xlink:href="#m0bea3f8e6b" x="426.135155" y="213.509946" style="fill: #ff6b6b"/>
     <use xlink:href="#m0bea3f8e6b" x="456.036469" y="222.654264" style="fill: #ff6b6b"/>
     <use xlink:href="#m0bea3f8e6b" x="485.937783" y="225.046466" style="fill: #ff6b6b"/>
     <use xlink:href="#m0bea3f8e6b" x="515.839096" y="241.805648" style="fill: #ff6b6b"/>
    </g>
   </g>
   <g id="line2d_58">
    <path d="M 186.924645 101.415371 
L 219.576503 115.550655 
L 252.228362 121.827817 
L 284.88022 130.494459 
L 317.532079 162.692404 
L 350.183938 178.070994 
L 382.835796 203.877326 
L 415.487655 223.455132 
L 448.139514 242.424832 
L 480.791372 257.09503 
L 513.443231 265.75509 
L 542.439375 274.085324 
" clip-path="url(#p09121f9e20)" style="fill: none; stroke-dasharray: 3.7,1.6; stroke-dashoffset: 0; stroke: #8e44ad"/>
    <defs>
     <path id="m5e88aeedf5" d="M 0 3.535534 
L 3.535534 0 
L 0 -3.535534 
L -3.535534 0 
z
"/>
    </defs>
    <g clip-path="url(#p09121f9e20)">
     <use xlink:href="#m5e88aeedf5" x="186.924645" y="101.415371" style="fill: #8e44ad"/>
     <use xlink:href="#m5e88aeedf5" x="219.576503" y="115.550655" style="fill: #8e44ad"/>
     <use xlink:href="#m5e88aeedf5" x="252.228362" y="121.827817" style="fill: #8e44ad"/>
     <use xlink:href="#m5e88aeedf5" x="284.88022" y="130.494459" style="fill: #8e44ad"/>
     <use xlink:href="#m5e88aeedf5" x="317.532079" y="162.692404" style="fill: #8e44ad"/>
     <use xlink:href="#m5e88aeedf5" x="350.183938" y="178.070994" style="fill: #8e44ad"/>
     <use xlink:href="#m5e88aeedf5" x="382.835796" y="203.877326" style="fill: #8e44ad"/>
     <use xlink:href="#m5e88aeedf5" x="415.487655" y="223.455132" style="fill: #8e44ad"/>
     <use xlink:href="#m5e88aeedf5" x="448.139514" y="242.424832" style="fill: #8e44ad"/>
     <use xlink:href="#m5e88aeedf5" x="480.791372" y="257.09503" style="fill: #8e44ad"/>
     <use xlink:href="#m5e88aeedf5" x="513.443231" y="265.75509" style="fill: #8e44ad"/>
     <use xlink:href="#m5e88aeedf5" x="546.09509" y="275.135566" style="fill: #8e44ad"/>
    </g>
   </g>
   <g id="legend_1">
    <g id="patch_7">
     <path d="M 59.459141 51.569687 
L 525.179609 51.569687 
L 525.179609 28.459375 
L 59.459141 28.459375 
z
" style="fill: #ffffff; opacity: 0.8; stroke: #d0d5dd; stroke-linejoin: miter"/>
    </g>
    <g id="LineCollection_6">
     <path d="M 77.909141 43.847969 
L 77.909141 34.847969 
" style="fill: none; stroke: #1e5f74; stroke-width: 1.2"/>
    </g>
    <g id="line2d_59">
     <g>
      <use xlink:href="#mac145cd6d4" x="77.909141" y="43.847969" style="fill: #1e5f74"/>
     </g>
    </g>
    <g id="line2d_60">
     <g>
      <use xlink:href="#mac145cd6d4" x="77.909141" y="34.847969" style="fill: #1e5f74"/>
     </g>
    </g>
    <g id="line2d_61">
     <path d="M 66.659141 39.347969 
L 89.159141 39.347969 
" style="fill: none; stroke-dasharray: 3.7,1.6; stroke-dashoffset: 0; stroke: #1e5f74"/>
    </g>
    <g id="line2d_62">
     <g>
      <use xlink:href="#m320ca4c6b3" x="77.909141" y="39.347969" style="fill: #1e5f74"/>
     </g>
    </g>
    <g id="text_15">
     <!-- A1795 (CC) -->
     <g style="fill: #5a6470" transform="translate(93.659141 42.497969) scale(0.09 -0.09)">
      <defs>
       <path id="DejaVuSans-41" d="M 2188 4044 
L 1331 1722 
L 3047 1722 
L 2188 4044 
z
M 1831 4666 
L 2547 4666 
L 4325 0 
L 3669 0 
L 3244 1197 
L 1141 1197 
L 716 0 
L 50 0 
L 1831 4666 
z
" transform="scale(0.015625)"/>
       <path id="DejaVuSans-37" d="M 525 4666 
L 3525 4666 
L 3525 4397 
L 1831 0 
L 1172 0 
L 2766 4134 
L 525 4134 
L 525 4666 
z
" transform="scale(0.015625)"/>
       <path id="DejaVuSans-39" d="M 703 97 
L 703 672 
Q 941 559 1184 500 
Q 1428 441 1663 441 
Q 2288 441 2617 861 
Q 2947 1281 2994 2138 
Q 2813 1869 2534 1725 
Q 2256 1581 1919 1581 
Q 1219 1581 811 2004 
Q 403 2428 403 3163 
Q 403 3881 828 4315 
Q 1253 4750 1959 4750 
Q 2769 4750 3195 4129 
Q 3622 3509 3622 2328 
Q 3622 1225 3098 567 
Q 2575 -91 1691 -91 
Q 1453 -91 1209 -44 
Q 966 3 703 97 
z
M 1959 2075 
Q 2384 2075 2632 2365 
Q 2881 2656 2881 3163 
Q 2881 3666 2632 3958 
Q 2384 4250 1959 4250 
Q 1534 4250 1286 3958 
Q 1038 3666 1038 3163 
Q 1038 2656 1286 2365 
Q 1534 2075 1959 2075 
z
" transform="scale(0.015625)"/>
       <path id="DejaVuSans-35" d="M 691 4666 
L 3169 4666 
L 3169 4134 
L 1269 4134 
L 1269 2991 
Q 1406 3038 1543 3061 
Q 1681 3084 1819 3084 
Q 2600 3084 3056 2656 
Q 3513 2228 3513 1497 
Q 3513 744 3044 326 
Q 2575 -91 1722 -91 
Q 1428 -91 1123 -41 
Q 819 9 494 109 
L 494 744 
Q 775 591 1075 516 
Q 1375 441 1709 441 
Q 2250 441 2565 725 
Q 2881 1009 2881 1497 
Q 2881 1984 2565 2268 
Q 2250 2553 1709 2553 
Q 1456 2553 1204 2497 
Q 953 2441 691 2322 
L 691 4666 
z
" transform="scale(0.015625)"/>
       <path id="DejaVuSans-20" transform="scale(0.015625)"/>
       <path id="DejaVuSans-28" d="M 1984 4856 
Q 1566 4138 1362 3434 
Q 1159 2731 1159 2009 
Q 1159 1288 1364 580 
Q 1569 -128 1984 -844 
L 1484 -844 
Q 1016 -109 783 600 
Q 550 1309 550 2009 
Q 550 2706 781 3412 
Q 1013 4119 1484 4856 
L 1984 4856 
z
" transform="scale(0.015625)"/>
       <path id="DejaVuSans-43" d="M 4122 4306 
L 4122 3641 
Q 3803 3938 3442 4084 
Q 3081 4231 2675 4231 
Q 1875 4231 1450 3742 
Q 1025 3253 1025 2328 
Q 1025 1406 1450 917 
Q 1875 428 2675 428 
Q 3081 428 3442 575 
Q 3803 722 4122 1019 
L 4122 359 
Q 3791 134 3420 21 
Q 3050 -91 2638 -91 
Q 1578 -91 968 557 
Q 359 1206 359 2328 
Q 359 3453 968 4101 
Q 1578 4750 2638 4750 
Q 3056 4750 3426 4639 
Q 3797 4528 4122 4306 
z
" transform="scale(0.015625)"/>
       <path id="DejaVuSans-29" d="M 513 4856 
L 1013 4856 
Q 1481 4119 1714 3412 
Q 1947 2706 1947 2009 
Q 1947 1309 1714 600 
Q 1481 -109 1013 -844 
L 513 -844 
Q 928 -128 1133 580 
Q 1338 1288 1338 2009 
Q 1338 2731 1133 3434 
Q 928 4138 513 4856 
z
" transform="scale(0.015625)"/>
      </defs>
      <use xlink:href="#DejaVuSans-41"/>
      <use xlink:href="#DejaVuSans-31" transform="translate(68.408203 0)"/>
      <use xlink:href="#DejaVuSans-37" transform="translate(132.03125 0)"/>
      <use xlink:href="#DejaVuSans-39" transform="translate(195.654297 0)"/>
      <use xlink:href="#DejaVuSans-35" transform="translate(259.277344 0)"/>
      <use xlink:href="#DejaVuSans-20" transform="translate(322.900391 0)"/>
      <use xlink:href="#DejaVuSans-28" transform="translate(354.6875 0)"/>
      <use xlink:href="#DejaVuSans-43" transform="translate(393.701172 0)"/>
      <use xlink:href="#DejaVuSans-43" transform="translate(463.525391 0)"/>
      <use xlink:href="#DejaVuSans-29" transform="translate(533.349609 0)"/>
     </g>
    </g>
    <g id="LineCollection_7">
     <path d="M 169.922891 43.847969 
L 169.922891 34.847969 
" style="fill: none; stroke: #ffc400; stroke-width: 1.2"/>
    </g>
    <g id="line2d_63">
     <g>
      <use xlink:href="#m67b12784dc" x="169.922891" y="43.847969" style="fill: #ffc400"/>
     </g>
    </g>
    <g id="line2d_64">
     <g>
      <use xlink:href="#m67b12784dc" x="169.922891" y="34.847969" style="fill: #ffc400"/>
     </g>
    </g>
    <g id="line2d_65">
     <path d="M 158.672891 39.347969 
L 181.172891 39.347969 
" style="fill: none; stroke-dasharray: 3.7,1.6; stroke-dashoffset: 0; stroke: #ffc400"/>
    </g>
    <g id="line2d_66">
     <g>
      <use xlink:href="#m8b414d58b2" x="169.922891" y="39.347969" style="fill: #ffc400"/>
     </g>
    </g>
    <g id="text_16">
     <!-- A2029 (CC) -->
     <g style="fill: #5a6470" transform="translate(185.672891 42.497969) scale(0.09 -0.09)">
      <use xlink:href="#DejaVuSans-41"/>
      <use xlink:href="#DejaVuSans-32" transform="translate(68.408203 0)"/>
      <use xlink:href="#DejaVuSans-30" transform="translate(132.03125 0)"/>
      <use xlink:href="#DejaVuSans-32" transform="translate(195.654297 0)"/>
      <use xlink:href="#DejaVuSans-39" transform="translate(259.277344 0)"/>
      <use xlink:href="#DejaVuSans-20" transform="translate(322.900391 0)"/>
      <use xlink:href="#DejaVuSans-28" transform="translate(354.6875 0)"/>
      <use xlink:href="#DejaVuSans-43" transform="translate(393.701172 0)"/>
      <use xlink:href="#DejaVuSans-43" transform="translate(463.525391 0)"/>
      <use xlink:href="#DejaVuSans-29" transform="translate(533.349609 0)"/>
     </g>
    </g>
    <g id="LineCollection_8">
     <path d="M 261.936641 43.847969 
L 261.936641 34.847969 
" style="fill: none; stroke: #27ae60; stroke-width: 1.2"/>
    </g>
    <g id="line2d_67">
     <g>
      <use xlink:href="#mbdb98cf963" x="261.936641" y="43.847969" style="fill: #27ae60"/>
     </g>
    </g>
    <g id="line2d_68">
     <g>
      <use xlink:href="#mbdb98cf963" x="261.936641" y="34.847969" style="fill: #27ae60"/>
     </g>
    </g>
    <g id="line2d_69">
     <path d="M 250.686641 39.347969 
L 273.186641 39.347969 
" style="fill: none; stroke-dasharray: 3.7,1.6; stroke-dashoffset: 0; stroke: #27ae60"/>
    </g>
    <g id="line2d_70">
     <g>
      <use xlink:href="#me300523feb" x="261.936641" y="39.347969" style="fill: #27ae60"/>
     </g>
    </g>
    <g id="text_17">
     <!-- A2199 (CC) -->
     <g style="fill: #5a6470" transform="translate(277.686641 42.497969) scale(0.09 -0.09)">
      <use xlink:href="#DejaVuSans-41"/>
      <use xlink:href="#DejaVuSans-32" transform="translate(68.408203 0)"/>
      <use xlink:href="#DejaVuSans-31" transform="translate(132.03125 0)"/>
      <use xlink:href="#DejaVuSans-39" transform="translate(195.654297 0)"/>
      <use xlink:href="#DejaVuSans-39" transform="translate(259.277344 0)"/>
      <use xlink:href="#DejaVuSans-20" transform="translate(322.900391 0)"/>
      <use xlink:href="#DejaVuSans-28" transform="translate(354.6875 0)"/>
      <use xlink:href="#DejaVuSans-43" transform="translate(393.701172 0)"/>
      <use xlink:href="#DejaVuSans-43" transform="translate(463.525391 0)"/>
      <use xlink:href="#DejaVuSans-29" transform="translate(533.349609 0)"/>
     </g>
    </g>
    <g id="LineCollection_9">
     <path d="M 353.950391 43.847969 
L 353.950391 34.847969 
" style="fill: none; stroke: #ff6b6b; stroke-width: 1.2"/>
    </g>
    <g id="line2d_71">
     <g>
      <use xlink:href="#m6bd2c90a4a" x="353.950391" y="43.847969" style="fill: #ff6b6b"/>
     </g>
    </g>
    <g id="line2d_72">
     <g>
      <use xlink:href="#m6bd2c90a4a" x="353.950391" y="34.847969" style="fill: #ff6b6b"/>
     </g>
    </g>
    <g id="line2d_73">
     <path d="M 342.700391 39.347969 
L 365.200391 39.347969 
" style="fill: none; stroke-dasharray: 3.7,1.6; stroke-dashoffset: 0; stroke: #ff6b6b"/>
    </g>
    <g id="line2d_74">
     <g>
      <use xlink:href="#m0bea3f8e6b" x="353.950391" y="39.347969" style="fill: #ff6b6b"/>
     </g>
    </g>
    <g id="text_18">
     <!-- A401 (NCC) -->
     <g style="fill: #5a6470" transform="translate(369.700391 42.497969) scale(0.09 -0.09)">
      <defs>
       <path id="DejaVuSans-4e" d="M 628 4666 
L 1478 4666 
L 3547 763 
L 3547 4666 
L 4159 4666 
L 4159 0 
L 3309 0 
L 1241 3903 
L 1241 0 
L 628 0 
L 628 4666 
z
" transform="scale(0.015625)"/>
      </defs>
      <use xlink:href="#DejaVuSans-41"/>
      <use xlink:href="#DejaVuSans-34" transform="translate(68.408203 0)"/>
      <use xlink:href="#DejaVuSans-30" transform="translate(132.03125 0)"/>
      <use xlink:href="#DejaVuSans-31" transform="translate(195.654297 0)"/>
      <use xlink:href="#DejaVuSans-20" transform="translate(259.277344 0)"/>
      <use xlink:href="#DejaVuSans-28" transform="translate(291.064453 0)"/>
      <use xlink:href="#DejaVuSans-4e" transform="translate(330.078125 0)"/>
      <use xlink:href="#DejaVuSans-43" transform="translate(404.882812 0)"/>
      <use xlink:href="#DejaVuSans-43" transform="translate(474.707031 0)"/>
      <use xlink:href="#DejaVuSans-29" transform="translate(544.53125 0)"/>
     </g>
    </g>
    <g id="LineCollection_10">
     <path d="M 446.971016 43.847969 
L 446.971016 34.847969 
" style="fill: none; stroke: #8e44ad; stroke-width: 1.2"/>
    </g>
    <g id="line2d_75">
     <g>
      <use xlink:href="#m2cc147d18d" x="446.971016" y="43.847969" style="fill: #8e44ad"/>
     </g>
    </g>
    <g id="line2d_76">
     <g>
      <use xlink:href="#m2cc147d18d" x="446.971016" y="34.847969" style="fill: #8e44ad"/>
     </g>
    </g>
    <g id="line2d_77">
     <path d="M 435.721016 39.347969 
L 458.221016 39.347969 
" style="fill: none; stroke-dasharray: 3.7,1.6; stroke-dashoffset: 0; stroke: #8e44ad"/>
    </g>
    <g id="line2d_78">
     <g>
      <use xlink:href="#m5e88aeedf5" x="446.971016" y="39.347969" style="fill: #8e44ad"/>
     </g>
    </g>
    <g id="text_19">
     <!-- Coma (NCC) -->
     <g style="fill: #5a6470" transform="translate(462.721016 42.497969) scale(0.09 -0.09)">
      <defs>
       <path id="DejaVuSans-6f" d="M 1959 3097 
Q 1497 3097 1228 2736 
Q 959 2375 959 1747 
Q 959 1119 1226 758 
Q 1494 397 1959 397 
Q 2419 397 2687 759 
Q 2956 1122 2956 1747 
Q 2956 2369 2687 2733 
Q 2419 3097 1959 3097 
z
M 1959 3584 
Q 2709 3584 3137 3096 
Q 3566 2609 3566 1747 
Q 3566 888 3137 398 
Q 2709 -91 1959 -91 
Q 1206 -91 779 398 
Q 353 888 353 1747 
Q 353 2609 779 3096 
Q 1206 3584 1959 3584 
z
" transform="scale(0.015625)"/>
       <path id="DejaVuSans-6d" d="M 3328 2828 
Q 3544 3216 3844 3400 
Q 4144 3584 4550 3584 
Q 5097 3584 5394 3201 
Q 5691 2819 5691 2113 
L 5691 0 
L 5113 0 
L 5113 2094 
Q 5113 2597 4934 2840 
Q 4756 3084 4391 3084 
Q 3944 3084 3684 2787 
Q 3425 2491 3425 1978 
L 3425 0 
L 2847 0 
L 2847 2094 
Q 2847 2600 2669 2842 
Q 2491 3084 2119 3084 
Q 1678 3084 1418 2786 
Q 1159 2488 1159 1978 
L 1159 0 
L 581 0 
L 581 3500 
L 1159 3500 
L 1159 2956 
Q 1356 3278 1631 3431 
Q 1906 3584 2284 3584 
Q 2666 3584 2933 3390 
Q 3200 3197 3328 2828 
z
" transform="scale(0.015625)"/>
       <path id="DejaVuSans-61" d="M 2194 1759 
Q 1497 1759 1228 1600 
Q 959 1441 959 1056 
Q 959 750 1161 570 
Q 1363 391 1709 391 
Q 2188 391 2477 730 
Q 2766 1069 2766 1631 
L 2766 1759 
L 2194 1759 
z
M 3341 1997 
L 3341 0 
L 2766 0 
L 2766 531 
Q 2569 213 2275 61 
Q 1981 -91 1556 -91 
Q 1019 -91 701 211 
Q 384 513 384 1019 
Q 384 1609 779 1909 
Q 1175 2209 1959 2209 
L 2766 2209 
L 2766 2266 
Q 2766 2663 2505 2880 
Q 2244 3097 1772 3097 
Q 1472 3097 1187 3025 
Q 903 2953 641 2809 
L 641 3341 
Q 956 3463 1253 3523 
Q 1550 3584 1831 3584 
Q 2591 3584 2966 3190 
Q 3341 2797 3341 1997 
z
" transform="scale(0.015625)"/>
      </defs>
      <use xlink:href="#DejaVuSans-43"/>
      <use xlink:href="#DejaVuSans-6f" transform="translate(69.824219 0)"/>
      <use xlink:href="#DejaVuSans-6d" transform="translate(131.005859 0)"/>
      <use xlink:href="#DejaVuSans-61" transform="translate(228.417969 0)"/>
      <use xlink:href="#DejaVuSans-20" transform="translate(289.697266 0)"/>
      <use xlink:href="#DejaVuSans-28" transform="translate(321.484375 0)"/>
      <use xlink:href="#DejaVuSans-4e" transform="translate(360.498047 0)"/>
      <use xlink:href="#DejaVuSans-43" transform="translate(435.302734 0)"/>
      <use xlink:href="#DejaVuSans-43" transform="translate(505.126953 0)"/>
      <use xlink:href="#DejaVuSans-29" transform="translate(574.951172 0)"/>
     </g>
    </g>
   </g>
  </g>
 </g>
 <defs>
  <clipPath id="p09121f9e20">
   <rect x="50.399375" y="61.759375" width="483.84" height="252"/>
  </clipPath>
 </defs>
</svg>
