<svg class="main-svg" xmlns="http://www.w3.org/2000/svg" xmlns:xlink="http://www.w3.org/1999/xlink" width="800" height="600" style="" viewBox="0 0 800 600"><rect x="0" y="0" width="800" height="600" style="fill: rgb(255, 255, 255); fill-opacity: 1;"/><defs id="defs-0d4927"><g class="clips"><clipPath id="clip0d4927xyplot" class="plotclip"><rect width="680" height="473"/></clipPath><clipPath class="axesclip" id="clip0d4927x"><rect x="80" y="0" width="680" height="600"/></clipPath><clipPath class="axesclip" id="clip0d4927y"><rect x="0" y="67" width="800" height="473"/></clipPath><clipPath class="axesclip" id="clip0d4927xy"><rect x="80" y="67" width="680" height="473"/></clipPath></g><g class="gradients"/><g class="patterns"/></defs><g class="bglayer"/><g class="layer-below"><g class="imagelayer"/><g class="shapelayer"/></g><g class="cartesianlayer"><g class="subplot xy"><g class="layer-subplot"><g class="shapelayer"/><g class="imagelayer"/></g><g class="minor-gridlayer"><g class="x"/><g class="y"/></g><g class="gridlayer"><g class="x"><path class="xgrid crisp" transform="translate(112.95,0)" d="M0,67v473" style="stroke: rgb(229, 231, 235); stroke-opacity: 1; stroke-width: 0.5px;"/><path class="xgrid crisp" transform="translate(139.87,0)" d="M0,67v473" style="stroke: rgb(229, 231, 235); stroke-opacity: 1; stroke-width: 0.5px;"/><path class="xgrid crisp" transform="translate(162.63,0)" d="M0,67v473" style="stroke: rgb(229, 231, 235); stroke-opacity: 1; stroke-width: 0.5px;"/><path class="xgrid crisp" transform="translate(182.35,0)" d="M0,67v473" style="stroke: rgb(229, 231, 235); stroke-opacity: 1; stroke-width: 0.5px;"/><path class="xgrid crisp" transform="translate(199.74,0)" d="M0,67v473" style="stroke: rgb(229, 231, 235); stroke-opacity: 1; stroke-width: 0.5px;"/><path class="xgrid crisp" transform="translate(215.3,0)" d="M0,67v473" style="stroke: rgb(229, 231, 235); stroke-opacity: 1; stroke-width: 0.5px;"/><path class="xgrid crisp" transform="translate(317.65,0)" d="M0,67v473" style="stroke: rgb(229, 231, 235); stroke-opacity: 1; stroke-width: 0.5px;"/><path class="xgrid crisp" transform="translate(377.52,0)" d="M0,67v473" style="stroke: rgb(229, 231, 235); stroke-opacity: 1; stroke-width: 0.5px;"/><path class="xgrid crisp" transform="translate(420,0)" d="M0,67v473" style="stroke: rgb(229, 231, 235); stroke-opacity: 1; stroke-width: 0.5px;"/><path class="xgrid crisp" transform="translate(452.95,0)" d="M0,67v473" style="stroke: rgb(229, 231, 235); stroke-opacity: 1; stroke-width: 0.5px;"/><path class="xgrid crisp" transform="translate(479.87,0)" d="M0,67v473" style="stroke: rgb(229, 231, 235); stroke-opacity: 1; stroke-width: 0.5px;"/><path class="xgrid crisp" transform="translate(502.63,0)" d="M0,67v473" style="stroke: rgb(229, 231, 235); stroke-opacity: 1; stroke-width: 0.5px;"/><path class="xgrid crisp" transform="translate(522.35,0)" d="M0,67v473" style="stroke: rgb(229, 231, 235); stroke-opacity: 1; stroke-width: 0.5px;"/><path class="xgrid crisp" transform="translate(539.74,0)" d="M0,67v473" style="stroke: rgb(229, 231, 235); stroke-opacity: 1; stroke-width: 0.5px;"/><path class="xgrid crisp" transform="translate(555.3,0)" d="M0,67v473" style="stroke: rgb(229, 231, 235); stroke-opacity: 1; stroke-width: 0.5px;"/><path class="xgrid crisp" transform="translate(657.65,0)" d="M0,67v473" style="stroke: rgb(229, 231, 235); stroke-opacity: 1; stroke-width: 0.5px;"/><path class="xgrid crisp" transform="translate(717.52,0)" d="M0,67v473" style="stroke: rgb(229, 231, 235); stroke-opacity: 1; stroke-width: 0.5px;"/></g><g class="y"><path class="ygrid crisp" transform="translate(0,461.17)" d="M80,0h680" style="stroke: rgb(229, 231, 235); stroke-opacity: 1; stroke-width: 0.5px;"/><path class="ygrid crisp" transform="translate(0,382.33)" d="M80,0h680" style="stroke: rgb(229, 231, 235); stroke-opacity: 1; stroke-width: 0.5px;"/><path class="ygrid crisp" transform="translate(0,303.5)" d="M80,0h680" style="stroke: rgb(229, 231, 235); stroke-opacity: 1; stroke-width: 0.5px;"/><path class="ygrid crisp" transform="translate(0,224.67)" d="M80,0h680" style="stroke: rgb(229, 231, 235); stroke-opacity: 1; stroke-width: 0.5px;"/><path class="ygrid crisp" transform="translate(0,145.82999999999998)" d="M80,0h680" style="stroke: rgb(229, 231, 235); stroke-opacity: 1; stroke-width: 0.5px;"/></g></g><g class="zerolinelayer"><path class="yzl zl crisp" transform="translate(0,540)" d="M80,0h680" style="stroke: rgb(68, 68, 68); stroke-opacity: 1; stroke-width: 1px;"/></g><g class="layer-between"><g class="shapelayer"/><g class="imagelayer"/></g><path class="xlines-below"/><path class="ylines-below"/><g class="overlines-below"/><g class="xaxislayer-below"/><g class="yaxislayer-below"/><g class="overaxes-below"/><g class="overplot"><g class="xy" transform="translate(80,67)" clip-path="url(#clip0d4927xyplot)"><g class="scatterlayer mlayer"><g class="trace scatter trace66cb39" style="stroke-miterlimit: 2; opacity: 1;"><g class="fills"/><g class="errorbars"><g class="errorbar"><path class="yerror" d="M28.950000000000003,149.92h8m-4,0V212.15m-4,0h8" style="vector-effect: none; stroke-width: 1.5px; stroke: rgb(0, 155, 216); stroke-opacity: 1;"/></g><g class="errorbar"><path class="yerror" d="M80.23,182.23h8m-4,0V241.48m-4,0h8" style="vector-effect: none; stroke-width: 1.5px; stroke: rgb(0, 155, 216); stroke-opacity: 1;"/></g><g class="errorbar"><path class="yerror" d="M131.5,201h8m-4,0V256.29m-4,0h8" style="vector-effect: none; stroke-width: 1.5px; stroke: rgb(0, 155, 216); stroke-opacity: 1;"/></g><g class="errorbar"><path class="yerror" d="M182.78,237.96h8m-4,0V288.67m-4,0h8" style="vector-effect: none; stroke-width: 1.5px; stroke: rgb(0, 155, 216); stroke-opacity: 1;"/></g><g class="errorbar"><path class="yerror" d="M234.06,261.09h8m-4,0V307.11m-4,0h8" style="vector-effect: none; stroke-width: 1.5px; stroke: rgb(0, 155, 216); stroke-opacity: 1;"/></g><g class="errorbar"><path class="yerror" d="M285.33,293.94h8m-4,0V335.56m-4,0h8" style="vector-effect: none; stroke-width: 1.5px; stroke: rgb(0, 155, 216); stroke-opacity: 1;"/></g><g class="errorbar"><path class="yerror" d="M336.61,315h8m-4,0V352.68m-4,0h8" style="vector-effect: none; stroke-width: 1.5px; stroke: rgb(0, 155, 216); stroke-opacity: 1;"/></g><g class="errorbar"><path class="yerror" d="M387.89,337.75h8m-4,0V372.02m-4,0h8" style="vector-effect: none; stroke-width: 1.5px; stroke: rgb(0, 155, 216); stroke-opacity: 1;"/></g><g class="errorbar"><path class="yerror" d="M439.17,361.5h8m-4,0V392.86m-4,0h8" style="vector-effect: none; stroke-width: 1.5px; stroke: rgb(0, 155, 216); stroke-opacity: 1;"/></g><g class="errorbar"><path class="yerror" d="M490.44,379.97h8m-4,0V408.86m-4,0h8" style="vector-effect: none; stroke-width: 1.5px; stroke: rgb(0, 155, 216); stroke-opacity: 1;"/></g><g class="errorbar"><path class="yerror" d="M541.72,388.17h8m-4,0V414.97m-4,0h8" style="vector-effect: none; stroke-width: 1.5px; stroke: rgb(0, 155, 216); stroke-opacity: 1;"/></g><g class="errorbar"><path class="yerror" d="M593,406.54h8m-4,0V431.59m-4,0h8" style="vector-effect: none; stroke-width: 1.5px; stroke: rgb(0, 155, 216); stroke-opacity: 1;"/></g></g><g class="lines"/><g class="points"><path class="point" transform="translate(32.95,181.03)" d="M4,0A4,4 0 1,1 0,-4A4,4 0 0,1 4,0Z" style="opacity: 1; stroke-width: 0.5px; fill: rgb(0, 155, 216); fill-opacity: 1; stroke: rgb(255, 255, 255); stroke-opacity: 1;"/><path class="point" transform="translate(84.23,211.85)" d="M4,0A4,4 0 1,1 0,-4A4,4 0 0,1 4,0Z" style="opacity: 1; stroke-width: 0.5px; fill: rgb(0, 155, 216); fill-opacity: 1; stroke: rgb(255, 255, 255); stroke-opacity: 1;"/><path class="point" transform="translate(135.5,228.65)" d="M4,0A4,4 0 1,1 0,-4A4,4 0 0,1 4,0Z" style="opacity: 1; stroke-width: 0.5px; fill: rgb(0, 155, 216); fill-opacity: 1; stroke: rgb(255, 255, 255); stroke-opacity: 1;"/><path class="point" transform="translate(186.78,263.32)" d="M4,0A4,4 0 1,1 0,-4A4,4 0 0,1 4,0Z" style="opacity: 1; stroke-width: 0.5px; fill: rgb(0, 155, 216); fill-opacity: 1; stroke: rgb(255, 255, 255); stroke-opacity: 1;"/><path class="point" transform="translate(238.06,284.1)" d="M4,0A4,4 0 1,1 0,-4A4,4 0 0,1 4,0Z" style="opacity: 1; stroke-width: 0.5px; fill: rgb(0, 155, 216); fill-opacity: 1; stroke: rgb(255, 255, 255); stroke-opacity: 1;"/><path class="point" transform="translate(289.33,314.75)" d="M4,0A4,4 0 1,1 0,-4A4,4 0 0,1 4,0Z" style="opacity: 1; stroke-width: 0.5px; fill: rgb(0, 155, 216); fill-opacity: 1; stroke: rgb(255, 255, 255); stroke-opacity: 1;"/><path class="point" transform="translate(340.61,333.84)" d="M4,0A4,4 0 1,1 0,-4A4,4 0 0,1 4,0Z" style="opacity: 1; stroke-width: 0.5px; fill: rgb(0, 155, 216); fill-opacity: 1; stroke: rgb(255, 255, 255); stroke-opacity: 1;"/><path class="point" transform="translate(391.89,354.88)" d="M4,0A4,4 0 1,1 0,-4A4,4 0 0,1 4,0Z" style="opacity: 1; stroke-width: 0.5px; fill: rgb(0, 155, 216); fill-opacity: 1; stroke: rgb(255, 255, 255); stroke-opacity: 1;"/><path class="point" transform="translate(443.17,377.18)" d="M4,0A4,4 0 1,1 0,-4A4,4 0 0,1 4,0Z" style="opacity: 1; stroke-width: 0.5px; fill: rgb(0, 155, 216); fill-opacity: 1; stroke: rgb(255, 255, 255); stroke-opacity: 1;"/><path class="point" transform="translate(494.44,394.42)" d="M4,0A4,4 0 1,1 0,-4A4,4 0 0,1 4,0Z" style="opacity: 1; stroke-width: 0.5px; fill: rgb(0, 155, 216); fill-opacity: 1; stroke: rgb(255, 255, 255); stroke-opacity: 1;"/><path class="point" transform="translate(545.72,401.57)" d="M4,0A4,4 0 1,1 0,-4A4,4 0 0,1 4,0Z" style="opacity: 1; stroke-width: 0.5px; fill: rgb(0, 155, 216); fill-opacity: 1; stroke: rgb(255, 255, 255); stroke-opacity: 1;"/><path class="point" transform="translate(597,419.06)" d="M4,0A4,4 0 1,1 0,-4A4,4 0 0,1 4,0Z" style="opacity: 1; stroke-width: 0.5px; fill: rgb(0, 155, 216); fill-opacity: 1; stroke: rgb(255, 255, 255); stroke-opacity: 1;"/></g><g class="text"/></g><g class="trace scatter tracecf526c" style="stroke-miterlimit: 2; opacity: 1;"><g class="fills"/><g class="errorbars"><g class="errorbar"><path class="yerror" d="M28.950000000000003,13.6h8m-4,0V94.61m-4,0h8" style="vector-effect: none; stroke-width: 1.5px; stroke: rgb(255, 197, 8); stroke-opacity: 1;"/></g><g class="errorbar"><path class="yerror" d="M82.64,69.77h8m-4,0V147.26m-4,0h8" style="vector-effect: none; stroke-width: 1.5px; stroke: rgb(255, 197, 8); stroke-opacity: 1;"/></g><g class="errorbar"><path class="yerror" d="M136.34,75.04h8m-4,0V147.44m-4,0h8" style="vector-effect: none; stroke-width: 1.5px; stroke: rgb(255, 197, 8); stroke-opacity: 1;"/></g><g class="errorbar"><path class="yerror" d="M190.03,112.61h8m-4,0V178.71m-4,0h8" style="vector-effect: none; stroke-width: 1.5px; stroke: rgb(255, 197, 8); stroke-opacity: 1;"/></g><g class="errorbar"><path class="yerror" d="M243.73,177.24h8m-4,0V236.59m-4,0h8" style="vector-effect: none; stroke-width: 1.5px; stroke: rgb(255, 197, 8); stroke-opacity: 1;"/></g><g class="errorbar"><path class="yerror" d="M297.42,220.73h8m-4,0V273.59m-4,0h8" style="vector-effect: none; stroke-width: 1.5px; stroke: rgb(255, 197, 8); stroke-opacity: 1;"/></g><g class="errorbar"><path class="yerror" d="M351.12,251.3h8m-4,0V298.32m-4,0h8" style="vector-effect: none; stroke-width: 1.5px; stroke: rgb(255, 197, 8); stroke-opacity: 1;"/></g><g class="errorbar"><path class="yerror" d="M404.81,288.51h8m-4,0V330.47m-4,0h8" style="vector-effect: none; stroke-width: 1.5px; stroke: rgb(255, 197, 8); stroke-opacity: 1;"/></g><g class="errorbar"><path class="yerror" d="M458.51,319.94h8m-4,0V357.61m-4,0h8" style="vector-effect: none; stroke-width: 1.5px; stroke: rgb(255, 197, 8); stroke-opacity: 1;"/></g><g class="errorbar"><path class="yerror" d="M512.2,339.8h8m-4,0V373.84m-4,0h8" style="vector-effect: none; stroke-width: 1.5px; stroke: rgb(255, 197, 8); stroke-opacity: 1;"/></g><g class="errorbar"><path class="yerror" d="M565.9,362.7h8m-4,0V393.71m-4,0h8" style="vector-effect: none; stroke-width: 1.5px; stroke: rgb(255, 197, 8); stroke-opacity: 1;"/></g><g class="errorbar"><path class="yerror" d="M619.59,375.15h8m-4,0V403.63m-4,0h8" style="vector-effect: none; stroke-width: 1.5px; stroke: rgb(255, 197, 8); stroke-opacity: 1;"/></g></g><g class="lines"/><g class="points"><path class="point" transform="translate(32.95,54.11)" d="M4,4H-4V-4H4Z" style="opacity: 1; stroke-width: 0.5px; fill: rgb(255, 197, 8); fill-opacity: 1; stroke: rgb(255, 255, 255); stroke-opacity: 1;"/><path class="point" transform="translate(86.64,108.52)" d="M4,4H-4V-4H4Z" style="opacity: 1; stroke-width: 0.5px; fill: rgb(255, 197, 8); fill-opacity: 1; stroke: rgb(255, 255, 255); stroke-opacity: 1;"/><path class="point" transform="translate(140.34,111.24)" d="M4,4H-4V-4H4Z" style="opacity: 1; stroke-width: 0.5px; fill: rgb(255, 197, 8); fill-opacity: 1; stroke: rgb(255, 255, 255); stroke-opacity: 1;"/><path class="point" transform="translate(194.03,145.66)" d="M4,4H-4V-4H4Z" style="opacity: 1; stroke-width: 0.5px; fill: rgb(255, 197, 8); fill-opacity: 1; stroke: rgb(255, 255, 255); stroke-opacity: 1;"/><path class="point" transform="translate(247.73,206.91)" d="M4,4H-4V-4H4Z" style="opacity: 1; stroke-width: 0.5px; fill: rgb(255, 197, 8); fill-opacity: 1; stroke: rgb(255, 255, 255); stroke-opacity: 1;"/><path class="point" transform="translate(301.42,247.16)" d="M4,4H-4V-4H4Z" style="opacity: 1; stroke-width: 0.5px; fill: rgb(255, 197, 8); fill-opacity: 1; stroke: rgb(255, 255, 255); stroke-opacity: 1;"/><path class="point" transform="translate(355.12,274.81)" d="M4,4H-4V-4H4Z" style="opacity: 1; stroke-width: 0.5px; fill: rgb(255, 197, 8); fill-opacity: 1; stroke: rgb(255, 255, 255); stroke-opacity: 1;"/><path class="point" transform="translate(408.81,309.49)" d="M4,4H-4V-4H4Z" style="opacity: 1; stroke-width: 0.5px; fill: rgb(255, 197, 8); fill-opacity: 1; stroke: rgb(255, 255, 255); stroke-opacity: 1;"/><path class="point" transform="translate(462.51,338.78)" d="M4,4H-4V-4H4Z" style="opacity: 1; stroke-width: 0.5px; fill: rgb(255, 197, 8); fill-opacity: 1; stroke: rgb(255, 255, 255); stroke-opacity: 1;"/><path class="point" transform="translate(516.2,356.82)" d="M4,4H-4V-4H4Z" style="opacity: 1; stroke-width: 0.5px; fill: rgb(255, 197, 8); fill-opacity: 1; stroke: rgb(255, 255, 255); stroke-opacity: 1;"/><path class="point" transform="translate(569.9,378.21)" d="M4,4H-4V-4H4Z" style="opacity: 1; stroke-width: 0.5px; fill: rgb(255, 197, 8); fill-opacity: 1; stroke: rgb(255, 255, 255); stroke-opacity: 1;"/><path class="point" transform="translate(623.59,389.39)" d="M4,4H-4V-4H4Z" style="opacity: 1; stroke-width: 0.5px; fill: rgb(255, 197, 8); fill-opacity: 1; stroke: rgb(255, 255, 255); stroke-opacity: 1;"/></g><g class="text"/></g><g class="trace scatter tracec1343f" style="stroke-miterlimit: 2; opacity: 1;"><g class="fills"/><g class="errorbars"><g class="errorbar"><path class="yerror" d="M28.950000000000003,256.77h8m-4,0V301.89m-4,0h8" style="vector-effect: none; stroke-width: 1.5px; stroke: rgb(44, 62, 80); stroke-opacity: 1;"/></g><g class="errorbar"><path class="yerror" d="M76.83,282.49h8m-4,0V325.34m-4,0h8" style="vector-effect: none; stroke-width: 1.5px; stroke: rgb(44, 62, 80); stroke-opacity: 1;"/></g><g class="errorbar"><path class="yerror" d="M124.71000000000001,304.86h8m-4,0V344.98m-4,0h8" style="vector-effect: none; stroke-width: 1.5px; stroke: rgb(44, 62, 80); stroke-opacity: 1;"/></g><g class="errorbar"><path class="yerror" d="M172.58,319.25h8m-4,0V356.47m-4,0h8" style="vector-effect: none; stroke-width: 1.5px; stroke: rgb(44, 62, 80); stroke-opacity: 1;"/></g><g class="errorbar"><path class="yerror" d="M220.46,340.09h8m-4,0V374.48m-4,0h8" style="vector-effect: none; stroke-width: 1.5px; stroke: rgb(44, 62, 80); stroke-opacity: 1;"/></g><g class="errorbar"><path class="yerror" d="M268.34,355.11h8m-4,0V386.89m-4,0h8" style="vector-effect: none; stroke-width: 1.5px; stroke: rgb(44, 62, 80); stroke-opacity: 1;"/></g><g class="errorbar"><path class="yerror" d="M316.22,373.49h8m-4,0V402.96m-4,0h8" style="vector-effect: none; stroke-width: 1.5px; stroke: rgb(44, 62, 80); stroke-opacity: 1;"/></g><g class="errorbar"><path class="yerror" d="M364.1,392.76h8m-4,0V420.22m-4,0h8" style="vector-effect: none; stroke-width: 1.5px; stroke: rgb(44, 62, 80); stroke-opacity: 1;"/></g><g class="errorbar"><path class="yerror" d="M411.98,397.42h8m-4,0V423.15m-4,0h8" style="vector-effect: none; stroke-width: 1.5px; stroke: rgb(44, 62, 80); stroke-opacity: 1;"/></g><g class="errorbar"><path class="yerror" d="M459.85,411.51h8m-4,0V435.76m-4,0h8" style="vector-effect: none; stroke-width: 1.5px; stroke: rgb(44, 62, 80); stroke-opacity: 1;"/></g><g class="errorbar"><path class="yerror" d="M507.73,415.77h8m-4,0V438.75m-4,0h8" style="vector-effect: none; stroke-width: 1.5px; stroke: rgb(44, 62, 80); stroke-opacity: 1;"/></g><g class="errorbar"><path class="yerror" d="M555.61,425.07h8m-4,0V446.98m-4,0h8" style="vector-effect: none; stroke-width: 1.5px; stroke: rgb(44, 62, 80); stroke-opacity: 1;"/></g></g><g class="lines"/><g class="points"><path class="point" transform="translate(32.95,279.33)" d="M5.2,0L0,5.2L-5.2,0L0,-5.2Z" style="opacity: 1; stroke-width: 0.5px; fill: rgb(44, 62, 80); fill-opacity: 1; stroke: rgb(255, 255, 255); stroke-opacity: 1;"/><path class="point" transform="translate(80.83,303.91)" d="M5.2,0L0,5.2L-5.2,0L0,-5.2Z" style="opacity: 1; stroke-width: 0.5px; fill: rgb(44, 62, 80); fill-opacity: 1; stroke: rgb(255, 255, 255); stroke-opacity: 1;"/><path class="point" transform="translate(128.71,324.92)" d="M5.2,0L0,5.2L-5.2,0L0,-5.2Z" style="opacity: 1; stroke-width: 0.5px; fill: rgb(44, 62, 80); fill-opacity: 1; stroke: rgb(255, 255, 255); stroke-opacity: 1;"/><path class="point" transform="translate(176.58,337.86)" d="M5.2,0L0,5.2L-5.2,0L0,-5.2Z" style="opacity: 1; stroke-width: 0.5px; fill: rgb(44, 62, 80); fill-opacity: 1; stroke: rgb(255, 255, 255); stroke-opacity: 1;"/><path class="point" transform="translate(224.46,357.28)" d="M5.2,0L0,5.2L-5.2,0L0,-5.2Z" style="opacity: 1; stroke-width: 0.5px; fill: rgb(44, 62, 80); fill-opacity: 1; stroke: rgb(255, 255, 255); stroke-opacity: 1;"/><path class="point" transform="translate(272.34,371)" d="M5.2,0L0,5.2L-5.2,0L0,-5.2Z" style="opacity: 1; stroke-width: 0.5px; fill: rgb(44, 62, 80); fill-opacity: 1; stroke: rgb(255, 255, 255); stroke-opacity: 1;"/><path class="point" transform="translate(320.22,388.23)" d="M5.2,0L0,5.2L-5.2,0L0,-5.2Z" style="opacity: 1; stroke-width: 0.5px; fill: rgb(44, 62, 80); fill-opacity: 1; stroke: rgb(255, 255, 255); stroke-opacity: 1;"/><path class="point" transform="translate(368.1,406.49)" d="M5.2,0L0,5.2L-5.2,0L0,-5.2Z" style="opacity: 1; stroke-width: 0.5px; fill: rgb(44, 62, 80); fill-opacity: 1; stroke: rgb(255, 255, 255); stroke-opacity: 1;"/><path class="point" transform="translate(415.98,410.29)" d="M5.2,0L0,5.2L-5.2,0L0,-5.2Z" style="opacity: 1; stroke-width: 0.5px; fill: rgb(44, 62, 80); fill-opacity: 1; stroke: rgb(255, 255, 255); stroke-opacity: 1;"/><path class="point" transform="translate(463.85,423.63)" d="M5.2,0L0,5.2L-5.2,0L0,-5.2Z" style="opacity: 1; stroke-width: 0.5px; fill: rgb(44, 62, 80); fill-opacity: 1; stroke: rgb(255, 255, 255); stroke-opacity: 1;"/><path class="point" transform="translate(511.73,427.26)" d="M5.2,0L0,5.2L-5.2,0L0,-5.2Z" style="opacity: 1; stroke-width: 0.5px; fill: rgb(44, 62, 80); fill-opacity: 1; stroke: rgb(255, 255, 255); stroke-opacity: 1;"/><path class="point" transform="translate(559.61,436.02)" d="M5.2,0L0,5.2L-5.2,0L0,-5.2Z" style="opacity: 1; stroke-width: 0.5px; fill: rgb(44, 62, 80); fill-opacity: 1; stroke: rgb(255, 255, 255); stroke-opacity: 1;"/></g><g class="text"/></g><g class="trace scatter tracee47e34" style="stroke-miterlimit: 2; opacity: 1;"><g class="fills"/><g class="errorbars"><g class="errorbar"><path class="yerror" d="M28.950000000000003,182.25h8m-4,0V242m-4,0h8" style="vector-effect: none; stroke-width: 1.5px; stroke: rgb(107, 114, 128); stroke-opacity: 1;"/></g><g class="errorbar"><path class="yerror" d="M81,163.42h8m-4,0V222.66m-4,0h8" style="vector-effect: none; stroke-width: 1.5px; stroke: rgb(107, 114, 128); stroke-opacity: 1;"/></g><g class="errorbar"><path class="yerror" d="M133.05,182.97h8m-4,0V241.41m-4,0h8" style="vector-effect: none; stroke-width: 1.5px; stroke: rgb(107, 114, 128); stroke-opacity: 1;"/></g><g class="errorbar"><path class="yerror" d="M185.1,189.54h8m-4,0V246.82m-4,0h8" style="vector-effect: none; stroke-width: 1.5px; stroke: rgb(107, 114, 128); stroke-opacity: 1;"/></g><g class="errorbar"><path class="yerror" d="M237.15,214.47h8m-4,0V270.13m-4,0h8" style="vector-effect: none; stroke-width: 1.5px; stroke: rgb(107, 114, 128); stroke-opacity: 1;"/></g><g class="errorbar"><path class="yerror" d="M289.2,211.18h8m-4,0V264.77m-4,0h8" style="vector-effect: none; stroke-width: 1.5px; stroke: rgb(107, 114, 128); stroke-opacity: 1;"/></g><g class="errorbar"><path class="yerror" d="M341.25,239.75h8m-4,0V290.89m-4,0h8" style="vector-effect: none; stroke-width: 1.5px; stroke: rgb(107, 114, 128); stroke-opacity: 1;"/></g><g class="errorbar"><path class="yerror" d="M393.29,247.17h8m-4,0V295.64m-4,0h8" style="vector-effect: none; stroke-width: 1.5px; stroke: rgb(107, 114, 128); stroke-opacity: 1;"/></g><g class="errorbar"><path class="yerror" d="M445.34,261.98h8m-4,0V307.69m-4,0h8" style="vector-effect: none; stroke-width: 1.5px; stroke: rgb(107, 114, 128); stroke-opacity: 1;"/></g><g class="errorbar"><path class="yerror" d="M497.39,280.49h8m-4,0V323.5m-4,0h8" style="vector-effect: none; stroke-width: 1.5px; stroke: rgb(107, 114, 128); stroke-opacity: 1;"/></g><g class="errorbar"><path class="yerror" d="M549.44,286.26h8m-4,0V326.71m-4,0h8" style="vector-effect: none; stroke-width: 1.5px; stroke: rgb(107, 114, 128); stroke-opacity: 1;"/></g><g class="errorbar"><path class="yerror" d="M601.49,318.91h8m-4,0V356.98m-4,0h8" style="vector-effect: none; stroke-width: 1.5px; stroke: rgb(107, 114, 128); stroke-opacity: 1;"/></g></g><g class="lines"/><g class="points"><path class="point" transform="translate(32.95,212.12)" d="M-4.62,2H4.62L0,-4Z" style="opacity: 1; stroke-width: 0.5px; fill: rgb(107, 114, 128); fill-opacity: 1; stroke: rgb(255, 255, 255); stroke-opacity: 1;"/><path class="point" transform="translate(85,193.04)" d="M-4.62,2H4.62L0,-4Z" style="opacity: 1; stroke-width: 0.5px; fill: rgb(107, 114, 128); fill-opacity: 1; stroke: rgb(255, 255, 255); stroke-opacity: 1;"/><path class="point" transform="translate(137.05,212.19)" d="M-4.62,2H4.62L0,-4Z" style="opacity: 1; stroke-width: 0.5px; fill: rgb(107, 114, 128); fill-opacity: 1; stroke: rgb(255, 255, 255); stroke-opacity: 1;"/><path class="point" transform="translate(189.1,218.18)" d="M-4.62,2H4.62L0,-4Z" style="opacity: 1; stroke-width: 0.5px; fill: rgb(107, 114, 128); fill-opacity: 1; stroke: rgb(255, 255, 255); stroke-opacity: 1;"/><path class="point" transform="translate(241.15,242.3)" d="M-4.62,2H4.62L0,-4Z" style="opacity: 1; stroke-width: 0.5px; fill: rgb(107, 114, 128); fill-opacity: 1; stroke: rgb(255, 255, 255); stroke-opacity: 1;"/><path class="point" transform="translate(293.2,237.97)" d="M-4.62,2H4.62L0,-4Z" style="opacity: 1; stroke-width: 0.5px; fill: rgb(107, 114, 128); fill-opacity: 1; stroke: rgb(255, 255, 255); stroke-opacity: 1;"/><path class="point" transform="translate(345.25,265.32)" d="M-4.62,2H4.62L0,-4Z" style="opacity: 1; stroke-width: 0.5px; fill: rgb(107, 114, 128); fill-opacity: 1; stroke: rgb(255, 255, 255); stroke-opacity: 1;"/><path class="point" transform="translate(397.29,271.4)" d="M-4.62,2H4.62L0,-4Z" style="opacity: 1; stroke-width: 0.5px; fill: rgb(107, 114, 128); fill-opacity: 1; stroke: rgb(255, 255, 255); stroke-opacity: 1;"/><path class="point" transform="translate(449.34,284.83)" d="M-4.62,2H4.62L0,-4Z" style="opacity: 1; stroke-width: 0.5px; fill: rgb(107, 114, 128); fill-opacity: 1; stroke: rgb(255, 255, 255); stroke-opacity: 1;"/><path class="point" transform="translate(501.39,302)" d="M-4.62,2H4.62L0,-4Z" style="opacity: 1; stroke-width: 0.5px; fill: rgb(107, 114, 128); fill-opacity: 1; stroke: rgb(255, 255, 255); stroke-opacity: 1;"/><path class="point" transform="translate(553.44,306.49)" d="M-4.62,2H4.62L0,-4Z" style="opacity: 1; stroke-width: 0.5px; fill: rgb(107, 114, 128); fill-opacity: 1; stroke: rgb(255, 255, 255); stroke-opacity: 1;"/><path class="point" transform="translate(605.49,337.94)" d="M-4.62,2H4.62L0,-4Z" style="opacity: 1; stroke-width: 0.5px; fill: rgb(107, 114, 128); fill-opacity: 1; stroke: rgb(255, 255, 255); stroke-opacity: 1;"/></g><g class="text"/></g><g class="trace scatter trace1c8c51" style="stroke-miterlimit: 2; opacity: 1;"><g class="fills"/><g class="errorbars"><g class="errorbar"><path class="yerror" d="M28.950000000000003,34.36h8m-4,0V114.51m-4,0h8" style="vector-effect: none; stroke-width: 1.5px; stroke: rgb(156, 163, 175); stroke-opacity: 1;"/></g><g class="errorbar"><path class="yerror" d="M85.79,62.22h8m-4,0V139.71m-4,0h8" style="vector-effect: none; stroke-width: 1.5px; stroke: rgb(156, 163, 175); stroke-opacity: 1;"/></g><g class="errorbar"><path class="yerror" d="M142.62,76.16h8m-4,0V149.33m-4,0h8" style="vector-effect: none; stroke-width: 1.5px; stroke: rgb(156, 163, 175); stroke-opacity: 1;"/></g><g class="errorbar"><path class="yerror" d="M199.46,95.38h8m-4,0V162.65m-4,0h8" style="vector-effect: none; stroke-width: 1.5px; stroke: rgb(156, 163, 175); stroke-opacity: 1;"/></g><g class="errorbar"><path class="yerror" d="M256.3,159.21h8m-4,0V219.69m-4,0h8" style="vector-effect: none; stroke-width: 1.5px; stroke: rgb(156, 163, 175); stroke-opacity: 1;"/></g><g class="errorbar"><path class="yerror" d="M313.14,191.47h8m-4,0V245.16m-4,0h8" style="vector-effect: none; stroke-width: 1.5px; stroke: rgb(156, 163, 175); stroke-opacity: 1;"/></g><g class="errorbar"><path class="yerror" d="M369.97,243.01h8m-4,0V290.5m-4,0h8" style="vector-effect: none; stroke-width: 1.5px; stroke: rgb(156, 163, 175); stroke-opacity: 1;"/></g><g class="errorbar"><path class="yerror" d="M426.81,282.44h8m-4,0V324.56m-4,0h8" style="vector-effect: none; stroke-width: 1.5px; stroke: rgb(156, 163, 175); stroke-opacity: 1;"/></g><g class="errorbar"><path class="yerror" d="M483.65,320.32h8m-4,0V357.89m-4,0h8" style="vector-effect: none; stroke-width: 1.5px; stroke: rgb(156, 163, 175); stroke-opacity: 1;"/></g><g class="errorbar"><path class="yerror" d="M540.48,349.75h8m-4,0V383.53m-4,0h8" style="vector-effect: none; stroke-width: 1.5px; stroke: rgb(156, 163, 175); stroke-opacity: 1;"/></g><g class="errorbar"><path class="yerror" d="M597.32,367.58h8m-4,0V398.22m-4,0h8" style="vector-effect: none; stroke-width: 1.5px; stroke: rgb(156, 163, 175); stroke-opacity: 1;"/></g><g class="errorbar"><path class="yerror" d="M654.16,386.48h8m-4,0V414.52m-4,0h8" style="vector-effect: none; stroke-width: 1.5px; stroke: rgb(156, 163, 175); stroke-opacity: 1;"/></g></g><g class="lines"/><g class="points"><path class="point" transform="translate(32.95,74.43)" d="M4.8,1.6H1.6V4.8H-1.6V1.6H-4.8V-1.6H-1.6V-4.8H1.6V-1.6H4.8Z" style="opacity: 1; stroke-width: 0.5px; fill: rgb(156, 163, 175); fill-opacity: 1; stroke: rgb(255, 255, 255); stroke-opacity: 1;"/><path class="point" transform="translate(89.79,100.97)" d="M4.8,1.6H1.6V4.8H-1.6V1.6H-4.8V-1.6H-1.6V-4.8H1.6V-1.6H4.8Z" style="opacity: 1; stroke-width: 0.5px; fill: rgb(156, 163, 175); fill-opacity: 1; stroke: rgb(255, 255, 255); stroke-opacity: 1;"/><path class="point" transform="translate(146.62,112.75)" d="M4.8,1.6H1.6V4.8H-1.6V1.6H-4.8V-1.6H-1.6V-4.8H1.6V-1.6H4.8Z" style="opacity: 1; stroke-width: 0.5px; fill: rgb(156, 163, 175); fill-opacity: 1; stroke: rgb(255, 255, 255); stroke-opacity: 1;"/><path class="point" transform="translate(203.46,129.01)" d="M4.8,1.6H1.6V4.8H-1.6V1.6H-4.8V-1.6H-1.6V-4.8H1.6V-1.6H4.8Z" style="opacity: 1; stroke-width: 0.5px; fill: rgb(156, 163, 175); fill-opacity: 1; stroke: rgb(255, 255, 255); stroke-opacity: 1;"/><path class="point" transform="translate(260.3,189.45)" d="M4.8,1.6H1.6V4.8H-1.6V1.6H-4.8V-1.6H-1.6V-4.8H1.6V-1.6H4.8Z" style="opacity: 1; stroke-width: 0.5px; fill: rgb(156, 163, 175); fill-opacity: 1; stroke: rgb(255, 255, 255); stroke-opacity: 1;"/><path class="point" transform="translate(317.14,218.32)" d="M4.8,1.6H1.6V4.8H-1.6V1.6H-4.8V-1.6H-1.6V-4.8H1.6V-1.6H4.8Z" style="opacity: 1; stroke-width: 0.5px; fill: rgb(156, 163, 175); fill-opacity: 1; stroke: rgb(255, 255, 255); stroke-opacity: 1;"/><path class="point" transform="translate(373.97,266.75)" d="M4.8,1.6H1.6V4.8H-1.6V1.6H-4.8V-1.6H-1.6V-4.8H1.6V-1.6H4.8Z" style="opacity: 1; stroke-width: 0.5px; fill: rgb(156, 163, 175); fill-opacity: 1; stroke: rgb(255, 255, 255); stroke-opacity: 1;"/><path class="point" transform="translate(430.81,303.5)" d="M4.8,1.6H1.6V4.8H-1.6V1.6H-4.8V-1.6H-1.6V-4.8H1.6V-1.6H4.8Z" style="opacity: 1; stroke-width: 0.5px; fill: rgb(156, 163, 175); fill-opacity: 1; stroke: rgb(255, 255, 255); stroke-opacity: 1;"/><path class="point" transform="translate(487.65,339.11)" d="M4.8,1.6H1.6V4.8H-1.6V1.6H-4.8V-1.6H-1.6V-4.8H1.6V-1.6H4.8Z" style="opacity: 1; stroke-width: 0.5px; fill: rgb(156, 163, 175); fill-opacity: 1; stroke: rgb(255, 255, 255); stroke-opacity: 1;"/><path class="point" transform="translate(544.48,366.64)" d="M4.8,1.6H1.6V4.8H-1.6V1.6H-4.8V-1.6H-1.6V-4.8H1.6V-1.6H4.8Z" style="opacity: 1; stroke-width: 0.5px; fill: rgb(156, 163, 175); fill-opacity: 1; stroke: rgb(255, 255, 255); stroke-opacity: 1;"/><path class="point" transform="translate(601.32,382.9)" d="M4.8,1.6H1.6V4.8H-1.6V1.6H-4.8V-1.6H-1.6V-4.8H1.6V-1.6H4.8Z" style="opacity: 1; stroke-width: 0.5px; fill: rgb(156, 163, 175); fill-opacity: 1; stroke: rgb(255, 255, 255); stroke-opacity: 1;"/><path class="point" transform="translate(658.16,400.5)" d="M4.8,1.6H1.6V4.8H-1.6V1.6H-4.8V-1.6H-1.6V-4.8H1.6V-1.6H4.8Z" style="opacity: 1; stroke-width: 0.5px; fill: rgb(156, 163, 175); fill-opacity: 1; stroke: rgb(255, 255, 255); stroke-opacity: 1;"/></g><g class="text"/></g></g></g></g><g class="zerolinelayer-above"/><path class="xlines-above crisp" d="" style="fill: none; stroke-width: 1px; stroke: rgb(0, 0, 0); stroke-opacity: 0;"/><path class="ylines-above crisp" d="" style="fill: none; stroke-width: 1px; stroke: rgb(0, 0, 0); stroke-opacity: 0;"/><g class="overlines-above"/><g class="xaxislayer-above"><path class="xtick ticks crisp" d="M0,541v5" transform="translate(80,0)" style="stroke: rgb(107, 114, 128); stroke-opacity: 1; stroke-width: 1px;"/><path class="xtick ticks crisp" d="M0,541v5" transform="translate(112.95,0)" style="stroke: rgb(107, 114, 128); stroke-opacity: 1; stroke-width: 1px;"/><path class="xtick ticks crisp" d="M0,541v5" transform="translate(139.87,0)" style="stroke: rgb(107, 114, 128); stroke-opacity: 1; stroke-width: 1px;"/><path class="xtick ticks crisp" d="M0,541v5" transform="translate(162.63,0)" style="stroke: rgb(107, 114, 128); stroke-opacity: 1; stroke-width: 1px;"/><path class="xtick ticks crisp" d="M0,541v5" transform="translate(182.35,0)" style="stroke: rgb(107, 114, 128); stroke-opacity: 1; stroke-width: 1px;"/><path class="xtick ticks crisp" d="M0,541v5" transform="translate(199.74,0)" style="stroke: rgb(107, 114, 128); stroke-opacity: 1; stroke-width: 1px;"/><path class="xtick ticks crisp" d="M0,541v5" transform="translate(215.3,0)" style="stroke: rgb(107, 114, 128); stroke-opacity: 1; stroke-width: 1px;"/><path class="xtick ticks crisp" d="M0,541v5" transform="translate(317.65,0)" style="stroke: rgb(107, 114, 128); stroke-opacity: 1; stroke-width: 1px;"/><path class="xtick ticks crisp" d="M0,541v5" transform="translate(377.52,0)" style="stroke: rgb(107, 114, 128); stroke-opacity: 1; stroke-width: 1px;"/><path class="xtick ticks crisp" d="M0,541v5" transform="translate(420,0)" style="stroke: rgb(107, 114, 128); stroke-opacity: 1; stroke-width: 1px;"/><path class="xtick ticks crisp" d="M0,541v5" transform="translate(452.95,0)" style="stroke: rgb(107, 114, 128); stroke-opacity: 1; stroke-width: 1px;"/><path class="xtick ticks crisp" d="M0,541v5" transform="translate(479.87,0)" style="stroke: rgb(107, 114, 128); stroke-opacity: 1; stroke-width: 1px;"/><path class="xtick ticks crisp" d="M0,541v5" transform="translate(502.63,0)" style="stroke: rgb(107, 114, 128); stroke-opacity: 1; stroke-width: 1px;"/><path class="xtick ticks crisp" d="M0,541v5" transform="translate(522.35,0)" style="stroke: rgb(107, 114, 128); stroke-opacity: 1; stroke-width: 1px;"/><path class="xtick ticks crisp" d="M0,541v5" transform="translate(539.74,0)" style="stroke: rgb(107, 114, 128); stroke-opacity: 1; stroke-width: 1px;"/><path class="xtick ticks crisp" d="M0,541v5" transform="translate(555.3,0)" style="stroke: rgb(107, 114, 128); stroke-opacity: 1; stroke-width: 1px;"/><path class="xtick ticks crisp" d="M0,541v5" transform="translate(657.65,0)" style="stroke: rgb(107, 114, 128); stroke-opacity: 1; stroke-width: 1px;"/><path class="xtick ticks crisp" d="M0,541v5" transform="translate(717.52,0)" style="stroke: rgb(107, 114, 128); stroke-opacity: 1; stroke-width: 1px;"/><path class="xtick ticks crisp" d="M0,541v5" transform="translate(760,0)" style="stroke: rgb(107, 114, 128); stroke-opacity: 1; stroke-width: 1px;"/><g class="xtick"><text text-anchor="middle" x="0" y="555.5" transform="translate(80,0)" style="font-family: 'Times New Roman', serif; font-size: 7.5px; fill: rgb(44, 62, 80); fill-opacity: 1; white-space: pre;">4</text></g><g class="xtick"><text text-anchor="middle" x="0" y="555.5" style="font-family: 'Times New Roman', serif; font-size: 7.5px; fill: rgb(44, 62, 80); fill-opacity: 1; white-space: pre;" transform="translate(112.95,0)">5</text></g><g class="xtick"><text text-anchor="middle" x="0" y="555.5" style="font-family: 'Times New Roman', serif; font-size: 7.5px; fill: rgb(44, 62, 80); fill-opacity: 1; white-space: pre;" transform="translate(139.87,0)">6</text></g><g class="xtick"><text text-anchor="middle" x="0" y="555.5" style="font-family: 'Times New Roman', serif; font-size: 7.5px; fill: rgb(44, 62, 80); fill-opacity: 1; white-space: pre;" transform="translate(162.63,0)">7</text></g><g class="xtick"><text text-anchor="middle" x="0" y="555.5" style="font-family: 'Times New Roman', serif; font-size: 7.5px; fill: rgb(44, 62, 80); fill-opacity: 1; white-space: pre;" transform="translate(182.35,0)">8</text></g><g class="xtick"><text text-anchor="middle" x="0" y="555.5" style="font-family: 'Times New Roman', serif; font-size: 7.5px; fill: rgb(44, 62, 80); fill-opacity: 1; white-space: pre;" transform="translate(199.74,0)">9</text></g><g class="xtick"><text text-anchor="middle" x="2.5" y="563" style="font-family: 'Times New Roman', serif; font-size: 10px; fill: rgb(44, 62, 80); fill-opacity: 1; white-space: pre;" transform="translate(215.3,0)">100</text></g><g class="xtick"><text text-anchor="middle" x="0" y="555.5" style="font-family: 'Times New Roman', serif; font-size: 7.5px; fill: rgb(44, 62, 80); fill-opacity: 1; white-space: pre;" transform="translate(317.65,0)">2</text></g><g class="xtick"><text text-anchor="middle" x="0" y="555.5" style="font-family: 'Times New Roman', serif; font-size: 7.5px; fill: rgb(44, 62, 80); fill-opacity: 1; white-space: pre;" transform="translate(377.52,0)">3</text></g><g class="xtick"><text text-anchor="middle" x="0" y="555.5" style="font-family: 'Times New Roman', serif; font-size: 7.5px; fill: rgb(44, 62, 80); fill-opacity: 1; white-space: pre;" transform="translate(420,0)">4</text></g><g class="xtick"><text text-anchor="middle" x="0" y="555.5" style="font-family: 'Times New Roman', serif; font-size: 7.5px; fill: rgb(44, 62, 80); fill-opacity: 1; white-space: pre;" transform="translate(452.95,0)">5</text></g><g class="xtick"><text text-anchor="middle" x="0" y="555.5" style="font-family: 'Times New Roman', serif; font-size: 7.5px; fill: rgb(44, 62, 80); fill-opacity: 1; white-space: pre;" transform="translate(479.87,0)">6</text></g><g class="xtick"><text text-anchor="middle" x="0" y="555.5" style="font-family: 'Times New Roman', serif; font-size: 7.5px; fill: rgb(44, 62, 80); fill-opacity: 1; white-space: pre;" transform="translate(502.63,0)">7</text></g><g class="xtick"><text text-anchor="middle" x="0" y="555.5" style="font-family: 'Times New Roman', serif; font-size: 7.5px; fill: rgb(44, 62, 80); fill-opacity: 1; white-space: pre;" transform="translate(522.35,0)">8</text></g><g class="xtick"><text text-anchor="middle" x="0" y="555.5" style="font-family: 'Times New Roman', serif; font-size: 7.5px; fill: rgb(44, 62, 80); fill-opacity: 1; white-space: pre;" transform="translate(539.74,0)">9</text></g><g class="xtick"><text text-anchor="middle" x="2.5" y="563" style="font-family: 'Times New Roman', serif; font-size: 10px; fill: rgb(44, 62, 80); fill-opacity: 1; white-space: pre;" transform="translate(555.3,0)">1000</text></g><g class="xtick"><text text-anchor="middle" x="0" y="555.5" style="font-family: 'Times New Roman', serif; font-size: 7.5px; fill: rgb(44, 62, 80); fill-opacity: 1; white-space: pre;" transform="translate(657.65,0)">2</text></g><g class="xtick"><text text-anchor="middle" x="0" y="555.5" style="font-family: 'Times New Roman', serif; font-size: 7.5px; fill: rgb(44, 62, 80); fill-opacity: 1; white-space: pre;" transform="translate(717.52,0)">3</text></g><g class="xtick"><text text-anchor="middle" x="0" y="555.5" style="font-family: 'Times New Roman', serif; font-size: 7.5px; fill: rgb(44, 62, 80); fill-opacity: 1; white-space: pre;" transform="translate(760,0)">4</text></g></g><g class="yaxislayer-above"><path class="ytick ticks crisp" d="M79,0h-5" transform="translate(0,540)" style="stroke: rgb(107, 114, 128); stroke-opacity: 1; stroke-width: 1px;"/><path class="ytick ticks crisp" d="M79,0h-5" transform="translate(0,461.17)" style="stroke: rgb(107, 114, 128); stroke-opacity: 1; stroke-width: 1px;"/><path class="ytick ticks crisp" d="M79,0h-5" transform="translate(0,382.33)" style="stroke: rgb(107, 114, 128); stroke-opacity: 1; stroke-width: 1px;"/><path class="ytick ticks crisp" d="M79,0h-5" transform="translate(0,303.5)" style="stroke: rgb(107, 114, 128); stroke-opacity: 1; stroke-width: 1px;"/><path class="ytick ticks crisp" d="M79,0h-5" transform="translate(0,224.67)" style="stroke: rgb(107, 114, 128); stroke-opacity: 1; stroke-width: 1px;"/><path class="ytick ticks crisp" d="M79,0h-5" transform="translate(0,145.82999999999998)" style="stroke: rgb(107, 114, 128); stroke-opacity: 1; stroke-width: 1px;"/><path class="ytick ticks crisp" d="M79,0h-5" transform="translate(0,67)" style="stroke: rgb(107, 114, 128); stroke-opacity: 1; stroke-width: 1px;"/><g class="ytick"><text text-anchor="end" x="72" y="3.5" transform="translate(0,540)" style="font-family: 'Times New Roman', serif; font-size: 10px; fill: rgb(44, 62, 80); fill-opacity: 1; white-space: pre;">0</text></g><g class="ytick"><text text-anchor="end" x="72" y="3.5" style="font-family: 'Times New Roman', serif; font-size: 10px; fill: rgb(44, 62, 80); fill-opacity: 1; white-space: pre;" transform="translate(0,461.17)">2</text></g><g class="ytick"><text text-anchor="end" x="72" y="3.5" style="font-family: 'Times New Roman', serif; font-size: 10px; fill: rgb(44, 62, 80); fill-opacity: 1; white-space: pre;" transform="translate(0,382.33)">4</text></g><g class="ytick"><text text-anchor="end" x="72" y="3.5" style="font-family: 'Times New Roman', serif; font-size: 10px; fill: rgb(44, 62, 80); fill-opacity: 1; white-space: pre;" transform="translate(0,303.5)">6</text></g><g class="ytick"><text text-anchor="end" x="72" y="3.5" style="font-family: 'Times New Roman', serif; font-size: 10px; fill: rgb(44, 62, 80); fill-opacity: 1; white-space: pre;" transform="translate(0,224.67)">8</text></g><g class="ytick"><text text-anchor="end" x="72" y="3.5" style="font-family: 'Times New Roman', serif; font-size: 10px; fill: rgb(44, 62, 80); fill-opacity: 1; white-space: pre;" transform="translate(0,145.82999999999998)">10</text></g><g class="ytick"><text text-anchor="end" x="72" y="3.5" style="font-family: 'Times New Roman', serif; font-size: 10px; fill: rgb(44, 62, 80); fill-opacity: 1; white-space: pre;" transform="translate(0,67)">12</text></g></g><g class="overaxes-above"/></g></g><g class="polarlayer"/><g class="smithlayer"/><g class="ternarylayer"/><g class="geolayer"/><g class="funnelarealayer"/><g class="pielayer"/><g class="iciclelayer"/><g class="treemaplayer"/><g class="sunburstlayer"/><g class="glimages"/><defs id="topdefs-0d4927"><g class="clips"/><clipPath id="legend0d4927"><rect width="358" height="29" x="1" y="1"/></clipPath></defs><g class="layer-above"><g class="imagelayer"/><g class="shapelayer"/></g><g class="infolayer"><g class="legend" pointer-events="all" transform="translate(240,12.34999999999998)"><rect class="bg" shape-rendering="crispEdges" style="stroke: rgb(229, 231, 235); stroke-opacity: 1; fill: rgb(255, 255, 255); fill-opacity: 0.8; stroke-width: 1px;" width="359" height="30" x="0.5" y="0.5"/><g class="scrollbox" transform="" clip-path="url(#legend0d4927)"><g class="groups"><g class="traces" transform="translate(1,15.5)" style="opacity: 1;"><text class="legendtext" text-anchor="start" x="40" y="3.9" style="font-family: 'Times New Roman', serif; font-size: 10px; fill: rgb(44, 62, 80); fill-opacity: 1; white-space: pre;">A1795</text><g class="layers" style="opacity: 1;"><g class="legendfill"/><g class="legendlines"/><g class="legendsymbols"><g class="legendpoints"><path class="scatterpts" transform="translate(20,0)" d="M4,0A4,4 0 1,1 0,-4A4,4 0 0,1 4,0Z" style="opacity: 1; stroke-width: 0.5px; fill: rgb(0, 155, 216); fill-opacity: 1; stroke: rgb(255, 255, 255); stroke-opacity: 1;"/></g></g></g><rect class="legendtoggle" x="0" y="-9.5" width="70.734375" height="19" style="fill: rgb(0, 0, 0); fill-opacity: 0;"/></g><g class="traces" transform="translate(74.234375,15.5)" style="opacity: 1;"><text class="legendtext" text-anchor="start" x="40" y="3.9" style="font-family: 'Times New Roman', serif; font-size: 10px; fill: rgb(44, 62, 80); fill-opacity: 1; white-space: pre;">A2029</text><g class="layers" style="opacity: 1;"><g class="legendfill"/><g class="legendlines"/><g class="legendsymbols"><g class="legendpoints"><path class="scatterpts" transform="translate(20,0)" d="M4,4H-4V-4H4Z" style="opacity: 1; stroke-width: 0.5px; fill: rgb(255, 197, 8); fill-opacity: 1; stroke: rgb(255, 255, 255); stroke-opacity: 1;"/></g></g></g><rect class="legendtoggle" x="0" y="-9.5" width="70.734375" height="19" style="fill: rgb(0, 0, 0); fill-opacity: 0;"/></g><g class="traces" transform="translate(147.46875,15.5)" style="opacity: 1;"><text class="legendtext" text-anchor="start" x="40" y="3.9" style="font-family: 'Times New Roman', serif; font-size: 10px; fill: rgb(44, 62, 80); fill-opacity: 1; white-space: pre;">A2199</text><g class="layers" style="opacity: 1;"><g class="legendfill"/><g class="legendlines"/><g class="legendsymbols"><g class="legendpoints"><path class="scatterpts" transform="translate(20,0)" d="M5.2,0L0,5.2L-5.2,0L0,-5.2Z" style="opacity: 1; stroke-width: 0.5px; fill: rgb(44, 62, 80); fill-opacity: 1; stroke: rgb(255, 255, 255); stroke-opacity: 1;"/></g></g></g><rect class="legendtoggle" x="0" y="-9.5" width="70.734375" height="19" style="fill: rgb(0, 0, 0); fill-opacity: 0;"/></g><g class="traces" transform="translate(220.703125,15.5)" style="opacity: 1;"><text class="legendtext" text-anchor="start" x="40" y="3.9" style="font-family: 'Times New Roman', serif; font-size: 10px; fill: rgb(44, 62, 80); fill-opacity: 1; white-space: pre;">A401</text><g class="layers" style="opacity: 1;"><g class="legendfill"/><g class="legendlines"/><g class="legendsymbols"><g class="legendpoints"><path class="scatterpts" transform="translate(20,0)" d="M-4.62,2H4.62L0,-4Z" style="opacity: 1; stroke-width: 0.5px; fill: rgb(107, 114, 128); fill-opacity: 1; stroke: rgb(255, 255, 255); stroke-opacity: 1;"/></g></g></g><rect class="legendtoggle" x="0" y="-9.5" width="65.734375" height="19" style="fill: rgb(0, 0, 0); fill-opacity: 0;"/></g><g class="traces" transform="translate(288.9375,15.5)" style="opacity: 1;"><text class="legendtext" text-anchor="start" x="40" y="3.9" style="font-family: 'Times New Roman', serif; font-size: 10px; fill: rgb(44, 62, 80); fill-opacity: 1; white-space: pre;">Coma</text><g class="layers" style="opacity: 1;"><g class="legendfill"/><g class="legendlines"/><g class="legendsymbols"><g class="legendpoints"><path class="scatterpts" transform="translate(20,0)" d="M4.8,1.6H1.6V4.8H-1.6V1.6H-4.8V-1.6H-1.6V-4.8H1.6V-1.6H4.8Z" style="opacity: 1; stroke-width: 0.5px; fill: rgb(156, 163, 175); fill-opacity: 1; stroke: rgb(255, 255, 255); stroke-opacity: 1;"/></g></g></g><rect class="legendtoggle" x="0" y="-9.5" width="66.9482421875" height="19" style="fill: rgb(0, 0, 0); fill-opacity: 0;"/></g></g></g><rect class="scrollbar" rx="20" ry="3" width="0" height="0" style="fill: rgb(128, 139, 164); fill-opacity: 1;" x="0" y="0"/></g><g class="g-gtitle"><text class="gtitle" x="400" y="33.5" text-anchor="middle" dy="0em" style="opacity: 1; font-family: 'Times New Roman', serif; font-size: 13px; fill: rgb(44, 62, 80); fill-opacity: 1; white-space: pre;"><tspan class="line" dy="0em" x="400" y="33.5">Galaxy Cluster Temperature Profiles</tspan><tspan class="line" dy="1.3em" x="400" y="33.5">​<tspan style="font-size:70%" dy="0.3em">Chandra X-ray Observations (Vikhlinin et al. 2006)</tspan><tspan dy="-0.21em">​</tspan></tspan></text></g><g class="g-xtitle"><text class="xtitle" x="420" y="583" text-anchor="middle" style="opacity: 1; font-family: 'Times New Roman', serif; font-size: 11px; fill: rgb(44, 62, 80); fill-opacity: 1; white-space: pre;">Radius [kpc]</text></g><g class="g-ytitle"><text class="ytitle" transform="rotate(-90,48,303.5)" x="48" y="303.5" text-anchor="middle" style="opacity: 1; font-family: 'Times New Roman', serif; font-size: 11px; fill: rgb(44, 62, 80); fill-opacity: 1; white-space: pre;">Temperature [keV]</text></g></g></svg>